SplineFontDB: 3.0
FontName: FiraSlav-Medium
FullName: Fira Slav Medium
FamilyName: Fira Slav Medium
Weight: Medium
Copyright: Copyright 2019 Aleksandr Andreev. Slavonic Computing Initiative. Digitized data copyright \\(c\\) 2012-2015, The Mozilla Foundation and Telefonica S.A.
Version: 003.5
ItalicAngle: 0
UnderlinePosition: -100
UnderlineWidth: 50
Ascent: 800
Descent: 200
InvalidEm: 0
sfntRevision: 0x00037ff9
LayerCount: 2
Layer: 0 0 "Back" 1
Layer: 1 0 "Fore" 0
XUID: [1021 16 -658691101 12027655]
StyleMap: 0x0040
FSType: 0
OS2Version: 3
OS2_WeightWidthSlopeOnly: 0
OS2_UseTypoMetrics: 0
CreationTime: 1441835616
ModificationTime: 1549521491
PfmFamily: 17
TTFWeight: 500
TTFWidth: 5
LineGap: 0
VLineGap: 0
Panose: 2 11 6 9 5 0 0 2 0 4
OS2TypoAscent: 935
OS2TypoAOffset: 0
OS2TypoDescent: -265
OS2TypoDOffset: 0
OS2TypoLinegap: 0
OS2WinAscent: 935
OS2WinAOffset: 0
OS2WinDescent: 265
OS2WinDOffset: 0
HheadAscent: 935
HheadAOffset: 0
HheadDescent: -265
HheadDOffset: 0
OS2SubXSize: 650
OS2SubYSize: 600
OS2SubXOff: 0
OS2SubYOff: 75
OS2SupXSize: 650
OS2SupYSize: 600
OS2SupXOff: 0
OS2SupYOff: 350
OS2StrikeYSize: 50
OS2StrikeYPos: 316
OS2CapHeight: 690
OS2XHeight: 528
OS2Vendor: 'CTDB'
OS2CodePages: 6000009f.00000000
OS2UnicodeRanges: 40000287.02003801.00000000.00000000
Lookup: 1 0 0 "'aalt' Access All Alternates in Latin lookup 0" { "'aalt' Access All Alternates in Latin lookup 0 subtable"  } ['aalt' ('DFLT' <'dflt' > 'latn' <'AFK ' 'AZE ' 'CAT ' 'CRT ' 'KAZ ' 'MOL ' 'PLK ' 'ROM ' 'TAT ' 'TRK ' 'dflt' > ) ]
Lookup: 3 0 0 "'aalt' Access All Alternates in Latin lookup 1" { "'aalt' Access All Alternates in Latin lookup 1 subtable"  } ['aalt' ('DFLT' <'dflt' > 'latn' <'AFK ' 'AZE ' 'CAT ' 'CRT ' 'KAZ ' 'MOL ' 'PLK ' 'ROM ' 'TAT ' 'TRK ' 'dflt' > ) ]
Lookup: 1 0 0 "'locl' Localized Forms in Latin lookup 2" { "'locl' Localized Forms in Latin lookup 2 subtable"  } ['locl' ('latn' <'TAT ' > ) ]

StartChar: .notdef
Encoding: 1114112 -1 0
Width: 600
Flags: MW
HStem: -350 52<145 456 145 510> 48 72<272 292> 403 48<276.5 312> 998 52<145 456 145 145>
VStem: 90 55<-298 998 -298 1050 -298 1050> 247 70<74.5 95> 257 50<173 218 165.5 257> 348 54<307.5 353.5> 456 54<-298 998 998 998>
LayerCount: 2
Fore
SplineSet
90 1050 m 1xbb80
 510 1050 l 1
 510 -350 l 1
 90 -350 l 1
 90 1050 l 1xbb80
456 -298 m 1
 456 998 l 1
 145 998 l 1
 145 -298 l 1
 456 -298 l 1
307 173 m 2
 307 158 294 149 282 149 c 0
 269 149 257 158 257 173 c 2
 257 257 l 1
 329 261 348 281 348 334 c 0
 348 373 337 403 287 403 c 0
 266 403 252 400 235 392 c 0
 230 390 226 389 222 389 c 0
 207 389 198 399 198 412 c 0
 198 439 252 451 291 451 c 0
 377 451 402 396 402 336 c 0
 402 266 374 228 307 218 c 1
 307 173 l 2
247 85 m 0xfd80
 247 105 262 120 282 120 c 0
 302 120 317 105 317 85 c 0
 317 64 302 48 282 48 c 0
 262 48 247 64 247 85 c 0xfd80
EndSplineSet
EndChar

StartChar: A
Encoding: 65 65 2
Width: 600
GlyphClass: 2
Flags: MW
HStem: 0 21G<8 127 8 8 469 469 469 592> 166 90<199 397 199 421 175 397> 600 90<298 298> 670 20G<228 372 372 372>
VStem: 8 584<0 0>
AnchorPoint: "Anchor-5" 300 690 basechar 0
AnchorPoint: "Anchor-4" 298 0 basechar 0
LayerCount: 2
Fore
SplineSet
421 166 m 1xd8
 175 166 l 1
 127 0 l 1
 8 0 l 1
 228 690 l 1
 372 690 l 1
 592 0 l 1
 469 0 l 1
 421 166 l 1xd8
199 256 m 1
 397 256 l 1
 298 600 l 1xe8
 199 256 l 1
EndSplineSet
Substitution2: "Single Substitution lookup 29 subtable" ordfeminine
Substitution2: "'aalt' Access All Alternates in Latin lookup 0 subtable" ordfeminine
EndChar

StartChar: Aacute
Encoding: 193 193 3
Width: 600
GlyphClass: 2
Flags: MW
HStem: 0 21G<8 127 8 8 469 469 469 592> 166 90<199 397 199 421 175 397> 600 90<298 298> 670 20G<228 372 372 372>
VStem: 8 584<0 0>
AnchorPoint: "Anchor-5" 300 690 basechar 0
AnchorPoint: "Anchor-4" 298 0 basechar 0
LayerCount: 2
Fore
SplineSet
381 924 m 1xd8
 427 834 l 1
 204 754 l 1
 176 812 l 1
 381 924 l 1xd8
421 166 m 1
 175 166 l 1
 127 0 l 1
 8 0 l 1
 228 690 l 1
 372 690 l 1
 592 0 l 1
 469 0 l 1
 421 166 l 1
199 256 m 1
 397 256 l 1
 298 600 l 1xe8
 199 256 l 1
EndSplineSet
EndChar

StartChar: Abreve
Encoding: 258 258 4
Width: 600
GlyphClass: 2
Flags: MW
HStem: 0 21G<8 127 8 8 469 469 469 592> 166 90<199 397 199 421 175 397> 600 90<298 298> 670 20G<228 372 372 372> 756 82<275 321.5 275 343>
VStem: 8 584<0 0>
AnchorPoint: "Anchor-5" 300 690 basechar 0
AnchorPoint: "Anchor-4" 298 0 basechar 0
LayerCount: 2
Fore
SplineSet
298 756 m 0xdc
 209 756 150 811 142 888 c 1
 210 902 l 1
 224 862 252 838 298 838 c 0
 345 838 375 862 388 902 c 1
 457 888 l 1
 449 811 388 756 298 756 c 0xdc
421 166 m 1
 175 166 l 1
 127 0 l 1
 8 0 l 1
 228 690 l 1
 372 690 l 1
 592 0 l 1
 469 0 l 1
 421 166 l 1
199 256 m 1
 397 256 l 1
 298 600 l 1xec
 199 256 l 1
EndSplineSet
EndChar

StartChar: Acircumflex
Encoding: 194 194 5
Width: 600
GlyphClass: 2
Flags: MW
HStem: 0 21G<8 127 8 8 469 469 469 592> 166 90<199 397 199 421 175 397> 600 90<298 298> 670 20G<228 372 372 372>
VStem: 8 584<0 0>
AnchorPoint: "Anchor-5" 300 690 basechar 0
AnchorPoint: "Anchor-4" 298 0 basechar 0
LayerCount: 2
Fore
SplineSet
336 923 m 1xd8
 473 807 l 1
 429 756 l 1
 300 838 l 1
 172 756 l 1
 127 807 l 1
 264 923 l 1
 336 923 l 1xd8
421 166 m 1
 175 166 l 1
 127 0 l 1
 8 0 l 1
 228 690 l 1
 372 690 l 1
 592 0 l 1
 469 0 l 1
 421 166 l 1
199 256 m 1
 397 256 l 1
 298 600 l 1xe8
 199 256 l 1
EndSplineSet
EndChar

StartChar: Adieresis
Encoding: 196 196 6
Width: 600
GlyphClass: 2
Flags: MW
HStem: 0 21G<8 127 8 8 469 469 469 592> 166 90<199 397 199 421 175 397> 600 90<298 298> 670 20G<228 372 372 372> 765 127<173.5 210 390 426.5>
VStem: 126 130<810 846.5> 343 130<810 846.5>
AnchorPoint: "Anchor-5" 300 828 basechar 0
AnchorPoint: "Anchor-4" 298 0 basechar 0
LayerCount: 2
Fore
SplineSet
192 765 m 0xde
 155 765 126 792 126 828 c 0
 126 865 155 892 192 892 c 0
 228 892 256 865 256 828 c 0
 256 792 228 765 192 765 c 0xde
408 765 m 0
 372 765 343 792 343 828 c 0
 343 865 372 892 408 892 c 0
 445 892 473 865 473 828 c 0
 473 792 445 765 408 765 c 0
421 166 m 1
 175 166 l 1
 127 0 l 1
 8 0 l 1
 228 690 l 1
 372 690 l 1
 592 0 l 1
 469 0 l 1
 421 166 l 1
199 256 m 1
 397 256 l 1
 298 600 l 1xee
 199 256 l 1
EndSplineSet
EndChar

StartChar: Agrave
Encoding: 192 192 7
Width: 600
GlyphClass: 2
Flags: MW
HStem: 0 21G<8 127 8 8 469 469 469 592> 166 90<199 397 199 421 175 397> 600 90<298 298> 670 20G<228 372 372 372>
VStem: 8 584<0 0>
AnchorPoint: "Anchor-5" 300 690 basechar 0
AnchorPoint: "Anchor-4" 298 0 basechar 0
LayerCount: 2
Fore
SplineSet
228 926 m 1xd8
 424 812 l 1
 394 754 l 1
 177 836 l 1
 228 926 l 1xd8
421 166 m 1
 175 166 l 1
 127 0 l 1
 8 0 l 1
 228 690 l 1
 372 690 l 1
 592 0 l 1
 469 0 l 1
 421 166 l 1
199 256 m 1
 397 256 l 1
 298 600 l 1xe8
 199 256 l 1
EndSplineSet
EndChar

StartChar: Amacron
Encoding: 256 256 8
Width: 600
GlyphClass: 2
Flags: MW
HStem: 0 21G<8 127 8 8 469 469 469 592> 166 90<199 397 199 421 175 397> 600 90<298 298> 670 20G<228 372 372 372> 790 81<158 441 158 441>
VStem: 158 283<790 871 790 871>
AnchorPoint: "Anchor-5" 300 690 basechar 0
AnchorPoint: "Anchor-4" 298 0 basechar 0
LayerCount: 2
Fore
SplineSet
441 790 m 1xdc
 158 790 l 1
 158 871 l 1
 441 871 l 1
 441 790 l 1xdc
421 166 m 1
 175 166 l 1
 127 0 l 1
 8 0 l 1
 228 690 l 1
 372 690 l 1
 592 0 l 1
 469 0 l 1
 421 166 l 1
199 256 m 1
 397 256 l 1
 298 600 l 1xec
 199 256 l 1
EndSplineSet
EndChar

StartChar: Aogonek
Encoding: 260 260 9
Width: 600
GlyphClass: 2
Flags: MW
HStem: -238 77<452.5 472> 0 21G<8 127 8 8 536 592 536 536> 166 90<199 397 199 421 175 397> 600 90<298 298> 670 20G<228 372 372 372>
VStem: 326 90<-128.5 -96>
AnchorPoint: "Anchor-5" 300 690 basechar 0
AnchorPoint: "Anchor-4" 298 0 basechar 0
LayerCount: 2
Fore
SplineSet
536 0 m 1xec
 437 -40 416 -75 416 -113 c 0
 416 -144 433 -161 472 -161 c 0
 493 -161 509 -159 531 -154 c 1
 521 -231 l 1
 502 -235 485 -238 459 -238 c 0
 380 -238 326 -195 326 -131 c 0
 326 -61 375 -16 463 19 c 1
 421 166 l 1
 175 166 l 1
 127 0 l 1
 8 0 l 1
 228 690 l 1
 372 690 l 1
 592 0 l 1
 536 0 l 1xec
199 256 m 1
 397 256 l 1
 298 600 l 1xf4
 199 256 l 1
EndSplineSet
EndChar

StartChar: Aring
Encoding: 197 197 10
Width: 600
GlyphClass: 2
Flags: MW
HStem: 0 21G<8 127 8 8 469 469 469 592> 166 90<199 397 199 421 175 397> 600 90<298 298> 670 20G<228 372 372 372> 733 59<284.5 315.5 284.5 336.5> 900 60<284.5 315.5>
VStem: 178 71<829.5 864 829.5 878> 350 71<829.5 864>
AnchorPoint: "Anchor-5" 300 690 basechar 0
AnchorPoint: "Anchor-4" 298 0 basechar 0
LayerCount: 2
Fore
SplineSet
300 960 m 0xdf
 373 960 421 909 421 847 c 0
 421 785 373 733 300 733 c 0
 227 733 178 785 178 847 c 0
 178 909 227 960 300 960 c 0xdf
300 900 m 0
 269 900 249 881 249 847 c 0
 249 812 269 792 300 792 c 0
 331 792 350 812 350 847 c 0
 350 881 331 900 300 900 c 0
421 166 m 1
 175 166 l 1
 127 0 l 1
 8 0 l 1
 228 690 l 1
 372 690 l 1
 592 0 l 1
 469 0 l 1
 421 166 l 1
199 256 m 1
 397 256 l 1
 298 600 l 1xef
 199 256 l 1
EndSplineSet
EndChar

StartChar: Atilde
Encoding: 195 195 11
Width: 600
GlyphClass: 2
Flags: MW
HStem: 0 21G<8 127 8 8 469 469 469 592> 166 90<199 397 199 421 175 397> 600 90<298 298> 670 20G<228 372 372 372> 771 82<339 367.5 339 382> 818 83<230 259.5>
VStem: 8 584<0 0>
AnchorPoint: "Anchor-5" 300 690 basechar 0
AnchorPoint: "Anchor-4" 298 0 basechar 0
LayerCount: 2
Fore
SplineSet
357 771 m 0xda
 303 771 277 818 242 818 c 0
 218 818 205 802 189 772 c 1
 126 803 l 1
 150 857 188 901 241 901 c 0xd6
 299 901 321 853 357 853 c 0
 378 853 392 867 410 897 c 1
 473 866 l 1
 447 806 407 771 357 771 c 0xda
421 166 m 1xd6
 175 166 l 1
 127 0 l 1
 8 0 l 1
 228 690 l 1
 372 690 l 1
 592 0 l 1
 469 0 l 1
 421 166 l 1xd6
199 256 m 1
 397 256 l 1
 298 600 l 1xe6
 199 256 l 1
EndSplineSet
EndChar

StartChar: AE
Encoding: 198 198 12
Width: 600
GlyphClass: 2
Flags: MW
HStem: 0 86<443 606 443 606> 167 87<164 307 164 324 144 307> 307 86<397 557 397 397> 604 86<337 553 337 337>
VStem: -12 618<0 86>
AnchorPoint: "Anchor-5" 357 690 basechar 0
AnchorPoint: "Anchor-4" 300 0 basechar 0
LayerCount: 2
Fore
SplineSet
324 167 m 1
 144 167 l 1
 103 0 l 1
 -12 0 l 1
 180 690 l 1
 566 690 l 1
 553 604 l 1
 337 604 l 1
 382 393 l 1
 557 393 l 1
 557 307 l 1
 397 307 l 1
 443 86 l 1
 606 86 l 1
 606 0 l 1
 355 0 l 1
 324 167 l 1
164 254 m 1
 307 254 l 1
 242 606 l 1
 164 254 l 1
EndSplineSet
EndChar

StartChar: AEacute
Encoding: 508 508 13
Width: 600
GlyphClass: 2
Flags: MW
HStem: 0 86<443 606 443 606> 167 87<164 307 164 324 144 307> 307 86<397 557 397 397> 604 86<337 553 337 337>
VStem: -12 618<0 86>
AnchorPoint: "Anchor-5" 357 690 basechar 0
AnchorPoint: "Anchor-4" 300 0 basechar 0
LayerCount: 2
Fore
SplineSet
438 924 m 1
 484 834 l 1
 261 754 l 1
 233 812 l 1
 438 924 l 1
324 167 m 1
 144 167 l 1
 103 0 l 1
 -12 0 l 1
 180 690 l 1
 566 690 l 1
 553 604 l 1
 337 604 l 1
 382 393 l 1
 557 393 l 1
 557 307 l 1
 397 307 l 1
 443 86 l 1
 606 86 l 1
 606 0 l 1
 355 0 l 1
 324 167 l 1
164 254 m 1
 307 254 l 1
 242 606 l 1
 164 254 l 1
EndSplineSet
EndChar

StartChar: B
Encoding: 66 66 14
Width: 600
GlyphClass: 2
Flags: MW
HStem: 0 90<197 283> 317 87<197 287 287 295 197 287> 603 87<197 270 270 280 197 197>
VStem: 81 116<90 317 404 603> 404 118<472 541> 431 121<153 245.5>
AnchorPoint: "Anchor-5" 300 690 basechar 0
AnchorPoint: "Anchor-4" 300 0 basechar 0
LayerCount: 2
Fore
SplineSet
552 199 m 0xf4
 552 45 419 0 283 0 c 2
 81 0 l 1
 81 690 l 1
 270 690 l 2
 399 690 522 650 522 515 c 0xf8
 522 429 460 381 394 366 c 1
 469 353 552 313 552 199 c 0xf4
404 506 m 0xf8
 404 576 359 603 280 603 c 2
 197 603 l 1
 197 404 l 1
 287 404 l 2
 364 404 404 434 404 506 c 0xf8
431 199 m 0xf4
 431 292 372 317 295 317 c 2
 197 317 l 1
 197 90 l 1
 291 90 l 2
 357 90 431 107 431 199 c 0xf4
EndSplineSet
EndChar

StartChar: C
Encoding: 67 67 15
Width: 600
GlyphClass: 2
Flags: MW
HStem: -13 94<309.5 401 309.5 410.5> 613 91<311.5 390>
VStem: 52 121<250.5 443.5 250.5 462>
AnchorPoint: "Anchor-5" 364 690 basechar 0
AnchorPoint: "Anchor-4" 351 0 basechar 0
LayerCount: 2
Fore
SplineSet
358 704 m 0
 452 704 510 679 566 634 c 1
 506 562 l 1
 464 596 417 613 363 613 c 0
 260 613 173 541 173 346 c 0
 173 155 255 81 364 81 c 0
 438 81 482 110 520 140 c 1
 576 69 l 1
 530 24 461 -13 360 -13 c 0
 184 -13 52 112 52 346 c 0
 52 578 190 704 358 704 c 0
EndSplineSet
EndChar

StartChar: Cacute
Encoding: 262 262 16
Width: 600
GlyphClass: 2
Flags: MW
HStem: -13 94<309.5 401 309.5 410.5> 613 91<311.5 390>
VStem: 52 121<250.5 443.5 250.5 462>
AnchorPoint: "Anchor-5" 364 690 basechar 0
AnchorPoint: "Anchor-4" 351 0 basechar 0
LayerCount: 2
Fore
SplineSet
445 924 m 1
 491 834 l 1
 268 754 l 1
 240 812 l 1
 445 924 l 1
358 704 m 0
 452 704 510 679 566 634 c 1
 506 562 l 1
 464 596 417 613 363 613 c 0
 260 613 173 541 173 346 c 0
 173 155 255 81 364 81 c 0
 438 81 482 110 520 140 c 1
 576 69 l 1
 530 24 461 -13 360 -13 c 0
 184 -13 52 112 52 346 c 0
 52 578 190 704 358 704 c 0
EndSplineSet
Substitution2: "'locl' Localized Forms in Latin lookup 7 subtable" Cacute.loclPLK
Substitution2: "'aalt' Access All Alternates in Latin lookup 0 subtable" Cacute.loclPLK
EndChar

StartChar: Ccaron
Encoding: 268 268 17
Width: 600
GlyphClass: 2
Flags: MW
HStem: -13 94<309.5 401 309.5 410.5> 613 91<311.5 390>
VStem: 52 121<250.5 443.5 250.5 462>
AnchorPoint: "Anchor-5" 364 690 basechar 0
AnchorPoint: "Anchor-4" 351 0 basechar 0
LayerCount: 2
Fore
SplineSet
493 920 m 1
 537 869 l 1
 400 753 l 1
 328 753 l 1
 191 869 l 1
 236 920 l 1
 364 838 l 1
 493 920 l 1
358 704 m 0
 452 704 510 679 566 634 c 1
 506 562 l 1
 464 596 417 613 363 613 c 0
 260 613 173 541 173 346 c 0
 173 155 255 81 364 81 c 0
 438 81 482 110 520 140 c 1
 576 69 l 1
 530 24 461 -13 360 -13 c 0
 184 -13 52 112 52 346 c 0
 52 578 190 704 358 704 c 0
EndSplineSet
EndChar

StartChar: Ccedilla
Encoding: 199 199 18
Width: 600
GlyphClass: 2
Flags: MW
HStem: -247 67<317.5 343.5 315 376> -221 21G<230 230> -103 49 -13 94<375 375> -9 21G<303 303> 613 91<311.5 390>
VStem: 52 121<250.5 443.5 250.5 462> 299 76 383 89<-155.5 -126>
AnchorPoint: "Anchor-5" 364 690 basechar 0
AnchorPoint: "Anchor-4" 351 0 basechar 0
LayerCount: 2
Fore
SplineSet
375 -54 m 1x77
 442 -60 472 -98 472 -143 c 0
 472 -209 413 -247 339 -247 c 0xb780
 296 -247 256 -236 230 -221 c 1x77
 260 -163 l 1
 280 -173 304 -180 326 -180 c 0
 361 -180 383 -169 383 -142 c 0xb780
 383 -110 351 -103 295 -103 c 1
 303 -9 l 1x6f
 156 16 52 138 52 346 c 0
 52 578 190 704 358 704 c 0
 452 704 510 679 566 634 c 1
 506 562 l 1
 464 596 417 613 363 613 c 0
 260 613 173 541 173 346 c 0
 173 155 255 81 364 81 c 0
 438 81 482 110 520 140 c 1
 576 69 l 1
 533 26 468 -10 375 -13 c 1
 375 -54 l 1x77
EndSplineSet
EndChar

StartChar: Ccircumflex
Encoding: 264 264 19
Width: 600
GlyphClass: 2
Flags: MW
HStem: -13 94<309.5 401 309.5 410.5> 613 91<311.5 390>
VStem: 52 121<250.5 443.5 250.5 462>
AnchorPoint: "Anchor-5" 364 690 basechar 0
AnchorPoint: "Anchor-4" 351 0 basechar 0
LayerCount: 2
Fore
SplineSet
400 923 m 1
 537 807 l 1
 493 756 l 1
 364 838 l 1
 236 756 l 1
 191 807 l 1
 328 923 l 1
 400 923 l 1
358 704 m 0
 452 704 510 679 566 634 c 1
 506 562 l 1
 464 596 417 613 363 613 c 0
 260 613 173 541 173 346 c 0
 173 155 255 81 364 81 c 0
 438 81 482 110 520 140 c 1
 576 69 l 1
 530 24 461 -13 360 -13 c 0
 184 -13 52 112 52 346 c 0
 52 578 190 704 358 704 c 0
EndSplineSet
EndChar

StartChar: Cdotaccent
Encoding: 266 266 20
Width: 600
GlyphClass: 2
Flags: MW
HStem: -13 94<309.5 401 309.5 410.5> 613 91<311.5 390> 767 141<340.5 384>
VStem: 52 121<250.5 443.5 250.5 462> 289 147<817 857>
AnchorPoint: "Anchor-5" 364 690 basechar 0
AnchorPoint: "Anchor-4" 351 0 basechar 0
LayerCount: 2
Fore
SplineSet
362 908 m 0
 406 908 436 877 436 837 c 0
 436 797 406 767 362 767 c 0
 319 767 289 797 289 837 c 0
 289 877 319 908 362 908 c 0
358 704 m 0
 452 704 510 679 566 634 c 1
 506 562 l 1
 464 596 417 613 363 613 c 0
 260 613 173 541 173 346 c 0
 173 155 255 81 364 81 c 0
 438 81 482 110 520 140 c 1
 576 69 l 1
 530 24 461 -13 360 -13 c 0
 184 -13 52 112 52 346 c 0
 52 578 190 704 358 704 c 0
EndSplineSet
EndChar

StartChar: D
Encoding: 68 68 21
Width: 600
GlyphClass: 2
Flags: MW
HStem: 0 88<187 240> 601 89<187 229 229 251 187 187>
VStem: 71 116<88 601 88 690 88 690> 439 122<243.5 458.5>
AnchorPoint: "Anchor-5" 285 690 basechar 0
AnchorPoint: "Anchor-4" 300 0 basechar 0
LayerCount: 2
Fore
SplineSet
561 349 m 0
 561 62 394 0 240 0 c 2
 71 0 l 1
 71 690 l 1
 229 690 l 2
 397 690 561 635 561 349 c 0
439 349 m 0
 439 568 343 601 251 601 c 2
 187 601 l 1
 187 88 l 1
 252 88 l 2
 348 88 439 138 439 349 c 0
EndSplineSet
EndChar

StartChar: Eth
Encoding: 208 208 22
Width: 600
GlyphClass: 2
Flags: MW
HStem: 0 88<198 251> 314 78<16 82 16 82 198 342> 601 89<198 240 240 262 198 198>
VStem: 82 116<88 314 88 314 88 314 392 601> 450 122<243.5 458.5>
AnchorPoint: "Anchor-5" 296 690 basechar 0
AnchorPoint: "Anchor-4" 311 0 basechar 0
LayerCount: 2
Fore
SplineSet
240 690 m 2
 407 690 572 635 572 349 c 0
 572 62 405 0 251 0 c 2
 82 0 l 1
 82 314 l 1
 16 314 l 1
 16 392 l 1
 82 392 l 1
 82 690 l 1
 240 690 l 2
263 88 m 2
 359 88 450 138 450 349 c 0
 450 568 354 601 262 601 c 2
 198 601 l 1
 198 392 l 1
 342 392 l 1
 342 314 l 1
 198 314 l 1
 198 88 l 1
 263 88 l 2
EndSplineSet
EndChar

StartChar: Dcaron
Encoding: 270 270 23
Width: 600
GlyphClass: 2
Flags: MW
HStem: 0 88<187 240> 601 89<187 229 229 251 187 187>
VStem: 71 116<88 601 88 690 88 690> 439 122<243.5 458.5>
AnchorPoint: "Anchor-5" 285 690 basechar 0
AnchorPoint: "Anchor-4" 300 0 basechar 0
LayerCount: 2
Fore
SplineSet
414 920 m 1
 458 869 l 1
 321 753 l 1
 249 753 l 1
 112 869 l 1
 157 920 l 1
 285 838 l 1
 414 920 l 1
561 349 m 0
 561 62 394 0 240 0 c 2
 71 0 l 1
 71 690 l 1
 229 690 l 2
 397 690 561 635 561 349 c 0
439 349 m 0
 439 568 343 601 251 601 c 2
 187 601 l 1
 187 88 l 1
 252 88 l 2
 348 88 439 138 439 349 c 0
EndSplineSet
EndChar

StartChar: Dcroat
Encoding: 272 272 24
Width: 600
GlyphClass: 2
Flags: MW
HStem: 0 88<198 251> 314 78<16 82 16 82 198 342> 601 89<198 240 240 262 198 198>
VStem: 82 116<88 314 88 314 88 314 392 601> 450 122<243.5 458.5>
AnchorPoint: "Anchor-5" 296 690 basechar 0
AnchorPoint: "Anchor-4" 311 0 basechar 0
LayerCount: 2
Fore
SplineSet
240 690 m 2
 407 690 572 635 572 349 c 0
 572 62 405 0 251 0 c 2
 82 0 l 1
 82 314 l 1
 16 314 l 1
 16 392 l 1
 82 392 l 1
 82 690 l 1
 240 690 l 2
263 88 m 2
 359 88 450 138 450 349 c 0
 450 568 354 601 262 601 c 2
 198 601 l 1
 198 392 l 1
 342 392 l 1
 342 314 l 1
 198 314 l 1
 198 88 l 1
 263 88 l 2
EndSplineSet
EndChar

StartChar: E
Encoding: 69 69 25
Width: 600
GlyphClass: 2
Flags: MW
HStem: 0 88<229 534 229 534> 307 87<229 479 229 479> 602 88<229 229 229 515>
VStem: 113 116<88 307 394 602>
AnchorPoint: "Anchor-5" 321 690 basechar 0
AnchorPoint: "Anchor-4" 324 0 basechar 0
LayerCount: 2
Fore
SplineSet
229 602 m 1
 229 394 l 1
 479 394 l 1
 479 307 l 1
 229 307 l 1
 229 88 l 1
 534 88 l 1
 534 0 l 1
 113 0 l 1
 113 690 l 1
 528 690 l 1
 515 602 l 1
 229 602 l 1
EndSplineSet
EndChar

StartChar: Eacute
Encoding: 201 201 26
Width: 600
GlyphClass: 2
Flags: MW
HStem: 0 88<229 534 229 534> 307 87<229 479 229 479> 602 88<229 229 229 515>
VStem: 113 116<88 307 394 602>
AnchorPoint: "Anchor-5" 321 690 basechar 0
AnchorPoint: "Anchor-4" 324 0 basechar 0
LayerCount: 2
Fore
SplineSet
402 924 m 1
 448 834 l 1
 225 754 l 1
 197 812 l 1
 402 924 l 1
229 602 m 1
 229 394 l 1
 479 394 l 1
 479 307 l 1
 229 307 l 1
 229 88 l 1
 534 88 l 1
 534 0 l 1
 113 0 l 1
 113 690 l 1
 528 690 l 1
 515 602 l 1
 229 602 l 1
EndSplineSet
EndChar

StartChar: Ebreve
Encoding: 276 276 27
Width: 600
GlyphClass: 2
Flags: MW
HStem: 0 88<229 534 229 534> 307 87<229 479 229 479> 602 88<229 229 229 515> 756 82<296 342.5 296 364>
VStem: 113 116<88 307 394 602>
AnchorPoint: "Anchor-5" 321 690 basechar 0
AnchorPoint: "Anchor-4" 324 0 basechar 0
LayerCount: 2
Fore
SplineSet
319 756 m 0
 230 756 171 811 163 888 c 1
 231 902 l 1
 245 862 273 838 319 838 c 0
 366 838 396 862 409 902 c 1
 478 888 l 1
 470 811 409 756 319 756 c 0
229 602 m 1
 229 394 l 1
 479 394 l 1
 479 307 l 1
 229 307 l 1
 229 88 l 1
 534 88 l 1
 534 0 l 1
 113 0 l 1
 113 690 l 1
 528 690 l 1
 515 602 l 1
 229 602 l 1
EndSplineSet
EndChar

StartChar: Ecaron
Encoding: 282 282 28
Width: 600
GlyphClass: 2
Flags: MW
HStem: 0 88<229 534 229 534> 307 87<229 479 229 479> 602 88<229 229 229 515>
VStem: 113 116<88 307 394 602>
AnchorPoint: "Anchor-5" 321 690 basechar 0
AnchorPoint: "Anchor-4" 324 0 basechar 0
LayerCount: 2
Fore
SplineSet
450 920 m 1
 494 869 l 1
 357 753 l 1
 285 753 l 1
 148 869 l 1
 193 920 l 1
 321 838 l 1
 450 920 l 1
229 602 m 1
 229 394 l 1
 479 394 l 1
 479 307 l 1
 229 307 l 1
 229 88 l 1
 534 88 l 1
 534 0 l 1
 113 0 l 1
 113 690 l 1
 528 690 l 1
 515 602 l 1
 229 602 l 1
EndSplineSet
EndChar

StartChar: Ecircumflex
Encoding: 202 202 29
Width: 600
GlyphClass: 2
Flags: MW
HStem: 0 88<229 534 229 534> 307 87<229 479 229 479> 602 88<229 229 229 515>
VStem: 113 116<88 307 394 602>
AnchorPoint: "Anchor-5" 321 690 basechar 0
AnchorPoint: "Anchor-4" 324 0 basechar 0
LayerCount: 2
Fore
SplineSet
357 923 m 1
 494 807 l 1
 450 756 l 1
 321 838 l 1
 193 756 l 1
 148 807 l 1
 285 923 l 1
 357 923 l 1
229 602 m 1
 229 394 l 1
 479 394 l 1
 479 307 l 1
 229 307 l 1
 229 88 l 1
 534 88 l 1
 534 0 l 1
 113 0 l 1
 113 690 l 1
 528 690 l 1
 515 602 l 1
 229 602 l 1
EndSplineSet
EndChar

StartChar: Edieresis
Encoding: 203 203 30
Width: 600
GlyphClass: 2
Flags: MW
HStem: 0 88<229 534 229 534> 307 87<229 479 229 479> 602 88<229 229 229 515> 765 127<193.5 230 410 446.5>
VStem: 113 116<88 307 394 602> 146 130<810 846.5> 363 130<810 846.5>
AnchorPoint: "Anchor-5" 320 828 basechar 0
AnchorPoint: "Anchor-4" 324 0 basechar 0
LayerCount: 2
Fore
SplineSet
212 765 m 0xf6
 175 765 146 792 146 828 c 0
 146 865 175 892 212 892 c 0
 248 892 276 865 276 828 c 0
 276 792 248 765 212 765 c 0xf6
428 765 m 0
 392 765 363 792 363 828 c 0
 363 865 392 892 428 892 c 0
 465 892 493 865 493 828 c 0
 493 792 465 765 428 765 c 0
229 602 m 1xe8
 229 394 l 1
 479 394 l 1
 479 307 l 1
 229 307 l 1
 229 88 l 1
 534 88 l 1
 534 0 l 1
 113 0 l 1
 113 690 l 1
 528 690 l 1
 515 602 l 1
 229 602 l 1xe8
EndSplineSet
EndChar

StartChar: Edotaccent
Encoding: 278 278 31
Width: 600
GlyphClass: 2
Flags: MW
HStem: 0 88<229 534 229 534> 307 87<229 479 229 479> 602 88<229 229 229 515> 767 141<297.5 341>
VStem: 113 116<88 307 394 602> 246 147<817 857>
AnchorPoint: "Anchor-5" 321 690 basechar 0
AnchorPoint: "Anchor-4" 324 0 basechar 0
LayerCount: 2
Fore
SplineSet
319 908 m 0
 363 908 393 877 393 837 c 0
 393 797 363 767 319 767 c 0
 276 767 246 797 246 837 c 0
 246 877 276 908 319 908 c 0
229 602 m 1xe8
 229 394 l 1
 479 394 l 1
 479 307 l 1
 229 307 l 1
 229 88 l 1
 534 88 l 1
 534 0 l 1
 113 0 l 1
 113 690 l 1
 528 690 l 1
 515 602 l 1
 229 602 l 1xe8
EndSplineSet
EndChar

StartChar: Egrave
Encoding: 200 200 32
Width: 600
GlyphClass: 2
Flags: MW
HStem: 0 88<229 534 229 534> 307 87<229 479 229 479> 602 88<229 229 229 515>
VStem: 113 116<88 307 394 602>
AnchorPoint: "Anchor-5" 321 690 basechar 0
AnchorPoint: "Anchor-4" 324 0 basechar 0
LayerCount: 2
Fore
SplineSet
248 926 m 1
 444 812 l 1
 414 754 l 1
 197 836 l 1
 248 926 l 1
229 602 m 1
 229 394 l 1
 479 394 l 1
 479 307 l 1
 229 307 l 1
 229 88 l 1
 534 88 l 1
 534 0 l 1
 113 0 l 1
 113 690 l 1
 528 690 l 1
 515 602 l 1
 229 602 l 1
EndSplineSet
EndChar

StartChar: Emacron
Encoding: 274 274 33
Width: 600
GlyphClass: 2
Flags: MW
HStem: 0 88<229 534 229 534> 307 87<229 479 229 479> 602 88<229 229 229 515> 790 81<178 461 178 461>
VStem: 113 116<88 307 394 602> 178 283<790 871 790 871>
AnchorPoint: "Anchor-5" 321 690 basechar 0
AnchorPoint: "Anchor-4" 324 0 basechar 0
LayerCount: 2
Fore
SplineSet
461 790 m 1xf4
 178 790 l 1
 178 871 l 1
 461 871 l 1
 461 790 l 1xf4
229 602 m 1xf8
 229 394 l 1
 479 394 l 1
 479 307 l 1
 229 307 l 1
 229 88 l 1
 534 88 l 1
 534 0 l 1
 113 0 l 1
 113 690 l 1
 528 690 l 1
 515 602 l 1
 229 602 l 1xf8
EndSplineSet
EndChar

StartChar: Eogonek
Encoding: 280 280 34
Width: 600
GlyphClass: 2
Flags: MW
HStem: -238 77<383.5 403> 0 88<229 352 467 534 467 467> 307 87<229 479 229 479> 602 88<229 515 229 229>
VStem: 113 116<88 88 88 307 394 602> 257 90<-128.5 -102>
AnchorPoint: "Anchor-5" 321 690 basechar 0
AnchorPoint: "Anchor-4" 324 0 basechar 0
LayerCount: 2
Fore
SplineSet
229 88 m 1
 534 88 l 1
 534 0 l 1
 467 0 l 1
 368 -40 347 -75 347 -113 c 0
 347 -144 364 -161 403 -161 c 0
 424 -161 440 -159 462 -154 c 1
 452 -231 l 1
 433 -235 416 -238 390 -238 c 0
 311 -238 257 -195 257 -131 c 0
 257 -73 290 -32 352 0 c 1xfc
 113 0 l 1
 113 690 l 1
 528 690 l 1
 515 602 l 1
 229 602 l 1
 229 394 l 1
 479 394 l 1
 479 307 l 1
 229 307 l 1
 229 88 l 1
EndSplineSet
EndChar

StartChar: F
Encoding: 70 70 35
Width: 600
GlyphClass: 2
Flags: MW
HStem: 0 21G<127 243 127 127> 294 88<243 503 243 503> 602 88<243 243 243 539>
VStem: 127 116<0 294 382 602>
AnchorPoint: "Anchor-5" 300 690 basechar 0
AnchorPoint: "Anchor-4" 300 0 basechar 0
LayerCount: 2
Fore
SplineSet
243 602 m 1
 243 382 l 1
 503 382 l 1
 503 294 l 1
 243 294 l 1
 243 0 l 1
 127 0 l 1
 127 690 l 1
 551 690 l 1
 539 602 l 1
 243 602 l 1
EndSplineSet
EndChar

StartChar: G
Encoding: 71 71 36
Width: 600
GlyphClass: 2
Flags: MW
HStem: -13 90<268.5 344 268.5 366> 296 89<320 437 320 320> 613 91<292.5 368>
VStem: 37 121<249.5 444.5 249.5 464.5> 437 113<106 296 296 296>
AnchorPoint: "Anchor-5" 330 690 basechar 0
AnchorPoint: "Anchor-4" 329 0 basechar 0
LayerCount: 2
Fore
SplineSet
318 -13 m 0
 142 -13 37 108 37 346 c 0
 37 583 177 704 338 704 c 0
 432 704 489 675 543 624 c 1
 478 557 l 1
 436 595 395 613 341 613 c 0
 244 613 158 543 158 346 c 0
 158 153 214 77 323 77 c 0
 365 77 404 87 437 106 c 1
 437 296 l 1
 320 296 l 1
 308 385 l 1
 550 385 l 1
 550 50 l 1
 485 13 414 -13 318 -13 c 0
EndSplineSet
EndChar

StartChar: Gbreve
Encoding: 286 286 37
Width: 600
GlyphClass: 2
Flags: MW
HStem: -13 90<268.5 344 268.5 366> 296 89<320 437 320 320> 613 91<292.5 368> 756 82<305 351.5 305 373>
VStem: 37 121<249.5 444.5 249.5 464.5> 437 113<106 296 296 296>
AnchorPoint: "Anchor-5" 330 690 basechar 0
AnchorPoint: "Anchor-4" 329 0 basechar 0
LayerCount: 2
Fore
SplineSet
328 756 m 0
 239 756 180 811 172 888 c 1
 240 902 l 1
 254 862 282 838 328 838 c 0
 375 838 405 862 418 902 c 1
 487 888 l 1
 479 811 418 756 328 756 c 0
318 -13 m 0
 142 -13 37 108 37 346 c 0
 37 583 177 704 338 704 c 0
 432 704 489 675 543 624 c 1
 478 557 l 1
 436 595 395 613 341 613 c 0
 244 613 158 543 158 346 c 0
 158 153 214 77 323 77 c 0
 365 77 404 87 437 106 c 1
 437 296 l 1
 320 296 l 1
 308 385 l 1
 550 385 l 1
 550 50 l 1
 485 13 414 -13 318 -13 c 0
EndSplineSet
EndChar

StartChar: Gcircumflex
Encoding: 284 284 38
Width: 600
GlyphClass: 2
Flags: MW
HStem: -13 90<268.5 344 268.5 366> 296 89<320 437 320 320> 613 91<292.5 368>
VStem: 37 121<249.5 444.5 249.5 464.5> 437 113<106 296 296 296>
AnchorPoint: "Anchor-5" 330 690 basechar 0
AnchorPoint: "Anchor-4" 329 0 basechar 0
LayerCount: 2
Fore
SplineSet
366 923 m 1
 503 807 l 1
 459 756 l 1
 330 838 l 1
 202 756 l 1
 157 807 l 1
 294 923 l 1
 366 923 l 1
318 -13 m 0
 142 -13 37 108 37 346 c 0
 37 583 177 704 338 704 c 0
 432 704 489 675 543 624 c 1
 478 557 l 1
 436 595 395 613 341 613 c 0
 244 613 158 543 158 346 c 0
 158 153 214 77 323 77 c 0
 365 77 404 87 437 106 c 1
 437 296 l 1
 320 296 l 1
 308 385 l 1
 550 385 l 1
 550 50 l 1
 485 13 414 -13 318 -13 c 0
EndSplineSet
EndChar

StartChar: Gcommaaccent
Encoding: 290 290 39
Width: 600
GlyphClass: 2
Flags: MW
HStem: -13 90<268.5 344 268.5 366> 296 89<320 437 320 320> 613 91<292.5 368>
VStem: 37 121<249.5 444.5 249.5 464.5> 268 127<-141 -113.5> 437 113<106 296 296 296>
AnchorPoint: "Anchor-5" 330 690 basechar 0
AnchorPoint: "Anchor-4" 329 0 basechar 0
LayerCount: 2
Fore
SplineSet
318 -13 m 0
 142 -13 37 108 37 346 c 0
 37 583 177 704 338 704 c 0
 432 704 489 675 543 624 c 1
 478 557 l 1
 436 595 395 613 341 613 c 0
 244 613 158 543 158 346 c 0
 158 153 214 77 323 77 c 0
 365 77 404 87 437 106 c 1
 437 296 l 1
 320 296 l 1
 308 385 l 1
 550 385 l 1
 550 50 l 1
 485 13 414 -13 318 -13 c 0
331 -69 m 0
 367 -69 395 -95 395 -131 c 0
 395 -151 389 -171 377 -196 c 2
 327 -300 l 1
 265 -300 l 1
 294 -183 l 1
 278 -171 268 -153 268 -131 c 0
 268 -96 295 -69 331 -69 c 0
EndSplineSet
EndChar

StartChar: Gdotaccent
Encoding: 288 288 40
Width: 600
GlyphClass: 2
Flags: MW
HStem: -13 90<268.5 344 268.5 366> 296 89<320 437 320 320> 613 91<292.5 368> 767 141<307.5 351>
VStem: 37 121<249.5 444.5 249.5 464.5> 256 147<817 857> 437 113<106 296 296 296>
AnchorPoint: "Anchor-5" 330 690 basechar 0
AnchorPoint: "Anchor-4" 329 0 basechar 0
LayerCount: 2
Fore
SplineSet
329 908 m 0
 373 908 403 877 403 837 c 0
 403 797 373 767 329 767 c 0
 286 767 256 797 256 837 c 0
 256 877 286 908 329 908 c 0
318 -13 m 0
 142 -13 37 108 37 346 c 0
 37 583 177 704 338 704 c 0
 432 704 489 675 543 624 c 1
 478 557 l 1
 436 595 395 613 341 613 c 0
 244 613 158 543 158 346 c 0
 158 153 214 77 323 77 c 0
 365 77 404 87 437 106 c 1
 437 296 l 1
 320 296 l 1
 308 385 l 1
 550 385 l 1
 550 50 l 1
 485 13 414 -13 318 -13 c 0
EndSplineSet
EndChar

StartChar: H
Encoding: 72 72 41
Width: 600
GlyphClass: 2
Flags: MW
HStem: 0 21G<71 187 71 71 413 529 413 413> 314 95<187 413 187 413> 670 20G<71 187 187 187 413 529 529 529>
VStem: 71 116<0 314 0 409 409 690> 413 116<0 314 314 314 409 690 0 690>
AnchorPoint: "Anchor-5" 300 690 basechar 0
AnchorPoint: "Anchor-4" 300 0 basechar 0
LayerCount: 2
Fore
SplineSet
413 0 m 1
 413 314 l 1
 187 314 l 1
 187 0 l 1
 71 0 l 1
 71 690 l 1
 187 690 l 1
 187 409 l 1
 413 409 l 1
 413 690 l 1
 529 690 l 1
 529 0 l 1
 413 0 l 1
EndSplineSet
EndChar

StartChar: Hbar
Encoding: 294 294 42
Width: 600
GlyphClass: 2
Flags: MW
HStem: 0 21G<73 189 73 73 411 527 411 411> 315 93<189 411 189 411> 506 75<2 73 2 73 189 411 527 598> 506 184<2 189 2 189 73 189 73 411>
VStem: 73 116<0 315 0 408 408 506 581 690> 411 116<0 315 315 315 408 506 0 506 581 690>
LayerCount: 2
Fore
SplineSet
598 581 m 1xec
 598 506 l 1
 527 506 l 1
 527 0 l 1
 411 0 l 1
 411 315 l 1
 189 315 l 1
 189 0 l 1
 73 0 l 1
 73 506 l 1
 2 506 l 1xdc
 2 581 l 1
 73 581 l 1xec
 73 690 l 1
 189 690 l 1xdc
 189 581 l 1
 411 581 l 1xec
 411 690 l 1
 527 690 l 1xdc
 527 581 l 1
 598 581 l 1xec
411 408 m 1
 411 506 l 1
 189 506 l 1
 189 408 l 1
 411 408 l 1
EndSplineSet
EndChar

StartChar: Hcircumflex
Encoding: 292 292 43
Width: 600
GlyphClass: 2
Flags: MW
HStem: 0 21G<71 187 71 71 413 529 413 413> 314 95<187 413 187 413> 670 20G<71 187 187 187 413 529 529 529>
VStem: 71 116<0 314 0 409 409 690> 413 116<0 314 314 314 409 690 0 690>
AnchorPoint: "Anchor-5" 300 690 basechar 0
AnchorPoint: "Anchor-4" 300 0 basechar 0
LayerCount: 2
Fore
SplineSet
336 923 m 1
 473 807 l 1
 429 756 l 1
 300 838 l 1
 172 756 l 1
 127 807 l 1
 264 923 l 1
 336 923 l 1
413 0 m 1
 413 314 l 1
 187 314 l 1
 187 0 l 1
 71 0 l 1
 71 690 l 1
 187 690 l 1
 187 409 l 1
 413 409 l 1
 413 690 l 1
 529 690 l 1
 529 0 l 1
 413 0 l 1
EndSplineSet
EndChar

StartChar: I
Encoding: 73 73 44
Width: 600
GlyphClass: 2
Flags: MW
HStem: 0 89<92 242 358 508 92 242> 602 88<92 242 92 508 358 508 358 358>
VStem: 242 116<89 602 89 602>
AnchorPoint: "Anchor-5" 300 690 basechar 0
AnchorPoint: "Anchor-4" 300 0 basechar 0
LayerCount: 2
Fore
SplineSet
508 690 m 1
 508 602 l 1
 358 602 l 1
 358 89 l 1
 508 89 l 1
 508 0 l 1
 92 0 l 1
 92 89 l 1
 242 89 l 1
 242 602 l 1
 92 602 l 1
 92 690 l 1
 508 690 l 1
EndSplineSet
EndChar

StartChar: IJ
Encoding: 306 306 45
Width: 600
GlyphClass: 2
Flags: MW
HStem: 0 83<10 100 213 282 10 100> 607 83<10 100 10 541 213 427 213 213>
VStem: 100 113<83 607 83 607> 427 114<182 607 607 607>
LayerCount: 2
Fore
SplineSet
189 -71 m 1
 385 -47 427 39 427 182 c 2
 427 607 l 1
 213 607 l 1
 213 83 l 1
 282 83 l 1
 282 0 l 1
 10 0 l 1
 10 83 l 1
 100 83 l 1
 100 607 l 1
 10 607 l 1
 10 690 l 1
 541 690 l 1
 541 181 l 2
 541 13 468 -123 203 -154 c 1
 189 -71 l 1
EndSplineSet
EndChar

StartChar: Iacute
Encoding: 205 205 46
Width: 600
GlyphClass: 2
Flags: MW
HStem: 0 89<92 242 358 508 92 242> 602 88<92 242 92 508 358 508 358 358>
VStem: 242 116<89 602 89 602>
AnchorPoint: "Anchor-5" 300 690 basechar 0
AnchorPoint: "Anchor-4" 300 0 basechar 0
LayerCount: 2
Fore
SplineSet
381 924 m 1
 427 834 l 1
 204 754 l 1
 176 812 l 1
 381 924 l 1
508 690 m 1
 508 602 l 1
 358 602 l 1
 358 89 l 1
 508 89 l 1
 508 0 l 1
 92 0 l 1
 92 89 l 1
 242 89 l 1
 242 602 l 1
 92 602 l 1
 92 690 l 1
 508 690 l 1
EndSplineSet
EndChar

StartChar: Ibreve
Encoding: 300 300 47
Width: 600
GlyphClass: 2
Flags: MW
HStem: 0 89<92 242 358 508 92 242> 602 88<92 242 92 508 358 508 358 358> 756 82<275 321.5 275 343>
VStem: 242 116<89 602 89 602>
AnchorPoint: "Anchor-5" 300 690 basechar 0
AnchorPoint: "Anchor-4" 300 0 basechar 0
LayerCount: 2
Fore
SplineSet
298 756 m 0
 209 756 150 811 142 888 c 1
 210 902 l 1
 224 862 252 838 298 838 c 0
 345 838 375 862 388 902 c 1
 457 888 l 1
 449 811 388 756 298 756 c 0
508 690 m 1
 508 602 l 1
 358 602 l 1
 358 89 l 1
 508 89 l 1
 508 0 l 1
 92 0 l 1
 92 89 l 1
 242 89 l 1
 242 602 l 1
 92 602 l 1
 92 690 l 1
 508 690 l 1
EndSplineSet
EndChar

StartChar: Icircumflex
Encoding: 206 206 48
Width: 600
GlyphClass: 2
Flags: MW
HStem: 0 89<92 242 358 508 92 242> 602 88<92 242 92 508 358 508 358 358>
VStem: 242 116<89 602 89 602>
AnchorPoint: "Anchor-5" 300 690 basechar 0
AnchorPoint: "Anchor-4" 300 0 basechar 0
LayerCount: 2
Fore
SplineSet
336 923 m 1
 473 807 l 1
 429 756 l 1
 300 838 l 1
 172 756 l 1
 127 807 l 1
 264 923 l 1
 336 923 l 1
508 690 m 1
 508 602 l 1
 358 602 l 1
 358 89 l 1
 508 89 l 1
 508 0 l 1
 92 0 l 1
 92 89 l 1
 242 89 l 1
 242 602 l 1
 92 602 l 1
 92 690 l 1
 508 690 l 1
EndSplineSet
EndChar

StartChar: Idieresis
Encoding: 207 207 49
Width: 600
GlyphClass: 2
Flags: MW
HStem: 0 89<92 242 358 508 92 242> 602 88<92 242 92 508 358 508 358 358> 765 127<173.5 210 390 426.5>
VStem: 126 130<810 846.5> 242 116<89 602 89 602> 343 130<810 846.5>
AnchorPoint: "Anchor-5" 300 828 basechar 0
AnchorPoint: "Anchor-4" 300 0 basechar 0
LayerCount: 2
Fore
SplineSet
192 765 m 0xf4
 155 765 126 792 126 828 c 0
 126 865 155 892 192 892 c 0
 228 892 256 865 256 828 c 0
 256 792 228 765 192 765 c 0xf4
408 765 m 0
 372 765 343 792 343 828 c 0
 343 865 372 892 408 892 c 0
 445 892 473 865 473 828 c 0
 473 792 445 765 408 765 c 0
508 690 m 1
 508 602 l 1
 358 602 l 1
 358 89 l 1
 508 89 l 1
 508 0 l 1
 92 0 l 1
 92 89 l 1
 242 89 l 1
 242 602 l 1xc8
 92 602 l 1
 92 690 l 1
 508 690 l 1
EndSplineSet
EndChar

StartChar: Idotaccent
Encoding: 304 304 50
Width: 600
GlyphClass: 2
Flags: MW
HStem: 0 89<92 242 358 508 92 242> 602 88<92 242 92 508 358 508 358 358> 767 141<277.5 321>
VStem: 226 147<817 857> 242 116<89 602 89 602>
AnchorPoint: "Anchor-5" 300 690 basechar 0
AnchorPoint: "Anchor-4" 300 0 basechar 0
LayerCount: 2
Fore
SplineSet
299 908 m 0xf0
 343 908 373 877 373 837 c 0
 373 797 343 767 299 767 c 0
 256 767 226 797 226 837 c 0
 226 877 256 908 299 908 c 0xf0
508 690 m 1
 508 602 l 1
 358 602 l 1
 358 89 l 1
 508 89 l 1
 508 0 l 1
 92 0 l 1
 92 89 l 1
 242 89 l 1
 242 602 l 1xc8
 92 602 l 1
 92 690 l 1
 508 690 l 1
EndSplineSet
EndChar

StartChar: Igrave
Encoding: 204 204 51
Width: 600
GlyphClass: 2
Flags: MW
HStem: 0 89<92 242 358 508 92 242> 602 88<92 242 92 508 358 508 358 358>
VStem: 242 116<89 602 89 602>
AnchorPoint: "Anchor-5" 300 690 basechar 0
AnchorPoint: "Anchor-4" 300 0 basechar 0
LayerCount: 2
Fore
SplineSet
228 926 m 1
 424 812 l 1
 394 754 l 1
 177 836 l 1
 228 926 l 1
508 690 m 1
 508 602 l 1
 358 602 l 1
 358 89 l 1
 508 89 l 1
 508 0 l 1
 92 0 l 1
 92 89 l 1
 242 89 l 1
 242 602 l 1
 92 602 l 1
 92 690 l 1
 508 690 l 1
EndSplineSet
EndChar

StartChar: Imacron
Encoding: 298 298 52
Width: 600
GlyphClass: 2
Flags: MW
HStem: 0 89<92 242 358 508 92 242> 602 88<92 242 92 508 358 508 358 358> 790 81<158 441 158 441>
VStem: 158 283<790 871 790 871> 242 116<89 602 89 602>
AnchorPoint: "Anchor-5" 300 690 basechar 0
AnchorPoint: "Anchor-4" 300 0 basechar 0
LayerCount: 2
Fore
SplineSet
441 790 m 1xf0
 158 790 l 1
 158 871 l 1
 441 871 l 1
 441 790 l 1xf0
508 690 m 1
 508 602 l 1
 358 602 l 1
 358 89 l 1
 508 89 l 1
 508 0 l 1
 92 0 l 1
 92 89 l 1
 242 89 l 1
 242 602 l 1xe8
 92 602 l 1
 92 690 l 1
 508 690 l 1
EndSplineSet
EndChar

StartChar: Iogonek
Encoding: 302 302 53
Width: 600
GlyphClass: 2
Flags: MW
HStem: -238 77<274.5 294> 0 89<92 242 92 243 92 242 358 508> 602 88<92 242 92 508 358 508 358 358>
VStem: 148 90<-128.5 -102> 242 116<89 602>
AnchorPoint: "Anchor-5" 300 690 basechar 0
AnchorPoint: "Anchor-4" 300 0 basechar 0
LayerCount: 2
Fore
SplineSet
508 602 m 1
 358 602 l 1
 358 89 l 1x68
 508 89 l 1
 508 0 l 1
 358 0 l 1
 259 -40 238 -75 238 -113 c 0
 238 -144 255 -161 294 -161 c 0
 315 -161 331 -159 353 -154 c 1
 343 -231 l 1
 324 -235 307 -238 281 -238 c 0
 202 -238 148 -195 148 -131 c 0
 148 -73 181 -32 243 0 c 1
 92 0 l 1
 92 89 l 1xf0
 242 89 l 1
 242 602 l 1
 92 602 l 1
 92 690 l 1
 508 690 l 1
 508 602 l 1
EndSplineSet
EndChar

StartChar: Itilde
Encoding: 296 296 54
Width: 600
GlyphClass: 2
Flags: MW
HStem: 0 89<92 242 358 508 92 242> 602 88<92 242 92 508 358 508 358 358> 771 82<339 367.5 339 382> 818 83<230 259.5>
VStem: 242 116<89 602 89 602>
AnchorPoint: "Anchor-5" 300 690 basechar 0
AnchorPoint: "Anchor-4" 300 0 basechar 0
LayerCount: 2
Fore
SplineSet
357 771 m 0xe8
 303 771 277 818 242 818 c 0
 218 818 205 802 189 772 c 1
 126 803 l 1
 150 857 188 901 241 901 c 0xd8
 299 901 321 853 357 853 c 0
 378 853 392 867 410 897 c 1
 473 866 l 1
 447 806 407 771 357 771 c 0xe8
508 690 m 1
 508 602 l 1
 358 602 l 1
 358 89 l 1
 508 89 l 1
 508 0 l 1
 92 0 l 1
 92 89 l 1
 242 89 l 1
 242 602 l 1
 92 602 l 1
 92 690 l 1
 508 690 l 1
EndSplineSet
EndChar

StartChar: J
Encoding: 74 74 55
Width: 600
GlyphClass: 2
Flags: MW
HStem: -13 91<229.5 295 229.5 346> 601 89<185 392 185 508>
VStem: 392 116<239 601 601 601>
AnchorPoint: "Anchor-5" 351 690 basechar 0
AnchorPoint: "Anchor-4" 300 0 basechar 0
LayerCount: 2
Fore
SplineSet
508 690 m 1
 508 237 l 2
 508 104 436 -13 256 -13 c 0
 181 -13 116 10 60 51 c 1
 107 124 l 1
 162 89 207 78 252 78 c 0
 338 78 392 136 392 239 c 2
 392 601 l 1
 185 601 l 1
 185 690 l 1
 508 690 l 1
EndSplineSet
EndChar

StartChar: Jcircumflex
Encoding: 308 308 56
Width: 600
GlyphClass: 2
Flags: MW
HStem: -13 91<229.5 295 229.5 346> 601 89<185 392 185 508>
VStem: 392 116<239 601 601 601>
AnchorPoint: "Anchor-5" 351 690 basechar 0
AnchorPoint: "Anchor-4" 300 0 basechar 0
LayerCount: 2
Fore
SplineSet
387 923 m 1
 524 807 l 1
 480 756 l 1
 351 838 l 1
 223 756 l 1
 178 807 l 1
 315 923 l 1
 387 923 l 1
508 690 m 1
 508 237 l 2
 508 104 436 -13 256 -13 c 0
 181 -13 116 10 60 51 c 1
 107 124 l 1
 162 89 207 78 252 78 c 0
 338 78 392 136 392 239 c 2
 392 601 l 1
 185 601 l 1
 185 690 l 1
 508 690 l 1
EndSplineSet
EndChar

StartChar: K
Encoding: 75 75 57
Width: 600
GlyphClass: 2
Flags: MW
HStem: 0 21G<88 204 88 88 456 456 456 595> 670 20G<88 204 204 204 448 576 576 576>
VStem: 88 116<0 690>
AnchorPoint: "Anchor-5" 317 690 basechar 0
AnchorPoint: "Anchor-4" 314 0 basechar 0
LayerCount: 2
Fore
SplineSet
204 0 m 1
 88 0 l 1
 88 690 l 1
 204 690 l 1
 204 0 l 1
209 369 m 1
 448 690 l 1
 576 690 l 1
 335 376 l 1
 595 0 l 1
 456 0 l 1
 209 369 l 1
EndSplineSet
EndChar

StartChar: Kcommaaccent
Encoding: 310 310 58
Width: 600
GlyphClass: 2
Flags: MW
HStem: 0 21G<88 204 88 88 456 456 456 595> 670 20G<88 204 204 204 448 576 576 576>
VStem: 88 116<0 690> 253 127<-141 -113.5>
AnchorPoint: "Anchor-5" 317 690 basechar 0
AnchorPoint: "Anchor-4" 314 0 basechar 0
LayerCount: 2
Fore
SplineSet
204 0 m 1
 88 0 l 1
 88 690 l 1
 204 690 l 1
 204 0 l 1
209 369 m 1
 448 690 l 1
 576 690 l 1
 335 376 l 1
 595 0 l 1
 456 0 l 1
 209 369 l 1
316 -69 m 0
 352 -69 380 -95 380 -131 c 0
 380 -151 374 -171 362 -196 c 2
 312 -300 l 1
 250 -300 l 1
 279 -183 l 1
 263 -171 253 -153 253 -131 c 0
 253 -96 280 -69 316 -69 c 0
EndSplineSet
EndChar

StartChar: L
Encoding: 76 76 59
Width: 600
GlyphClass: 2
Flags: MW
HStem: 0 97<235 532> 670 20G<120 235 235 235>
VStem: 120 115<97 690 97 690 97 690>
AnchorPoint: "Anchor-5" 178 690 basechar 0
AnchorPoint: "Anchor-4" 326 0 basechar 0
LayerCount: 2
Fore
SplineSet
120 0 m 1
 120 690 l 1
 235 690 l 1
 235 97 l 1
 545 97 l 1
 532 0 l 1
 120 0 l 1
EndSplineSet
EndChar

StartChar: Lacute
Encoding: 313 313 60
Width: 600
GlyphClass: 2
Flags: MW
HStem: 0 97<235 532> 670 20G<120 235 235 235>
VStem: 120 115<97 690 97 690 97 690>
AnchorPoint: "Anchor-5" 178 690 basechar 0
AnchorPoint: "Anchor-4" 326 0 basechar 0
LayerCount: 2
Fore
SplineSet
259 924 m 1
 305 834 l 1
 82 754 l 1
 54 812 l 1
 259 924 l 1
120 0 m 1
 120 690 l 1
 235 690 l 1
 235 97 l 1
 545 97 l 1
 532 0 l 1
 120 0 l 1
EndSplineSet
EndChar

StartChar: Lcaron
Encoding: 317 317 61
Width: 600
GlyphClass: 2
Flags: MW
HStem: 0 97<235 532> 670 20G<120 235 235 235> 671 20G<424 424> 684 20G<324 324>
VStem: 120 115<97 690 97 690 97 690>
AnchorPoint: "Anchor-5" 178 690 basechar 0
AnchorPoint: "Anchor-4" 326 0 basechar 0
LayerCount: 2
Fore
SplineSet
324 704 m 1x98
 424 691 l 1xa8
 361 493 l 1
 294 503 l 1
 324 704 l 1x98
120 0 m 1
 120 690 l 1
 235 690 l 1xc8
 235 97 l 1
 545 97 l 1
 532 0 l 1
 120 0 l 1
EndSplineSet
EndChar

StartChar: Lcommaaccent
Encoding: 315 315 62
Width: 600
GlyphClass: 2
Flags: MW
HStem: 0 97<235 532> 670 20G<120 235 235 235>
VStem: 120 115<97 690 97 690 97 690> 265 127<-141 -113.5>
AnchorPoint: "Anchor-5" 178 690 basechar 0
AnchorPoint: "Anchor-4" 326 0 basechar 0
LayerCount: 2
Fore
SplineSet
120 0 m 1
 120 690 l 1
 235 690 l 1
 235 97 l 1
 545 97 l 1
 532 0 l 1
 120 0 l 1
328 -69 m 0xf0
 364 -69 392 -95 392 -131 c 0
 392 -151 386 -171 374 -196 c 2
 324 -300 l 1
 262 -300 l 1
 291 -183 l 1
 275 -171 265 -153 265 -131 c 0
 265 -96 292 -69 328 -69 c 0xf0
EndSplineSet
EndChar

StartChar: Ldot
Encoding: 319 319 63
Width: 600
GlyphClass: 2
Flags: MW
HStem: 0 97<235 532> 310 141<447.5 491> 670 20G<120 235 235 235>
VStem: 120 115<97 690 97 690 97 690> 396 147<360 400>
AnchorPoint: "Anchor-5" 178 690 basechar 0
AnchorPoint: "Anchor-4" 326 0 basechar 0
LayerCount: 2
Fore
SplineSet
120 0 m 1
 120 690 l 1
 235 690 l 1
 235 97 l 1
 545 97 l 1
 532 0 l 1
 120 0 l 1
469 451 m 0
 513 451 543 420 543 380 c 0
 543 340 513 310 469 310 c 0
 426 310 396 340 396 380 c 0
 396 420 426 451 469 451 c 0
EndSplineSet
Ligature2: "Ligature Substitution lookup 28 subtable" L periodcentered
EndChar

StartChar: Lslash
Encoding: 321 321 64
Width: 600
GlyphClass: 2
Flags: MW
HStem: 0 97<240 536> 670 20G<124 240 240 240>
VStem: 124 116<97 97 97 253 253 253 419 690>
AnchorPoint: "Anchor-5" 182 690 basechar 0
AnchorPoint: "Anchor-4" 331 0 basechar 0
LayerCount: 2
Fore
SplineSet
240 97 m 1
 549 97 l 1
 536 0 l 1
 124 0 l 1
 124 253 l 1
 71 220 l 1
 28 289 l 1
 124 347 l 1
 124 690 l 1
 240 690 l 1
 240 419 l 1
 389 512 l 1
 433 445 l 1
 240 325 l 1
 240 97 l 1
EndSplineSet
EndChar

StartChar: M
Encoding: 77 77 65
Width: 600
GlyphClass: 2
Flags: MW
HStem: 0 21G<25 129 25 25 468 575 468 468> 588 102<140 140 452 452>
VStem: 25 550<0 0>
AnchorPoint: "Anchor-5" 300 690 basechar 0
AnchorPoint: "Anchor-4" 300 0 basechar 0
LayerCount: 2
Fore
SplineSet
536 690 m 1
 575 0 l 1
 468 0 l 1
 452 336 l 2
 447 437 449 532 452 588 c 1
 350 122 l 1
 249 122 l 1
 140 588 l 1
 144 531 146 431 143 335 c 2
 129 0 l 1
 25 0 l 1
 64 690 l 1
 203 690 l 1
 302 228 l 1
 396 690 l 1
 536 690 l 1
EndSplineSet
EndChar

StartChar: N
Encoding: 78 78 66
Width: 600
GlyphClass: 2
Flags: MW
HStem: 0 21G<71 174 71 71 378 529 378 378> 0 103<442 442 442 529 378 442> 587 103<158 158> 670 20G<71 222 222 222 426 529 529 529>
VStem: 71 103<0 313 0 690> 426 103<376 690 0 690>
AnchorPoint: "Anchor-5" 303 690 basechar 0
AnchorPoint: "Anchor-4" 300 0 basechar 0
LayerCount: 2
Fore
SplineSet
378 0 m 1x9c
 158 587 l 1xac
 162 546 174 425 174 313 c 2
 174 0 l 1
 71 0 l 1
 71 690 l 1
 222 690 l 1
 442 103 l 1x5c
 438 144 426 251 426 376 c 2
 426 690 l 1
 529 690 l 1
 529 0 l 1
 378 0 l 1x9c
EndSplineSet
EndChar

StartChar: Nacute
Encoding: 323 323 67
Width: 600
GlyphClass: 2
Flags: MW
HStem: 0 21G<71 174 71 71 378 529 378 378> 0 103<442 442 442 529 378 442> 587 103<158 158> 670 20G<71 222 222 222 426 529 529 529>
VStem: 71 103<0 313 0 690> 426 103<376 690 0 690>
AnchorPoint: "Anchor-5" 303 690 basechar 0
AnchorPoint: "Anchor-4" 300 0 basechar 0
LayerCount: 2
Fore
SplineSet
384 924 m 1x9c
 430 834 l 1
 207 754 l 1
 179 812 l 1
 384 924 l 1x9c
378 0 m 1
 158 587 l 1xac
 162 546 174 425 174 313 c 2
 174 0 l 1
 71 0 l 1
 71 690 l 1
 222 690 l 1
 442 103 l 1x5c
 438 144 426 251 426 376 c 2
 426 690 l 1
 529 690 l 1
 529 0 l 1
 378 0 l 1
EndSplineSet
Substitution2: "'locl' Localized Forms in Latin lookup 7 subtable" Nacute.loclPLK
Substitution2: "'aalt' Access All Alternates in Latin lookup 0 subtable" Nacute.loclPLK
EndChar

StartChar: Ncaron
Encoding: 327 327 68
Width: 600
GlyphClass: 2
Flags: MW
HStem: 0 21G<71 174 71 71 378 529 378 378> 0 103<442 442 442 529 378 442> 587 103<158 158> 670 20G<71 222 222 222 426 529 529 529>
VStem: 71 103<0 313 0 690> 426 103<376 690 0 690>
AnchorPoint: "Anchor-5" 303 690 basechar 0
AnchorPoint: "Anchor-4" 300 0 basechar 0
LayerCount: 2
Fore
SplineSet
432 920 m 1x9c
 476 869 l 1
 339 753 l 1
 267 753 l 1
 130 869 l 1
 175 920 l 1
 303 838 l 1
 432 920 l 1x9c
378 0 m 1
 158 587 l 1xac
 162 546 174 425 174 313 c 2
 174 0 l 1
 71 0 l 1
 71 690 l 1
 222 690 l 1
 442 103 l 1x5c
 438 144 426 251 426 376 c 2
 426 690 l 1
 529 690 l 1
 529 0 l 1
 378 0 l 1
EndSplineSet
EndChar

StartChar: Ncommaaccent
Encoding: 325 325 69
Width: 600
GlyphClass: 2
Flags: MW
HStem: 0 21G<71 174 71 71 378 529 378 378> 0 103<442 442 442 529 378 442> 587 103<158 158> 670 20G<71 222 222 222 426 529 529 529>
VStem: 71 103<0 313 0 690> 239 127<-141 -113.5> 426 103<376 690 0 690>
AnchorPoint: "Anchor-5" 303 690 basechar 0
AnchorPoint: "Anchor-4" 300 0 basechar 0
LayerCount: 2
Fore
SplineSet
378 0 m 1x9a
 158 587 l 1xae
 162 546 174 425 174 313 c 2
 174 0 l 1
 71 0 l 1
 71 690 l 1
 222 690 l 1
 442 103 l 1x5a
 438 144 426 251 426 376 c 2
 426 690 l 1
 529 690 l 1
 529 0 l 1
 378 0 l 1x9a
302 -69 m 0
 338 -69 366 -95 366 -131 c 0
 366 -151 360 -171 348 -196 c 2
 298 -300 l 1
 236 -300 l 1
 265 -183 l 1
 249 -171 239 -153 239 -131 c 0
 239 -96 266 -69 302 -69 c 0
EndSplineSet
EndChar

StartChar: Eng
Encoding: 330 330 70
Width: 600
GlyphClass: 2
Flags: MW
HStem: -218 89<339.5 373.5 339.5 414.5> 0 21G<71 174 71 71 378 413 378 378> 587 103<158 158> 670 20G<71 222 222 222 426 529 529 529>
VStem: 71 103<0 313 0 690> 426 103<376 690>
AnchorPoint: "Anchor-5" 303 690 basechar 0
AnchorPoint: "Anchor-4" 300 0 basechar 0
LayerCount: 2
Fore
SplineSet
529 -49 m 2xdc
 529 -161 466 -218 363 -218 c 0
 307 -218 270 -199 242 -178 c 1
 285 -108 l 1
 307 -120 324 -129 355 -129 c 0
 392 -129 413 -107 413 -57 c 2
 413 0 l 1
 378 0 l 1
 158 587 l 1xec
 162 546 174 425 174 313 c 2
 174 0 l 1
 71 0 l 1
 71 690 l 1
 222 690 l 1
 442 103 l 1
 438 144 426 251 426 376 c 2
 426 690 l 1
 529 690 l 1
 529 -49 l 2xdc
EndSplineSet
EndChar

StartChar: Ntilde
Encoding: 209 209 71
Width: 600
GlyphClass: 2
Flags: MW
HStem: 0 21G<71 174 71 71 378 529 378 378> 0 103<442 442 442 529 378 442> 587 103<158 158> 670 20G<71 222 222 222 426 529 529 529> 771 82<341 369.5 341 384> 818 83<232 261.5>
VStem: 71 103<0 313 0 690> 426 103<376 690 0 690>
AnchorPoint: "Anchor-5" 303 690 basechar 0
AnchorPoint: "Anchor-4" 300 0 basechar 0
LayerCount: 2
Fore
SplineSet
359 771 m 0x9b
 305 771 279 818 244 818 c 0
 220 818 207 802 191 772 c 1
 128 803 l 1
 152 857 190 901 243 901 c 0x97
 301 901 323 853 359 853 c 0
 380 853 394 867 412 897 c 1
 475 866 l 1
 449 806 409 771 359 771 c 0x9b
378 0 m 1x97
 158 587 l 1xa7
 162 546 174 425 174 313 c 2
 174 0 l 1
 71 0 l 1
 71 690 l 1
 222 690 l 1
 442 103 l 1x57
 438 144 426 251 426 376 c 2
 426 690 l 1
 529 690 l 1
 529 0 l 1
 378 0 l 1x97
EndSplineSet
EndChar

StartChar: O
Encoding: 79 79 72
Width: 600
GlyphClass: 2
Flags: MW
HStem: -13 90<250.5 351 250.5 386.5> 613 91<249 351>
VStem: 38 119<255 433.5 255 450.5> 443 119<256 434>
AnchorPoint: "Anchor-5" 300 690 basechar 0
AnchorPoint: "Anchor-4" 300 0 basechar 0
LayerCount: 2
Fore
SplineSet
562 345 m 0
 562 132 473 -13 300 -13 c 0
 127 -13 38 127 38 344 c 0
 38 557 127 704 300 704 c 0
 473 704 562 562 562 345 c 0
443 345 m 0
 443 523 402 613 300 613 c 0
 198 613 157 523 157 344 c 0
 157 166 201 77 300 77 c 0
 402 77 443 167 443 345 c 0
EndSplineSet
Substitution2: "Single Substitution lookup 29 subtable" ordmasculine
Substitution2: "'aalt' Access All Alternates in Latin lookup 0 subtable" ordmasculine
EndChar

StartChar: Oacute
Encoding: 211 211 73
Width: 600
GlyphClass: 2
Flags: MW
HStem: -13 90<250.5 351 250.5 386.5> 613 91<249 351>
VStem: 38 119<255 433.5 255 450.5> 443 119<256 434>
AnchorPoint: "Anchor-5" 300 690 basechar 0
AnchorPoint: "Anchor-4" 300 0 basechar 0
LayerCount: 2
Fore
SplineSet
381 924 m 1
 427 834 l 1
 204 754 l 1
 176 812 l 1
 381 924 l 1
562 345 m 0
 562 132 473 -13 300 -13 c 0
 127 -13 38 127 38 344 c 0
 38 557 127 704 300 704 c 0
 473 704 562 562 562 345 c 0
443 345 m 0
 443 523 402 613 300 613 c 0
 198 613 157 523 157 344 c 0
 157 166 201 77 300 77 c 0
 402 77 443 167 443 345 c 0
EndSplineSet
Substitution2: "'locl' Localized Forms in Latin lookup 7 subtable" Oacute.loclPLK
Substitution2: "'aalt' Access All Alternates in Latin lookup 0 subtable" Oacute.loclPLK
EndChar

StartChar: Obreve
Encoding: 334 334 74
Width: 600
GlyphClass: 2
Flags: MW
HStem: -13 90<250.5 351 250.5 386.5> 613 91<249 351> 756 82<275 321.5 275 343>
VStem: 38 119<255 433.5 255 450.5> 443 119<256 434>
AnchorPoint: "Anchor-5" 300 690 basechar 0
AnchorPoint: "Anchor-4" 300 0 basechar 0
LayerCount: 2
Fore
SplineSet
298 756 m 0
 209 756 150 811 142 888 c 1
 210 902 l 1
 224 862 252 838 298 838 c 0
 345 838 375 862 388 902 c 1
 457 888 l 1
 449 811 388 756 298 756 c 0
562 345 m 0
 562 132 473 -13 300 -13 c 0
 127 -13 38 127 38 344 c 0
 38 557 127 704 300 704 c 0
 473 704 562 562 562 345 c 0
443 345 m 0
 443 523 402 613 300 613 c 0
 198 613 157 523 157 344 c 0
 157 166 201 77 300 77 c 0
 402 77 443 167 443 345 c 0
EndSplineSet
EndChar

StartChar: Ocircumflex
Encoding: 212 212 75
Width: 600
GlyphClass: 2
Flags: MW
HStem: -13 90<250.5 351 250.5 386.5> 613 91<249 351>
VStem: 38 119<255 433.5 255 450.5> 443 119<256 434>
AnchorPoint: "Anchor-5" 300 690 basechar 0
AnchorPoint: "Anchor-4" 300 0 basechar 0
LayerCount: 2
Fore
SplineSet
336 923 m 1
 473 807 l 1
 429 756 l 1
 300 838 l 1
 172 756 l 1
 127 807 l 1
 264 923 l 1
 336 923 l 1
562 345 m 0
 562 132 473 -13 300 -13 c 0
 127 -13 38 127 38 344 c 0
 38 557 127 704 300 704 c 0
 473 704 562 562 562 345 c 0
443 345 m 0
 443 523 402 613 300 613 c 0
 198 613 157 523 157 344 c 0
 157 166 201 77 300 77 c 0
 402 77 443 167 443 345 c 0
EndSplineSet
EndChar

StartChar: Odieresis
Encoding: 214 214 76
Width: 600
GlyphClass: 2
Flags: MW
HStem: -13 90<250.5 351 250.5 386.5> 613 91<249 351> 765 127<173.5 210 390 426.5>
VStem: 38 119<255 433.5 255 450.5> 126 130<810 846.5> 343 130<810 846.5> 443 119<256 434>
AnchorPoint: "Anchor-5" 300 828 basechar 0
AnchorPoint: "Anchor-4" 300 0 basechar 0
LayerCount: 2
Fore
SplineSet
192 765 m 0xec
 155 765 126 792 126 828 c 0
 126 865 155 892 192 892 c 0
 228 892 256 865 256 828 c 0
 256 792 228 765 192 765 c 0xec
408 765 m 0
 372 765 343 792 343 828 c 0
 343 865 372 892 408 892 c 0
 445 892 473 865 473 828 c 0
 473 792 445 765 408 765 c 0
562 345 m 0xd2
 562 132 473 -13 300 -13 c 0
 127 -13 38 127 38 344 c 0
 38 557 127 704 300 704 c 0
 473 704 562 562 562 345 c 0xd2
443 345 m 0
 443 523 402 613 300 613 c 0
 198 613 157 523 157 344 c 0
 157 166 201 77 300 77 c 0
 402 77 443 167 443 345 c 0
EndSplineSet
EndChar

StartChar: Ograve
Encoding: 210 210 77
Width: 600
GlyphClass: 2
Flags: MW
HStem: -13 90<250.5 351 250.5 386.5> 613 91<249 351>
VStem: 38 119<255 433.5 255 450.5> 443 119<256 434>
AnchorPoint: "Anchor-5" 300 690 basechar 0
AnchorPoint: "Anchor-4" 300 0 basechar 0
LayerCount: 2
Fore
SplineSet
228 926 m 1
 424 812 l 1
 394 754 l 1
 177 836 l 1
 228 926 l 1
562 345 m 0
 562 132 473 -13 300 -13 c 0
 127 -13 38 127 38 344 c 0
 38 557 127 704 300 704 c 0
 473 704 562 562 562 345 c 0
443 345 m 0
 443 523 402 613 300 613 c 0
 198 613 157 523 157 344 c 0
 157 166 201 77 300 77 c 0
 402 77 443 167 443 345 c 0
EndSplineSet
EndChar

StartChar: Ohungarumlaut
Encoding: 336 336 78
Width: 600
GlyphClass: 2
Flags: MW
HStem: -13 90<250.5 351 250.5 386.5> 613 91<249 351>
VStem: 38 119<255 433.5 255 450.5> 443 119<256 434>
AnchorPoint: "Anchor-5" 300 690 basechar 0
AnchorPoint: "Anchor-4" 300 0 basechar 0
LayerCount: 2
Fore
SplineSet
173 783 m 1
 259 965 l 1
 346 924 l 1
 238 753 l 1
 173 783 l 1
337 783 m 1
 429 965 l 1
 515 921 l 1
 400 751 l 1
 337 783 l 1
562 345 m 0
 562 132 473 -13 300 -13 c 0
 127 -13 38 127 38 344 c 0
 38 557 127 704 300 704 c 0
 473 704 562 562 562 345 c 0
443 345 m 0
 443 523 402 613 300 613 c 0
 198 613 157 523 157 344 c 0
 157 166 201 77 300 77 c 0
 402 77 443 167 443 345 c 0
EndSplineSet
EndChar

StartChar: Omacron
Encoding: 332 332 79
Width: 600
GlyphClass: 2
Flags: MW
HStem: -13 90<250.5 351 250.5 386.5> 613 91<249 351> 790 81<158 441 158 441>
VStem: 38 119<255 433.5 255 450.5> 158 283<790 871 790 871> 443 119<256 434>
AnchorPoint: "Anchor-5" 300 690 basechar 0
AnchorPoint: "Anchor-4" 300 0 basechar 0
LayerCount: 2
Fore
SplineSet
441 790 m 1
 158 790 l 1
 158 871 l 1
 441 871 l 1
 441 790 l 1
562 345 m 0xf4
 562 132 473 -13 300 -13 c 0
 127 -13 38 127 38 344 c 0
 38 557 127 704 300 704 c 0
 473 704 562 562 562 345 c 0xf4
443 345 m 0
 443 523 402 613 300 613 c 0
 198 613 157 523 157 344 c 0
 157 166 201 77 300 77 c 0
 402 77 443 167 443 345 c 0
EndSplineSet
EndChar

StartChar: Oslash
Encoding: 216 216 80
Width: 600
GlyphClass: 2
Flags: MW
HStem: -13 89<292.5 351.5 292.5 386.5> -7 21G<241 241> 614 90<248.5 307.5> 677 20G<360 360>
VStem: 38 118<289 434 289 450.5> 444 118<255.5 400.5>
AnchorPoint: "Anchor-5" 300 690 basechar 0
AnchorPoint: "Anchor-4" 300 0 basechar 0
LayerCount: 2
Fore
SplineSet
442 660 m 1xac
 520 602 562 490 562 345 c 0
 562 132 473 -13 300 -13 c 0xac
 279 -13 259 -11 241 -7 c 1
 210 -110 l 1
 121 -85 l 1
 158 31 l 1
 80 88 38 199 38 344 c 0
 38 557 127 704 300 704 c 0x6c
 321 704 341 702 360 697 c 1x9c
 391 803 l 1
 479 778 l 1
 442 660 l 1xac
300 614 m 0
 197 614 156 524 156 344 c 0
 156 234 170 162 201 121 c 1
 342 609 l 1
 330 612 315 614 300 614 c 0
300 76 m 0
 403 76 444 166 444 345 c 0
 444 456 431 528 400 570 c 1
 258 81 l 1
 271 78 285 76 300 76 c 0
EndSplineSet
EndChar

StartChar: Oslashacute
Encoding: 510 510 81
Width: 600
GlyphClass: 2
Flags: MW
HStem: -13 89<292.5 351.5 292.5 386.5> -7 21G<241 241> 614 90<248.5 307.5> 677 20G<360 360>
VStem: 38 118<289 434 289 450.5> 444 118<255.5 400.5>
AnchorPoint: "Anchor-5" 300 690 basechar 0
AnchorPoint: "Anchor-4" 300 0 basechar 0
LayerCount: 2
Fore
SplineSet
427 834 m 1xac
 204 754 l 1
 176 812 l 1
 381 924 l 1
 427 834 l 1xac
442 660 m 1
 520 602 562 490 562 345 c 0
 562 132 473 -13 300 -13 c 0xac
 279 -13 259 -11 241 -7 c 1
 210 -110 l 1
 121 -85 l 1
 158 31 l 1
 80 88 38 199 38 344 c 0
 38 557 127 704 300 704 c 0x6c
 321 704 341 702 360 697 c 1x9c
 391 803 l 1
 479 778 l 1
 442 660 l 1
300 614 m 0
 197 614 156 524 156 344 c 0
 156 234 170 162 201 121 c 1
 342 609 l 1
 330 612 315 614 300 614 c 0
300 76 m 0
 403 76 444 166 444 345 c 0
 444 456 431 528 400 570 c 1
 258 81 l 1
 271 78 285 76 300 76 c 0
EndSplineSet
EndChar

StartChar: Otilde
Encoding: 213 213 82
Width: 600
GlyphClass: 2
Flags: MW
HStem: -13 90<250.5 351 250.5 386.5> 613 91<249 351> 771 82<339 367.5 339 382> 818 83<230 259.5>
VStem: 38 119<255 433.5 255 450.5> 443 119<256 434>
AnchorPoint: "Anchor-5" 300 690 basechar 0
AnchorPoint: "Anchor-4" 300 0 basechar 0
LayerCount: 2
Fore
SplineSet
357 771 m 0xec
 303 771 277 818 242 818 c 0
 218 818 205 802 189 772 c 1
 126 803 l 1
 150 857 188 901 241 901 c 0xdc
 299 901 321 853 357 853 c 0
 378 853 392 867 410 897 c 1
 473 866 l 1
 447 806 407 771 357 771 c 0xec
562 345 m 0xdc
 562 132 473 -13 300 -13 c 0
 127 -13 38 127 38 344 c 0
 38 557 127 704 300 704 c 0
 473 704 562 562 562 345 c 0xdc
443 345 m 0
 443 523 402 613 300 613 c 0
 198 613 157 523 157 344 c 0
 157 166 201 77 300 77 c 0
 402 77 443 167 443 345 c 0
EndSplineSet
EndChar

StartChar: OE
Encoding: 338 338 83
Width: 600
GlyphClass: 2
Flags: MW
HStem: -13 85<182 231.5> 0 72<182 609 182 294> 0 86<366 609 366 609 294 609> 307 86<426 567 426 567> 604 86<371 591 371 371> 617 73<180.5 604> 617 87<180.5 231.5 144 255>
VStem: 3 111<246 442 246 458.5> 322 104<307 307 307 393 307 443.5>
AnchorPoint: "Anchor-5" 300 690 basechar 0
AnchorPoint: "Anchor-4" 300 0 basechar 0
LayerCount: 2
Fore
SplineSet
217 704 m 0x9380
 246 704 270 699 297 690 c 1
 604 690 l 1
 591 604 l 1
 371 604 l 1
 402 561 421 492 426 393 c 1
 567 393 l 1
 567 307 l 1
 426 307 l 1
 423 204 401 132 366 86 c 1
 609 86 l 1
 609 0 l 1
 294 0 l 1x3980
 269 -8 246 -13 217 -13 c 0
 70 -13 3 111 3 344 c 0
 3 573 71 704 217 704 c 0x9380
217 617 m 0x5580
 144 617 114 540 114 344 c 0
 114 148 147 72 217 72 c 0
 291 72 322 149 322 345 c 0
 322 542 293 617 217 617 c 0x5580
EndSplineSet
EndChar

StartChar: P
Encoding: 80 80 84
Width: 600
GlyphClass: 2
Flags: MW
HStem: 0 21G<96 211 96 96> 246 88<211 295 211 296> 603 87<211 287 287 295 211 211>
VStem: 96 115<0 246 0 334 334 603> 443 121<420.5 520>
AnchorPoint: "Anchor-5" 300 690 basechar 0
AnchorPoint: "Anchor-4" 300 0 basechar 0
LayerCount: 2
Fore
SplineSet
564 473 m 0
 564 312 453 246 295 246 c 2
 211 246 l 1
 211 0 l 1
 96 0 l 1
 96 690 l 1
 287 690 l 2
 461 690 564 620 564 473 c 0
443 473 m 0
 443 567 384 603 295 603 c 2
 211 603 l 1
 211 334 l 1
 296 334 l 2
 383 334 443 368 443 473 c 0
EndSplineSet
EndChar

StartChar: Thorn
Encoding: 222 222 85
Width: 600
GlyphClass: 2
Flags: MW
HStem: 0 21G<89 205 89 89> 124 88<205 295 205 298> 488 87<205 287 287 296 205 287> 670 20G<89 205 205 205>
VStem: 89 116<0 124 0 212 212 488 575 690> 442 122<299 401>
AnchorPoint: "Anchor-5" 300 690 basechar 0
AnchorPoint: "Anchor-4" 300 0 basechar 0
LayerCount: 2
Fore
SplineSet
205 690 m 1
 205 575 l 1
 287 575 l 2
 461 575 564 505 564 355 c 0
 564 193 456 124 295 124 c 2
 205 124 l 1
 205 0 l 1
 89 0 l 1
 89 690 l 1
 205 690 l 1
296 488 m 2
 205 488 l 1
 205 212 l 1
 298 212 l 2
 384 212 442 245 442 353 c 0
 442 449 385 488 296 488 c 2
EndSplineSet
EndChar

StartChar: Q
Encoding: 81 81 86
Width: 600
GlyphClass: 2
Flags: MW
HStem: -11 88<251.5 350> 613 91<250 352>
VStem: 40 121<255 433 255 450.5> 441 121<274 434>
AnchorPoint: "Anchor-5" 300 690 basechar 0
AnchorPoint: "Anchor-4" 300 0 basechar 0
LayerCount: 2
Fore
SplineSet
562 345 m 0
 562 203 525 89 418 32 c 1
 519 13 573 -28 608 -133 c 1
 501 -173 l 1
 458 -68 410 -11 290 -11 c 0
 126 -11 40 127 40 344 c 0
 40 557 128 704 301 704 c 0
 474 704 562 562 562 345 c 0
441 345 m 0
 441 523 403 613 301 613 c 0
 199 613 161 522 161 344 c 0
 161 166 202 77 301 77 c 0
 403 77 441 167 441 345 c 0
EndSplineSet
EndChar

StartChar: R
Encoding: 82 82 87
Width: 600
GlyphClass: 2
Flags: MW
HStem: 0 21G<85 201 85 85 450 585 450 450> 284 85<201 276 201 287> 604 86<201 277 277 284 201 201>
VStem: 85 116<0 284 0 369 369 604> 425 121<446.5 530.5>
AnchorPoint: "Anchor-5" 300 690 basechar 0
AnchorPoint: "Anchor-4" 303 0 basechar 0
LayerCount: 2
Fore
SplineSet
546 490 m 0
 546 389 478 327 389 300 c 1
 585 0 l 1
 450 0 l 1
 276 284 l 1
 201 284 l 1
 201 0 l 1
 85 0 l 1
 85 690 l 1
 277 690 l 2
 454 690 546 624 546 490 c 0
425 490 m 0
 425 571 379 604 284 604 c 2
 201 604 l 1
 201 369 l 1
 287 369 l 2
 375 369 425 403 425 490 c 0
EndSplineSet
EndChar

StartChar: Racute
Encoding: 340 340 88
Width: 600
GlyphClass: 2
Flags: MW
HStem: 0 21G<85 201 85 85 450 585 450 450> 284 85<201 276 201 287> 604 86<201 277 277 284 201 201>
VStem: 85 116<0 284 0 369 369 604> 425 121<446.5 530.5>
AnchorPoint: "Anchor-5" 300 690 basechar 0
AnchorPoint: "Anchor-4" 303 0 basechar 0
LayerCount: 2
Fore
SplineSet
381 924 m 1
 427 834 l 1
 204 754 l 1
 176 812 l 1
 381 924 l 1
546 490 m 0
 546 389 478 327 389 300 c 1
 585 0 l 1
 450 0 l 1
 276 284 l 1
 201 284 l 1
 201 0 l 1
 85 0 l 1
 85 690 l 1
 277 690 l 2
 454 690 546 624 546 490 c 0
425 490 m 0
 425 571 379 604 284 604 c 2
 201 604 l 1
 201 369 l 1
 287 369 l 2
 375 369 425 403 425 490 c 0
EndSplineSet
EndChar

StartChar: Rcaron
Encoding: 344 344 89
Width: 600
GlyphClass: 2
Flags: MW
HStem: 0 21G<85 201 85 85 450 585 450 450> 284 85<201 276 201 287> 604 86<201 277 277 284 201 201>
VStem: 85 116<0 284 0 369 369 604> 425 121<446.5 530.5>
AnchorPoint: "Anchor-5" 300 690 basechar 0
AnchorPoint: "Anchor-4" 303 0 basechar 0
LayerCount: 2
Fore
SplineSet
429 920 m 1
 473 869 l 1
 336 753 l 1
 264 753 l 1
 127 869 l 1
 172 920 l 1
 300 838 l 1
 429 920 l 1
546 490 m 0
 546 389 478 327 389 300 c 1
 585 0 l 1
 450 0 l 1
 276 284 l 1
 201 284 l 1
 201 0 l 1
 85 0 l 1
 85 690 l 1
 277 690 l 2
 454 690 546 624 546 490 c 0
425 490 m 0
 425 571 379 604 284 604 c 2
 201 604 l 1
 201 369 l 1
 287 369 l 2
 375 369 425 403 425 490 c 0
EndSplineSet
EndChar

StartChar: Rcommaaccent
Encoding: 342 342 90
Width: 600
GlyphClass: 2
Flags: MW
HStem: 0 21G<85 201 85 85 450 585 450 450> 284 85<201 276 201 287> 604 86<201 277 277 284 201 201>
VStem: 85 116<0 284 0 369 369 604> 242 127<-141 -113.5> 425 121<446.5 530.5>
AnchorPoint: "Anchor-5" 300 690 basechar 0
AnchorPoint: "Anchor-4" 303 0 basechar 0
LayerCount: 2
Fore
SplineSet
546 490 m 0
 546 389 478 327 389 300 c 1
 585 0 l 1
 450 0 l 1
 276 284 l 1
 201 284 l 1
 201 0 l 1
 85 0 l 1
 85 690 l 1
 277 690 l 2
 454 690 546 624 546 490 c 0
425 490 m 0
 425 571 379 604 284 604 c 2
 201 604 l 1
 201 369 l 1
 287 369 l 2
 375 369 425 403 425 490 c 0
305 -69 m 0
 341 -69 369 -95 369 -131 c 0
 369 -151 363 -171 351 -196 c 2
 301 -300 l 1
 239 -300 l 1
 268 -183 l 1
 252 -171 242 -153 242 -131 c 0
 242 -96 269 -69 305 -69 c 0
EndSplineSet
EndChar

StartChar: S
Encoding: 83 83 91
Width: 600
GlyphClass: 2
Flags: MW
HStem: -13 91<244.5 324 244.5 368.5> 613 91<272.5 336.5>
VStem: 64 119<497 554 497 573.5> 428 121<152 219.5>
AnchorPoint: "Anchor-5" 307 690 basechar 0
AnchorPoint: "Anchor-4" 298 0 basechar 0
LayerCount: 2
Fore
SplineSet
549 195 m 0
 549 72 452 -13 285 -13 c 0
 173 -13 89 22 31 79 c 1
 95 150 l 1
 144 105 204 78 285 78 c 0
 363 78 428 115 428 189 c 0
 428 250 397 279 287 312 c 0
 140 355 64 410 64 517 c 0
 64 630 165 704 301 704 c 0
 400 704 473 674 532 621 c 1
 471 552 l 1
 422 594 365 613 308 613 c 0
 237 613 183 584 183 524 c 0
 183 470 221 445 344 409 c 0
 461 374 549 325 549 195 c 0
EndSplineSet
EndChar

StartChar: Sacute
Encoding: 346 346 92
Width: 600
GlyphClass: 2
Flags: MW
HStem: -13 91<244.5 324 244.5 368.5> 613 91<272.5 336.5>
VStem: 64 119<497 554 497 573.5> 428 121<152 219.5>
AnchorPoint: "Anchor-5" 307 690 basechar 0
AnchorPoint: "Anchor-4" 298 0 basechar 0
LayerCount: 2
Fore
SplineSet
388 924 m 1
 434 834 l 1
 211 754 l 1
 183 812 l 1
 388 924 l 1
549 195 m 0
 549 72 452 -13 285 -13 c 0
 173 -13 89 22 31 79 c 1
 95 150 l 1
 144 105 204 78 285 78 c 0
 363 78 428 115 428 189 c 0
 428 250 397 279 287 312 c 0
 140 355 64 410 64 517 c 0
 64 630 165 704 301 704 c 0
 400 704 473 674 532 621 c 1
 471 552 l 1
 422 594 365 613 308 613 c 0
 237 613 183 584 183 524 c 0
 183 470 221 445 344 409 c 0
 461 374 549 325 549 195 c 0
EndSplineSet
Substitution2: "'locl' Localized Forms in Latin lookup 7 subtable" Sacute.loclPLK
Substitution2: "'aalt' Access All Alternates in Latin lookup 0 subtable" Sacute.loclPLK
EndChar

StartChar: Scaron
Encoding: 352 352 93
Width: 600
GlyphClass: 2
Flags: MW
HStem: -13 91<244.5 324 244.5 368.5> 613 91<272.5 336.5>
VStem: 64 119<497 554 497 573.5> 428 121<152 219.5>
AnchorPoint: "Anchor-5" 307 690 basechar 0
AnchorPoint: "Anchor-4" 298 0 basechar 0
LayerCount: 2
Fore
SplineSet
436 920 m 1
 480 869 l 1
 343 753 l 1
 271 753 l 1
 134 869 l 1
 179 920 l 1
 307 838 l 1
 436 920 l 1
549 195 m 0
 549 72 452 -13 285 -13 c 0
 173 -13 89 22 31 79 c 1
 95 150 l 1
 144 105 204 78 285 78 c 0
 363 78 428 115 428 189 c 0
 428 250 397 279 287 312 c 0
 140 355 64 410 64 517 c 0
 64 630 165 704 301 704 c 0
 400 704 473 674 532 621 c 1
 471 552 l 1
 422 594 365 613 308 613 c 0
 237 613 183 584 183 524 c 0
 183 470 221 445 344 409 c 0
 461 374 549 325 549 195 c 0
EndSplineSet
EndChar

StartChar: Scedilla
Encoding: 350 350 94
Width: 600
GlyphClass: 2
Flags: MW
HStem: -247 67<264.5 290.5 262 323> -221 21G<177 177> -103 49 -12 90<250 250 322 322> 613 91<272.5 336.5>
VStem: 64 119<497 554 497 573.5> 246 76 330 89<-155.5 -126> 428 121<152 219.5>
AnchorPoint: "Anchor-5" 307 690 basechar 0
AnchorPoint: "Anchor-4" 298 0 basechar 0
LayerCount: 2
Fore
SplineSet
549 195 m 0x7e80
 549 82 466 0 322 -12 c 1
 322 -54 l 1x7e80
 389 -60 419 -98 419 -143 c 0
 419 -209 360 -247 286 -247 c 0xbf80
 243 -247 203 -236 177 -221 c 1x7e80
 207 -163 l 1
 227 -173 251 -180 273 -180 c 0
 308 -180 330 -169 330 -142 c 0xbf80
 330 -110 298 -103 242 -103 c 1
 250 -12 l 1
 155 -5 83 29 31 79 c 1
 95 150 l 1
 144 105 204 78 285 78 c 0
 363 78 428 115 428 189 c 0
 428 250 397 279 287 312 c 0
 140 355 64 410 64 517 c 0
 64 630 165 704 301 704 c 0
 400 704 473 674 532 621 c 1
 471 552 l 1
 422 594 365 613 308 613 c 0
 237 613 183 584 183 524 c 0
 183 470 221 445 344 409 c 0
 461 374 549 325 549 195 c 0x7e80
EndSplineSet
Substitution2: "'locl' Localized Forms in Latin lookup 5 subtable" Scommaaccent
Substitution2: "'locl' Localized Forms in Latin lookup 4 subtable" Scommaaccent
Substitution2: "'aalt' Access All Alternates in Latin lookup 0 subtable" Scommaaccent
EndChar

StartChar: Scircumflex
Encoding: 348 348 95
Width: 600
GlyphClass: 2
Flags: MW
HStem: -13 91<244.5 324 244.5 368.5> 613 91<272.5 336.5>
VStem: 64 119<497 554 497 573.5> 428 121<152 219.5>
AnchorPoint: "Anchor-5" 307 690 basechar 0
AnchorPoint: "Anchor-4" 298 0 basechar 0
LayerCount: 2
Fore
SplineSet
343 923 m 1
 480 807 l 1
 436 756 l 1
 307 838 l 1
 179 756 l 1
 134 807 l 1
 271 923 l 1
 343 923 l 1
549 195 m 0
 549 72 452 -13 285 -13 c 0
 173 -13 89 22 31 79 c 1
 95 150 l 1
 144 105 204 78 285 78 c 0
 363 78 428 115 428 189 c 0
 428 250 397 279 287 312 c 0
 140 355 64 410 64 517 c 0
 64 630 165 704 301 704 c 0
 400 704 473 674 532 621 c 1
 471 552 l 1
 422 594 365 613 308 613 c 0
 237 613 183 584 183 524 c 0
 183 470 221 445 344 409 c 0
 461 374 549 325 549 195 c 0
EndSplineSet
EndChar

StartChar: Scommaaccent
Encoding: 536 536 96
Width: 600
GlyphClass: 2
Flags: MW
HStem: -13 91<244.5 324 244.5 368.5> 613 91<272.5 336.5>
VStem: 64 119<497 554 497 573.5> 237 127<-141 -113.5> 428 121<152 219.5>
AnchorPoint: "Anchor-5" 307 690 basechar 0
AnchorPoint: "Anchor-4" 298 0 basechar 0
LayerCount: 2
Fore
SplineSet
549 195 m 0
 549 72 452 -13 285 -13 c 0
 173 -13 89 22 31 79 c 1
 95 150 l 1
 144 105 204 78 285 78 c 0
 363 78 428 115 428 189 c 0
 428 250 397 279 287 312 c 0
 140 355 64 410 64 517 c 0
 64 630 165 704 301 704 c 0
 400 704 473 674 532 621 c 1
 471 552 l 1
 422 594 365 613 308 613 c 0
 237 613 183 584 183 524 c 0
 183 470 221 445 344 409 c 0
 461 374 549 325 549 195 c 0
300 -69 m 0
 336 -69 364 -95 364 -131 c 0
 364 -151 358 -171 346 -196 c 2
 296 -300 l 1
 234 -300 l 1
 263 -183 l 1
 247 -171 237 -153 237 -131 c 0
 237 -96 264 -69 300 -69 c 0
EndSplineSet
EndChar

StartChar: T
Encoding: 84 84 97
Width: 600
GlyphClass: 2
Flags: MW
HStem: 0 21G<241 357 241 241> 596 94<33 241 33 568 357 556 357 357>
VStem: 241 116<0 596 0 596>
AnchorPoint: "Anchor-5" 299 690 basechar 0
AnchorPoint: "Anchor-4" 299 0 basechar 0
LayerCount: 2
Fore
SplineSet
357 596 m 1
 357 0 l 1
 241 0 l 1
 241 596 l 1
 33 596 l 1
 33 690 l 1
 568 690 l 1
 556 596 l 1
 357 596 l 1
EndSplineSet
EndChar

StartChar: Tbar
Encoding: 358 358 98
Width: 600
GlyphClass: 2
Flags: MW
HStem: 0 21G<241 357 241 241> 336 77<116 241 116 241 357 483> 596 94<33 241 33 568 357 556 357 357>
VStem: 241 116<0 336 0 336 413 596>
AnchorPoint: "Anchor-5" 299 690 basechar 0
AnchorPoint: "Anchor-4" 299 0 basechar 0
LayerCount: 2
Fore
SplineSet
556 596 m 1
 357 596 l 1
 357 413 l 1
 483 413 l 1
 483 336 l 1
 357 336 l 1
 357 0 l 1
 241 0 l 1
 241 336 l 1
 116 336 l 1
 116 413 l 1
 241 413 l 1
 241 596 l 1
 33 596 l 1
 33 690 l 1
 568 690 l 1
 556 596 l 1
EndSplineSet
EndChar

StartChar: Tcaron
Encoding: 356 356 99
Width: 600
GlyphClass: 2
Flags: MW
HStem: 0 21G<241 357 241 241> 596 94<33 241 33 568 357 556 357 357>
VStem: 241 116<0 596 0 596>
AnchorPoint: "Anchor-5" 299 690 basechar 0
AnchorPoint: "Anchor-4" 299 0 basechar 0
LayerCount: 2
Fore
SplineSet
428 920 m 1
 472 869 l 1
 335 753 l 1
 263 753 l 1
 126 869 l 1
 171 920 l 1
 299 838 l 1
 428 920 l 1
357 596 m 1
 357 0 l 1
 241 0 l 1
 241 596 l 1
 33 596 l 1
 33 690 l 1
 568 690 l 1
 556 596 l 1
 357 596 l 1
EndSplineSet
EndChar

StartChar: uni0162
Encoding: 354 354 100
Width: 600
GlyphClass: 2
Flags: MW
HStem: -247 67<277.5 303.5 275 336> -221 21G<190 190> -103 49 0 21G<241 264 241 241 335 357 335 335> 596 94<33 241 33 568 357 357 357 556>
VStem: 241 116<0 596> 343 89<-155.5 -126>
AnchorPoint: "Anchor-5" 299 690 basechar 0
AnchorPoint: "Anchor-4" 299 0 basechar 0
LayerCount: 2
Fore
SplineSet
357 0 m 1x7c
 335 0 l 1
 335 -54 l 1x7c
 402 -60 432 -98 432 -143 c 0
 432 -209 373 -247 299 -247 c 0xba
 256 -247 216 -236 190 -221 c 1x7c
 220 -163 l 1
 240 -173 264 -180 286 -180 c 0
 321 -180 343 -169 343 -142 c 0xba
 343 -110 311 -103 255 -103 c 1
 264 0 l 1
 241 0 l 1
 241 596 l 1
 33 596 l 1
 33 690 l 1
 568 690 l 1
 556 596 l 1
 357 596 l 1
 357 0 l 1x7c
EndSplineSet
Substitution2: "'locl' Localized Forms in Latin lookup 5 subtable" uni021A
Substitution2: "'locl' Localized Forms in Latin lookup 4 subtable" uni021A
Substitution2: "'aalt' Access All Alternates in Latin lookup 0 subtable" uni021A
EndChar

StartChar: uni021A
Encoding: 538 538 101
Width: 600
GlyphClass: 2
Flags: MW
HStem: 0 21G<241 357 241 241> 596 94<33 241 33 568 357 556 357 357>
VStem: 238 127<-141 -113.5> 241 116<0 596 0 596>
AnchorPoint: "Anchor-5" 299 690 basechar 0
AnchorPoint: "Anchor-4" 299 0 basechar 0
LayerCount: 2
Fore
SplineSet
357 596 m 1xd0
 357 0 l 1
 241 0 l 1
 241 596 l 1
 33 596 l 1
 33 690 l 1
 568 690 l 1
 556 596 l 1
 357 596 l 1xd0
301 -69 m 0xe0
 337 -69 365 -95 365 -131 c 0
 365 -151 359 -171 347 -196 c 2
 297 -300 l 1
 235 -300 l 1
 264 -183 l 1
 248 -171 238 -153 238 -131 c 0
 238 -96 265 -69 301 -69 c 0xe0
EndSplineSet
EndChar

StartChar: U
Encoding: 85 85 102
Width: 600
GlyphClass: 2
Flags: MW
HStem: -13 92<256.5 342 256.5 375> 670 20G<61 177 177 177 422 539 539 539>
VStem: 61 116<226 248 248 690> 422 117<248 690>
AnchorPoint: "Anchor-5" 300 690 basechar 0
AnchorPoint: "Anchor-4" 300 0 basechar 0
LayerCount: 2
Fore
SplineSet
539 690 m 1
 539 226 l 2
 539 86 451 -13 299 -13 c 0
 146 -13 61 84 61 226 c 2
 61 690 l 1
 177 690 l 1
 177 248 l 2
 177 135 214 79 299 79 c 0
 385 79 422 135 422 248 c 2
 422 690 l 1
 539 690 l 1
EndSplineSet
EndChar

StartChar: Uacute
Encoding: 218 218 103
Width: 600
GlyphClass: 2
Flags: MW
HStem: -13 92<256.5 342 256.5 375> 670 20G<61 177 177 177 422 539 539 539>
VStem: 61 116<226 248 248 690> 422 117<248 690>
AnchorPoint: "Anchor-5" 300 690 basechar 0
AnchorPoint: "Anchor-4" 300 0 basechar 0
LayerCount: 2
Fore
SplineSet
381 924 m 1
 427 834 l 1
 204 754 l 1
 176 812 l 1
 381 924 l 1
539 690 m 1
 539 226 l 2
 539 86 451 -13 299 -13 c 0
 146 -13 61 84 61 226 c 2
 61 690 l 1
 177 690 l 1
 177 248 l 2
 177 135 214 79 299 79 c 0
 385 79 422 135 422 248 c 2
 422 690 l 1
 539 690 l 1
EndSplineSet
EndChar

StartChar: Ubreve
Encoding: 364 364 104
Width: 600
GlyphClass: 2
Flags: MW
HStem: -13 92<256.5 342 256.5 375> 670 20G<61 177 177 177 422 539 539 539> 756 82<275 321.5 275 343>
VStem: 61 116<226 248 248 690> 422 117<248 690>
AnchorPoint: "Anchor-5" 300 690 basechar 0
AnchorPoint: "Anchor-4" 300 0 basechar 0
LayerCount: 2
Fore
SplineSet
298 756 m 0
 209 756 150 811 142 888 c 1
 210 902 l 1
 224 862 252 838 298 838 c 0
 345 838 375 862 388 902 c 1
 457 888 l 1
 449 811 388 756 298 756 c 0
539 690 m 1
 539 226 l 2
 539 86 451 -13 299 -13 c 0
 146 -13 61 84 61 226 c 2
 61 690 l 1
 177 690 l 1
 177 248 l 2
 177 135 214 79 299 79 c 0
 385 79 422 135 422 248 c 2
 422 690 l 1
 539 690 l 1
EndSplineSet
EndChar

StartChar: Ucircumflex
Encoding: 219 219 105
Width: 600
GlyphClass: 2
Flags: MW
HStem: -13 92<256.5 342 256.5 375> 670 20G<61 177 177 177 422 539 539 539>
VStem: 61 116<226 248 248 690> 422 117<248 690>
AnchorPoint: "Anchor-5" 300 690 basechar 0
AnchorPoint: "Anchor-4" 300 0 basechar 0
LayerCount: 2
Fore
SplineSet
336 923 m 1
 473 807 l 1
 429 756 l 1
 300 838 l 1
 172 756 l 1
 127 807 l 1
 264 923 l 1
 336 923 l 1
539 690 m 1
 539 226 l 2
 539 86 451 -13 299 -13 c 0
 146 -13 61 84 61 226 c 2
 61 690 l 1
 177 690 l 1
 177 248 l 2
 177 135 214 79 299 79 c 0
 385 79 422 135 422 248 c 2
 422 690 l 1
 539 690 l 1
EndSplineSet
EndChar

StartChar: Udieresis
Encoding: 220 220 106
Width: 600
GlyphClass: 2
Flags: MW
HStem: -13 92<256.5 342 256.5 375> 670 20G<61 177 177 177 422 539 539 539> 765 127<173.5 210 390 426.5>
VStem: 61 116<226 248 248 690> 126 130<810 846.5> 343 130<810 846.5> 422 117<248 690>
AnchorPoint: "Anchor-5" 300 828 basechar 0
AnchorPoint: "Anchor-4" 300 0 basechar 0
LayerCount: 2
Fore
SplineSet
192 765 m 0xec
 155 765 126 792 126 828 c 0
 126 865 155 892 192 892 c 0
 228 892 256 865 256 828 c 0
 256 792 228 765 192 765 c 0xec
408 765 m 0
 372 765 343 792 343 828 c 0
 343 865 372 892 408 892 c 0
 445 892 473 865 473 828 c 0
 473 792 445 765 408 765 c 0
539 690 m 1xf2
 539 226 l 2
 539 86 451 -13 299 -13 c 0
 146 -13 61 84 61 226 c 2
 61 690 l 1
 177 690 l 1
 177 248 l 2
 177 135 214 79 299 79 c 0
 385 79 422 135 422 248 c 2
 422 690 l 1
 539 690 l 1xf2
EndSplineSet
EndChar

StartChar: Ugrave
Encoding: 217 217 107
Width: 600
GlyphClass: 2
Flags: MW
HStem: -13 92<256.5 342 256.5 375> 670 20G<61 177 177 177 422 539 539 539>
VStem: 61 116<226 248 248 690> 422 117<248 690>
AnchorPoint: "Anchor-5" 300 690 basechar 0
AnchorPoint: "Anchor-4" 300 0 basechar 0
LayerCount: 2
Fore
SplineSet
228 926 m 1
 424 812 l 1
 394 754 l 1
 177 836 l 1
 228 926 l 1
539 690 m 1
 539 226 l 2
 539 86 451 -13 299 -13 c 0
 146 -13 61 84 61 226 c 2
 61 690 l 1
 177 690 l 1
 177 248 l 2
 177 135 214 79 299 79 c 0
 385 79 422 135 422 248 c 2
 422 690 l 1
 539 690 l 1
EndSplineSet
EndChar

StartChar: Uhungarumlaut
Encoding: 368 368 108
Width: 600
GlyphClass: 2
Flags: MW
HStem: -13 92<256.5 342 256.5 375> 670 20G<61 177 177 177 422 539 539 539>
VStem: 61 116<226 248 248 690> 422 117<248 690>
AnchorPoint: "Anchor-5" 300 690 basechar 0
AnchorPoint: "Anchor-4" 300 0 basechar 0
LayerCount: 2
Fore
SplineSet
173 783 m 1
 259 965 l 1
 346 924 l 1
 238 753 l 1
 173 783 l 1
337 783 m 1
 429 965 l 1
 515 921 l 1
 400 751 l 1
 337 783 l 1
539 690 m 1
 539 226 l 2
 539 86 451 -13 299 -13 c 0
 146 -13 61 84 61 226 c 2
 61 690 l 1
 177 690 l 1
 177 248 l 2
 177 135 214 79 299 79 c 0
 385 79 422 135 422 248 c 2
 422 690 l 1
 539 690 l 1
EndSplineSet
EndChar

StartChar: Umacron
Encoding: 362 362 109
Width: 600
GlyphClass: 2
Flags: MW
HStem: -13 92<256.5 342 256.5 375> 670 20G<61 177 177 177 422 539 539 539> 790 81<158 441 158 441>
VStem: 61 116<226 248 248 690> 158 283<790 871 790 871> 422 117<248 690>
AnchorPoint: "Anchor-5" 300 690 basechar 0
AnchorPoint: "Anchor-4" 300 0 basechar 0
LayerCount: 2
Fore
SplineSet
441 790 m 1xe8
 158 790 l 1
 158 871 l 1
 441 871 l 1
 441 790 l 1xe8
539 690 m 1xf4
 539 226 l 2
 539 86 451 -13 299 -13 c 0
 146 -13 61 84 61 226 c 2
 61 690 l 1
 177 690 l 1
 177 248 l 2
 177 135 214 79 299 79 c 0
 385 79 422 135 422 248 c 2
 422 690 l 1
 539 690 l 1xf4
EndSplineSet
EndChar

StartChar: Uogonek
Encoding: 370 370 110
Width: 600
GlyphClass: 2
Flags: MW
HStem: -238 77<303.5 323> -10 21G 670 20G<61 177 177 177 422 539 539 539>
VStem: 61 116<226 248 248 690> 177 90<-128.5 -105> 422 117<248 690>
AnchorPoint: "Anchor-5" 300 690 basechar 0
AnchorPoint: "Anchor-4" 300 0 basechar 0
LayerCount: 2
Fore
SplineSet
422 690 m 1xf4
 539 690 l 1
 539 226 l 2
 539 113 482 27 381 -3 c 1
 287 -41 267 -76 267 -113 c 0
 267 -144 284 -161 323 -161 c 0
 344 -161 360 -159 382 -154 c 1
 372 -231 l 1
 353 -235 336 -238 310 -238 c 0
 231 -238 177 -195 177 -131 c 0xec
 177 -79 204 -41 254 -10 c 1
 129 7 61 99 61 226 c 2
 61 690 l 1
 177 690 l 1
 177 248 l 2
 177 135 214 79 299 79 c 0
 385 79 422 135 422 248 c 2
 422 690 l 1xf4
EndSplineSet
EndChar

StartChar: Uring
Encoding: 366 366 111
Width: 600
GlyphClass: 2
Flags: MW
HStem: -13 92<256.5 342 256.5 375> 670 20G<61 177 177 177 422 539 539 539> 733 59<284.5 315.5 284.5 336.5> 900 60<284.5 315.5>
VStem: 61 116<226 248 248 690> 178 71<829.5 864 829.5 878> 350 71<829.5 864> 422 117<248 690>
AnchorPoint: "Anchor-5" 300 690 basechar 0
AnchorPoint: "Anchor-4" 300 0 basechar 0
LayerCount: 2
Fore
SplineSet
300 960 m 0
 373 960 421 909 421 847 c 0
 421 785 373 733 300 733 c 0
 227 733 178 785 178 847 c 0
 178 909 227 960 300 960 c 0
300 900 m 0
 269 900 249 881 249 847 c 0
 249 812 269 792 300 792 c 0
 331 792 350 812 350 847 c 0
 350 881 331 900 300 900 c 0
539 690 m 1xf9
 539 226 l 2
 539 86 451 -13 299 -13 c 0
 146 -13 61 84 61 226 c 2
 61 690 l 1
 177 690 l 1
 177 248 l 2
 177 135 214 79 299 79 c 0
 385 79 422 135 422 248 c 2
 422 690 l 1
 539 690 l 1xf9
EndSplineSet
EndChar

StartChar: Utilde
Encoding: 360 360 112
Width: 600
GlyphClass: 2
Flags: MW
HStem: -13 92<256.5 342 256.5 375> 670 20G<61 177 177 177 422 539 539 539> 771 82<339 367.5 339 382> 818 83<230 259.5>
VStem: 61 116<226 248 248 690> 422 117<248 690>
AnchorPoint: "Anchor-5" 300 690 basechar 0
AnchorPoint: "Anchor-4" 300 0 basechar 0
LayerCount: 2
Fore
SplineSet
357 771 m 0xec
 303 771 277 818 242 818 c 0
 218 818 205 802 189 772 c 1
 126 803 l 1
 150 857 188 901 241 901 c 0xdc
 299 901 321 853 357 853 c 0
 378 853 392 867 410 897 c 1
 473 866 l 1
 447 806 407 771 357 771 c 0xec
539 690 m 1xdc
 539 226 l 2
 539 86 451 -13 299 -13 c 0
 146 -13 61 84 61 226 c 2
 61 690 l 1
 177 690 l 1
 177 248 l 2
 177 135 214 79 299 79 c 0
 385 79 422 135 422 248 c 2
 422 690 l 1
 539 690 l 1xdc
EndSplineSet
EndChar

StartChar: V
Encoding: 86 86 113
Width: 600
GlyphClass: 2
Flags: MW
HStem: 0 110<302 302 302 366 234 302> 670 20G<15 139 139 139 467 585 585 585>
VStem: 15 570<690 690>
AnchorPoint: "Anchor-5" 300 690 basechar 0
AnchorPoint: "Anchor-4" 300 0 basechar 0
LayerCount: 2
Fore
SplineSet
302 110 m 1
 467 690 l 1
 585 690 l 1
 366 0 l 1
 234 0 l 1
 15 690 l 1
 139 690 l 1
 302 110 l 1
EndSplineSet
EndChar

StartChar: W
Encoding: 87 87 114
Width: 600
GlyphClass: 2
Flags: MW
HStem: 0 112<168 168 168 228 90 168> 670 20G<2 114 114 114 494 598 598 598>
VStem: 2 596<690 690>
AnchorPoint: "Anchor-5" 300 690 basechar 0
AnchorPoint: "Anchor-4" 300 0 basechar 0
LayerCount: 2
Fore
SplineSet
598 690 m 1
 503 0 l 1
 367 0 l 1
 299 511 l 1
 228 0 l 1
 90 0 l 1
 2 690 l 1
 114 690 l 1
 168 112 l 1
 242 610 l 1
 361 610 l 1
 430 112 l 1
 494 690 l 1
 598 690 l 1
EndSplineSet
EndChar

StartChar: Wacute
Encoding: 7810 7810 115
Width: 600
GlyphClass: 2
Flags: MW
HStem: 0 112<168 168 168 228 90 168> 670 20G<2 114 114 114 494 598 598 598>
VStem: 2 596<690 690>
AnchorPoint: "Anchor-5" 300 690 basechar 0
AnchorPoint: "Anchor-4" 300 0 basechar 0
LayerCount: 2
Fore
SplineSet
381 924 m 1
 427 834 l 1
 204 754 l 1
 176 812 l 1
 381 924 l 1
598 690 m 1
 503 0 l 1
 367 0 l 1
 299 511 l 1
 228 0 l 1
 90 0 l 1
 2 690 l 1
 114 690 l 1
 168 112 l 1
 242 610 l 1
 361 610 l 1
 430 112 l 1
 494 690 l 1
 598 690 l 1
EndSplineSet
EndChar

StartChar: Wcircumflex
Encoding: 372 372 116
Width: 600
GlyphClass: 2
Flags: MW
HStem: 0 112<168 168 168 228 90 168> 670 20G<2 114 114 114 494 598 598 598>
VStem: 2 596<690 690>
AnchorPoint: "Anchor-5" 300 690 basechar 0
AnchorPoint: "Anchor-4" 300 0 basechar 0
LayerCount: 2
Fore
SplineSet
336 923 m 1
 473 807 l 1
 429 756 l 1
 300 838 l 1
 172 756 l 1
 127 807 l 1
 264 923 l 1
 336 923 l 1
598 690 m 1
 503 0 l 1
 367 0 l 1
 299 511 l 1
 228 0 l 1
 90 0 l 1
 2 690 l 1
 114 690 l 1
 168 112 l 1
 242 610 l 1
 361 610 l 1
 430 112 l 1
 494 690 l 1
 598 690 l 1
EndSplineSet
EndChar

StartChar: Wdieresis
Encoding: 7812 7812 117
Width: 600
GlyphClass: 2
Flags: MW
HStem: 0 112<168 168 168 228 90 168> 670 20G<2 114 114 114 494 598 598 598> 765 127<173.5 210 390 426.5>
VStem: 126 130<810 846.5> 343 130<810 846.5>
AnchorPoint: "Anchor-5" 300 828 basechar 0
AnchorPoint: "Anchor-4" 300 0 basechar 0
LayerCount: 2
Fore
SplineSet
192 765 m 0
 155 765 126 792 126 828 c 0
 126 865 155 892 192 892 c 0
 228 892 256 865 256 828 c 0
 256 792 228 765 192 765 c 0
408 765 m 0
 372 765 343 792 343 828 c 0
 343 865 372 892 408 892 c 0
 445 892 473 865 473 828 c 0
 473 792 445 765 408 765 c 0
598 690 m 1
 503 0 l 1
 367 0 l 1
 299 511 l 1
 228 0 l 1
 90 0 l 1
 2 690 l 1
 114 690 l 1
 168 112 l 1
 242 610 l 1
 361 610 l 1
 430 112 l 1
 494 690 l 1
 598 690 l 1
EndSplineSet
EndChar

StartChar: Wgrave
Encoding: 7808 7808 118
Width: 600
GlyphClass: 2
Flags: MW
HStem: 0 112<168 168 168 228 90 168> 670 20G<2 114 114 114 494 598 598 598>
VStem: 2 596<690 690>
AnchorPoint: "Anchor-5" 300 690 basechar 0
AnchorPoint: "Anchor-4" 300 0 basechar 0
LayerCount: 2
Fore
SplineSet
228 926 m 1
 424 812 l 1
 394 754 l 1
 177 836 l 1
 228 926 l 1
598 690 m 1
 503 0 l 1
 367 0 l 1
 299 511 l 1
 228 0 l 1
 90 0 l 1
 2 690 l 1
 114 690 l 1
 168 112 l 1
 242 610 l 1
 361 610 l 1
 430 112 l 1
 494 690 l 1
 598 690 l 1
EndSplineSet
EndChar

StartChar: X
Encoding: 88 88 119
Width: 600
GlyphClass: 2
Flags: MW
HStem: 0 21G<21 144 21 21 451 580 451 451> 670 20G<38 167 167 167 435 558 558 558>
VStem: 21 559<0 0>
AnchorPoint: "Anchor-5" 300 690 basechar 0
AnchorPoint: "Anchor-4" 300 0 basechar 0
LayerCount: 2
Fore
SplineSet
38 690 m 1
 167 690 l 1
 300 442 l 1
 435 690 l 1
 558 690 l 1
 367 373 l 1
 580 0 l 1
 451 0 l 1
 298 293 l 1
 144 0 l 1
 21 0 l 1
 229 367 l 1
 38 690 l 1
EndSplineSet
EndChar

StartChar: Y
Encoding: 89 89 120
Width: 600
GlyphClass: 2
Flags: MW
HStem: 0 21G<242 358 242 242> 670 20G<11 139 139 139 467 589 589 589>
VStem: 242 116<0 263 263 263>
AnchorPoint: "Anchor-5" 302 690 basechar 0
AnchorPoint: "Anchor-4" 300 0 basechar 0
LayerCount: 2
Fore
SplineSet
358 264 m 1
 358 0 l 1
 242 0 l 1
 242 263 l 1
 11 690 l 1
 139 690 l 1
 302 363 l 1
 467 690 l 1
 589 690 l 1
 358 264 l 1
EndSplineSet
EndChar

StartChar: Yacute
Encoding: 221 221 121
Width: 600
GlyphClass: 2
Flags: MW
HStem: 0 21G<242 358 242 242> 670 20G<11 139 139 139 467 589 589 589>
VStem: 242 116<0 263 263 263>
AnchorPoint: "Anchor-5" 302 690 basechar 0
AnchorPoint: "Anchor-4" 300 0 basechar 0
LayerCount: 2
Fore
SplineSet
383 924 m 1
 429 834 l 1
 206 754 l 1
 178 812 l 1
 383 924 l 1
358 264 m 1
 358 0 l 1
 242 0 l 1
 242 263 l 1
 11 690 l 1
 139 690 l 1
 302 363 l 1
 467 690 l 1
 589 690 l 1
 358 264 l 1
EndSplineSet
EndChar

StartChar: Ycircumflex
Encoding: 374 374 122
Width: 600
GlyphClass: 2
Flags: MW
HStem: 0 21G<242 358 242 242> 670 20G<11 139 139 139 467 589 589 589>
VStem: 242 116<0 263 263 263>
AnchorPoint: "Anchor-5" 302 690 basechar 0
AnchorPoint: "Anchor-4" 300 0 basechar 0
LayerCount: 2
Fore
SplineSet
338 923 m 1
 475 807 l 1
 431 756 l 1
 302 838 l 1
 174 756 l 1
 129 807 l 1
 266 923 l 1
 338 923 l 1
358 264 m 1
 358 0 l 1
 242 0 l 1
 242 263 l 1
 11 690 l 1
 139 690 l 1
 302 363 l 1
 467 690 l 1
 589 690 l 1
 358 264 l 1
EndSplineSet
EndChar

StartChar: Ydieresis
Encoding: 376 376 123
Width: 600
GlyphClass: 2
Flags: MW
HStem: 0 21G<242 358 242 242> 670 20G<11 139 139 139 467 589 589 589> 765 127<175.5 212 392 428.5>
VStem: 128 130<810 846.5> 242 116<0 263 263 263> 345 130<810 846.5>
AnchorPoint: "Anchor-5" 302 828 basechar 0
AnchorPoint: "Anchor-4" 300 0 basechar 0
LayerCount: 2
Fore
SplineSet
194 765 m 0xf4
 157 765 128 792 128 828 c 0
 128 865 157 892 194 892 c 0
 230 892 258 865 258 828 c 0
 258 792 230 765 194 765 c 0xf4
410 765 m 0
 374 765 345 792 345 828 c 0
 345 865 374 892 410 892 c 0
 447 892 475 865 475 828 c 0
 475 792 447 765 410 765 c 0
358 264 m 1xe8
 358 0 l 1
 242 0 l 1
 242 263 l 1
 11 690 l 1
 139 690 l 1
 302 363 l 1
 467 690 l 1
 589 690 l 1
 358 264 l 1xe8
EndSplineSet
EndChar

StartChar: Ygrave
Encoding: 7922 7922 124
Width: 600
GlyphClass: 2
Flags: MW
HStem: 0 21G<242 358 242 242> 670 20G<11 139 139 139 467 589 589 589>
VStem: 242 116<0 263 263 263>
AnchorPoint: "Anchor-5" 302 690 basechar 0
AnchorPoint: "Anchor-4" 300 0 basechar 0
LayerCount: 2
Fore
SplineSet
230 926 m 1
 426 812 l 1
 396 754 l 1
 179 836 l 1
 230 926 l 1
358 264 m 1
 358 0 l 1
 242 0 l 1
 242 263 l 1
 11 690 l 1
 139 690 l 1
 302 363 l 1
 467 690 l 1
 589 690 l 1
 358 264 l 1
EndSplineSet
EndChar

StartChar: Z
Encoding: 90 90 125
Width: 600
GlyphClass: 2
Flags: MW
HStem: 0 96<192 528> 596 94<95 410 95 538>
VStem: 59 481<0 96 90 96>
AnchorPoint: "Anchor-5" 317 690 basechar 0
AnchorPoint: "Anchor-4" 300 0 basechar 0
LayerCount: 2
Fore
SplineSet
192 96 m 1
 540 96 l 1
 528 0 l 1
 59 0 l 1
 59 90 l 1
 410 596 l 1
 95 596 l 1
 95 690 l 1
 538 690 l 1
 538 599 l 1
 192 96 l 1
EndSplineSet
EndChar

StartChar: Zacute
Encoding: 377 377 126
Width: 600
GlyphClass: 2
Flags: MW
HStem: 0 96<192 528> 596 94<95 410 95 538>
VStem: 59 481<0 96 90 96>
AnchorPoint: "Anchor-5" 317 690 basechar 0
AnchorPoint: "Anchor-4" 300 0 basechar 0
LayerCount: 2
Fore
SplineSet
397 924 m 1
 443 834 l 1
 220 754 l 1
 192 812 l 1
 397 924 l 1
192 96 m 1
 540 96 l 1
 528 0 l 1
 59 0 l 1
 59 90 l 1
 410 596 l 1
 95 596 l 1
 95 690 l 1
 538 690 l 1
 538 599 l 1
 192 96 l 1
EndSplineSet
Substitution2: "'locl' Localized Forms in Latin lookup 7 subtable" Zacute.loclPLK
Substitution2: "'aalt' Access All Alternates in Latin lookup 0 subtable" Zacute.loclPLK
EndChar

StartChar: Zcaron
Encoding: 381 381 127
Width: 600
GlyphClass: 2
Flags: MW
HStem: 0 96<192 528> 596 94<95 410 95 538>
VStem: 59 481<0 96 90 96>
AnchorPoint: "Anchor-5" 317 690 basechar 0
AnchorPoint: "Anchor-4" 300 0 basechar 0
LayerCount: 2
Fore
SplineSet
446 920 m 1
 490 869 l 1
 353 753 l 1
 281 753 l 1
 144 869 l 1
 189 920 l 1
 317 838 l 1
 446 920 l 1
192 96 m 1
 540 96 l 1
 528 0 l 1
 59 0 l 1
 59 90 l 1
 410 596 l 1
 95 596 l 1
 95 690 l 1
 538 690 l 1
 538 599 l 1
 192 96 l 1
EndSplineSet
EndChar

StartChar: Zdotaccent
Encoding: 379 379 128
Width: 600
GlyphClass: 2
Flags: MW
HStem: 0 96<192 528> 596 94<95 410 95 538> 767 141<293.5 337>
VStem: 242 147<817 857>
AnchorPoint: "Anchor-5" 317 690 basechar 0
AnchorPoint: "Anchor-4" 300 0 basechar 0
LayerCount: 2
Fore
SplineSet
315 908 m 0
 359 908 389 877 389 837 c 0
 389 797 359 767 315 767 c 0
 272 767 242 797 242 837 c 0
 242 877 272 908 315 908 c 0
192 96 m 1
 540 96 l 1
 528 0 l 1
 59 0 l 1
 59 90 l 1
 410 596 l 1
 95 596 l 1
 95 690 l 1
 538 690 l 1
 538 599 l 1
 192 96 l 1
EndSplineSet
EndChar

StartChar: Cacute.loclPLK
Encoding: 1114113 -1 129
Width: 600
GlyphClass: 2
Flags: MW
HStem: -13 94<309.5 401 309.5 410.5> 613 91<311.5 390>
VStem: 52 121<250.5 443.5 250.5 462>
AnchorPoint: "Anchor-5" 364 690 basechar 0
AnchorPoint: "Anchor-4" 351 0 basechar 0
LayerCount: 2
Fore
SplineSet
409 937 m 1
 496 880 l 1
 359 732 l 1
 305 766 l 1
 409 937 l 1
358 704 m 0
 452 704 510 679 566 634 c 1
 506 562 l 1
 464 596 417 613 363 613 c 0
 260 613 173 541 173 346 c 0
 173 155 255 81 364 81 c 0
 438 81 482 110 520 140 c 1
 576 69 l 1
 530 24 461 -13 360 -13 c 0
 184 -13 52 112 52 346 c 0
 52 578 190 704 358 704 c 0
EndSplineSet
EndChar

StartChar: Nacute.loclPLK
Encoding: 1114114 -1 130
Width: 600
GlyphClass: 2
Flags: MW
HStem: 0 21G<71 174 71 71 378 529 378 378> 0 103<442 442 442 529 378 442> 587 103<158 158> 670 20G<71 222 222 222 426 529 529 529>
VStem: 71 103<0 313 0 690> 426 103<376 690 0 690>
AnchorPoint: "Anchor-5" 303 690 basechar 0
AnchorPoint: "Anchor-4" 300 0 basechar 0
LayerCount: 2
Fore
SplineSet
348 937 m 1x9c
 435 880 l 1
 298 732 l 1
 244 766 l 1
 348 937 l 1x9c
378 0 m 1
 158 587 l 1xac
 162 546 174 425 174 313 c 2
 174 0 l 1
 71 0 l 1
 71 690 l 1
 222 690 l 1
 442 103 l 1x5c
 438 144 426 251 426 376 c 2
 426 690 l 1
 529 690 l 1
 529 0 l 1
 378 0 l 1
EndSplineSet
EndChar

StartChar: Oacute.loclPLK
Encoding: 1114115 -1 131
Width: 600
GlyphClass: 2
Flags: MW
HStem: -13 90<250.5 351 250.5 386.5> 613 91<249 351>
VStem: 38 119<255 433.5 255 450.5> 443 119<256 434>
AnchorPoint: "Anchor-5" 300 690 basechar 0
AnchorPoint: "Anchor-4" 300 0 basechar 0
LayerCount: 2
Fore
SplineSet
345 937 m 1
 432 880 l 1
 295 732 l 1
 241 766 l 1
 345 937 l 1
562 345 m 0
 562 132 473 -13 300 -13 c 0
 127 -13 38 127 38 344 c 0
 38 557 127 704 300 704 c 0
 473 704 562 562 562 345 c 0
443 345 m 0
 443 523 402 613 300 613 c 0
 198 613 157 523 157 344 c 0
 157 166 201 77 300 77 c 0
 402 77 443 167 443 345 c 0
EndSplineSet
EndChar

StartChar: Sacute.loclPLK
Encoding: 1114116 -1 132
Width: 600
GlyphClass: 2
Flags: MW
HStem: -13 91<244.5 324 244.5 368.5> 613 91<272.5 336.5>
VStem: 64 119<497 554 497 573.5> 428 121<152 219.5>
AnchorPoint: "Anchor-5" 307 690 basechar 0
AnchorPoint: "Anchor-4" 298 0 basechar 0
LayerCount: 2
Fore
SplineSet
352 937 m 1
 439 880 l 1
 302 732 l 1
 248 766 l 1
 352 937 l 1
549 195 m 0
 549 72 452 -13 285 -13 c 0
 173 -13 89 22 31 79 c 1
 95 150 l 1
 144 105 204 78 285 78 c 0
 363 78 428 115 428 189 c 0
 428 250 397 279 287 312 c 0
 140 355 64 410 64 517 c 0
 64 630 165 704 301 704 c 0
 400 704 473 674 532 621 c 1
 471 552 l 1
 422 594 365 613 308 613 c 0
 237 613 183 584 183 524 c 0
 183 470 221 445 344 409 c 0
 461 374 549 325 549 195 c 0
EndSplineSet
EndChar

StartChar: Zacute.loclPLK
Encoding: 1114117 -1 133
Width: 600
GlyphClass: 2
Flags: MW
HStem: 0 96<192 528> 596 94<95 410 95 538>
VStem: 59 481<0 96 90 96>
AnchorPoint: "Anchor-5" 317 690 basechar 0
AnchorPoint: "Anchor-4" 300 0 basechar 0
LayerCount: 2
Fore
SplineSet
361 937 m 1
 448 880 l 1
 311 732 l 1
 257 766 l 1
 361 937 l 1
192 96 m 1
 540 96 l 1
 528 0 l 1
 59 0 l 1
 59 90 l 1
 410 596 l 1
 95 596 l 1
 95 690 l 1
 538 690 l 1
 538 599 l 1
 192 96 l 1
EndSplineSet
EndChar

StartChar: a
Encoding: 97 97 134
Width: 600
GlyphClass: 2
Flags: MW
HStem: -13 82<233.5 263.5> 254 70<307 320 320 382> 454 88<255 302>
VStem: 56 118<127 186 127 206> 382 111<137 254 254 254 324 358 358 365>
AnchorPoint: "Anchor-5" 292 528 basechar 0
AnchorPoint: "Anchor-4" 300 0 basechar 0
LayerCount: 2
Fore
SplineSet
493 129 m 2
 493 88 505 72 533 63 c 1
 507 -13 l 1
 456 -7 417 14 398 60 c 1
 359 11 297 -13 230 -13 c 0
 122 -13 56 53 56 151 c 0
 56 261 146 324 307 324 c 2
 382 324 l 1
 382 358 l 2
 382 427 339 454 265 454 c 0
 230 454 178 446 125 427 c 1
 97 506 l 1
 163 531 228 542 282 542 c 0
 424 542 493 476 493 365 c 2
 493 129 l 2
263 69 m 0
 309 69 356 94 382 137 c 1
 382 254 l 1
 320 254 l 2
 215 254 174 217 174 155 c 0
 174 99 204 69 263 69 c 0
EndSplineSet
Substitution2: "Single Substitution lookup 29 subtable" ordfeminine
Substitution2: "'aalt' Access All Alternates in Latin lookup 0 subtable" ordfeminine
EndChar

StartChar: aacute
Encoding: 225 225 135
Width: 600
GlyphClass: 2
Flags: MW
HStem: -13 82<233.5 263.5> 254 70<307 320 320 382> 454 88<255 302>
VStem: 56 118<127 186 127 206> 382 111<137 254 254 254 324 358 358 365>
AnchorPoint: "Anchor-5" 292 528 basechar 0
AnchorPoint: "Anchor-4" 300 0 basechar 0
LayerCount: 2
Fore
SplineSet
373 811 m 1
 420 722 l 1
 201 633 l 1
 168 692 l 1
 373 811 l 1
493 129 m 2
 493 88 505 72 533 63 c 1
 507 -13 l 1
 456 -7 417 14 398 60 c 1
 359 11 297 -13 230 -13 c 0
 122 -13 56 53 56 151 c 0
 56 261 146 324 307 324 c 2
 382 324 l 1
 382 358 l 2
 382 427 339 454 265 454 c 0
 230 454 178 446 125 427 c 1
 97 506 l 1
 163 531 228 542 282 542 c 0
 424 542 493 476 493 365 c 2
 493 129 l 2
263 69 m 0
 309 69 356 94 382 137 c 1
 382 254 l 1
 320 254 l 2
 215 254 174 217 174 155 c 0
 174 99 204 69 263 69 c 0
EndSplineSet
EndChar

StartChar: abreve
Encoding: 259 259 136
Width: 600
GlyphClass: 2
Flags: MW
HStem: -13 82<233.5 263.5> 254 70<307 320 320 382> 454 88<255 302> 623 81<267.5 314.5 267.5 340>
VStem: 56 118<127 186 127 206> 382 111<137 254 254 254 324 358 358 365>
AnchorPoint: "Anchor-5" 292 528 basechar 0
AnchorPoint: "Anchor-4" 300 0 basechar 0
LayerCount: 2
Fore
SplineSet
291 623 m 0
 192 623 142 702 134 774 c 1
 203 787 l 1
 216 738 244 704 291 704 c 0
 338 704 367 738 381 787 c 1
 449 774 l 1
 441 702 389 623 291 623 c 0
493 129 m 2
 493 88 505 72 533 63 c 1
 507 -13 l 1
 456 -7 417 14 398 60 c 1
 359 11 297 -13 230 -13 c 0
 122 -13 56 53 56 151 c 0
 56 261 146 324 307 324 c 2
 382 324 l 1
 382 358 l 2
 382 427 339 454 265 454 c 0
 230 454 178 446 125 427 c 1
 97 506 l 1
 163 531 228 542 282 542 c 0
 424 542 493 476 493 365 c 2
 493 129 l 2
263 69 m 0
 309 69 356 94 382 137 c 1
 382 254 l 1
 320 254 l 2
 215 254 174 217 174 155 c 0
 174 99 204 69 263 69 c 0
EndSplineSet
EndChar

StartChar: acircumflex
Encoding: 226 226 137
Width: 600
GlyphClass: 2
Flags: MW
HStem: -13 82<233.5 263.5> 254 70<307 320 320 382> 454 88<255 302>
VStem: 56 118<127 186 127 206> 382 111<137 254 254 254 324 358 358 365>
AnchorPoint: "Anchor-5" 292 528 basechar 0
AnchorPoint: "Anchor-4" 300 0 basechar 0
LayerCount: 2
Fore
SplineSet
165 622 m 1
 119 672 l 1
 256 799 l 1
 328 799 l 1
 465 672 l 1
 420 622 l 1
 293 714 l 1
 165 622 l 1
493 129 m 2
 493 88 505 72 533 63 c 1
 507 -13 l 1
 456 -7 417 14 398 60 c 1
 359 11 297 -13 230 -13 c 0
 122 -13 56 53 56 151 c 0
 56 261 146 324 307 324 c 2
 382 324 l 1
 382 358 l 2
 382 427 339 454 265 454 c 0
 230 454 178 446 125 427 c 1
 97 506 l 1
 163 531 228 542 282 542 c 0
 424 542 493 476 493 365 c 2
 493 129 l 2
263 69 m 0
 309 69 356 94 382 137 c 1
 382 254 l 1
 320 254 l 2
 215 254 174 217 174 155 c 0
 174 99 204 69 263 69 c 0
EndSplineSet
EndChar

StartChar: adieresis
Encoding: 228 228 138
Width: 600
GlyphClass: 2
Flags: MW
HStem: -13 82<233.5 263.5> 254 70<307 320 320 382> 454 88<255 302> 644 127<165.5 202 382 418.5>
VStem: 56 118<127 186 127 206> 118 130<689 725.5> 335 130<689 725.5> 382 111<137 254 254 254 324 358 358 365>
AnchorPoint: "Anchor-5" 292 707 basechar 0
AnchorPoint: "Anchor-4" 300 0 basechar 0
LayerCount: 2
Fore
SplineSet
184 644 m 0xf6
 147 644 118 671 118 707 c 0
 118 744 147 771 184 771 c 0
 220 771 248 744 248 707 c 0
 248 671 220 644 184 644 c 0xf6
400 644 m 0
 364 644 335 671 335 707 c 0
 335 744 364 771 400 771 c 0
 437 771 465 744 465 707 c 0
 465 671 437 644 400 644 c 0
493 129 m 2xe9
 493 88 505 72 533 63 c 1
 507 -13 l 1
 456 -7 417 14 398 60 c 1
 359 11 297 -13 230 -13 c 0
 122 -13 56 53 56 151 c 0
 56 261 146 324 307 324 c 2
 382 324 l 1
 382 358 l 2
 382 427 339 454 265 454 c 0
 230 454 178 446 125 427 c 1
 97 506 l 1
 163 531 228 542 282 542 c 0
 424 542 493 476 493 365 c 2
 493 129 l 2xe9
263 69 m 0
 309 69 356 94 382 137 c 1
 382 254 l 1
 320 254 l 2
 215 254 174 217 174 155 c 0
 174 99 204 69 263 69 c 0
EndSplineSet
EndChar

StartChar: agrave
Encoding: 224 224 139
Width: 600
GlyphClass: 2
Flags: MW
HStem: -13 82<233.5 263.5> 254 70<307 320 320 382> 454 88<255 302>
VStem: 56 118<127 186 127 206> 382 111<137 254 254 254 324 358 358 365>
AnchorPoint: "Anchor-5" 292 528 basechar 0
AnchorPoint: "Anchor-4" 300 0 basechar 0
LayerCount: 2
Fore
SplineSet
383 622 m 1
 168 715 l 1
 220 805 l 1
 417 681 l 1
 383 622 l 1
493 129 m 2
 493 88 505 72 533 63 c 1
 507 -13 l 1
 456 -7 417 14 398 60 c 1
 359 11 297 -13 230 -13 c 0
 122 -13 56 53 56 151 c 0
 56 261 146 324 307 324 c 2
 382 324 l 1
 382 358 l 2
 382 427 339 454 265 454 c 0
 230 454 178 446 125 427 c 1
 97 506 l 1
 163 531 228 542 282 542 c 0
 424 542 493 476 493 365 c 2
 493 129 l 2
263 69 m 0
 309 69 356 94 382 137 c 1
 382 254 l 1
 320 254 l 2
 215 254 174 217 174 155 c 0
 174 99 204 69 263 69 c 0
EndSplineSet
EndChar

StartChar: amacron
Encoding: 257 257 140
Width: 600
GlyphClass: 2
Flags: MW
HStem: -13 82<233.5 263.5> 254 70<307 320 320 382> 454 88<255 302> 669 81<150 433 150 433>
VStem: 56 118<127 186 127 206> 150 283<669 750 669 750> 382 111<137 254 254 254 324 358 358 365>
AnchorPoint: "Anchor-5" 292 528 basechar 0
AnchorPoint: "Anchor-4" 300 0 basechar 0
LayerCount: 2
Fore
SplineSet
433 669 m 1xf4
 150 669 l 1
 150 750 l 1
 433 750 l 1
 433 669 l 1xf4
493 129 m 2xfa
 493 88 505 72 533 63 c 1
 507 -13 l 1
 456 -7 417 14 398 60 c 1
 359 11 297 -13 230 -13 c 0
 122 -13 56 53 56 151 c 0
 56 261 146 324 307 324 c 2
 382 324 l 1
 382 358 l 2
 382 427 339 454 265 454 c 0
 230 454 178 446 125 427 c 1
 97 506 l 1
 163 531 228 542 282 542 c 0
 424 542 493 476 493 365 c 2
 493 129 l 2xfa
263 69 m 0
 309 69 356 94 382 137 c 1
 382 254 l 1
 320 254 l 2
 215 254 174 217 174 155 c 0
 174 99 204 69 263 69 c 0
EndSplineSet
EndChar

StartChar: aogonek
Encoding: 261 261 141
Width: 600
GlyphClass: 2
Flags: MW
HStem: -251 77<423.5 443> -13 21G<176 263.5 507 507> -13 82<233.5 263.5> 254 70<307 320 320 382> 454 88<255 302>
VStem: 56 118<127 186 127 206> 297 90<-141.5 -108> 382 111<137 254 254 254 324 358 358 365>
AnchorPoint: "Anchor-5" 292 528 basechar 0
AnchorPoint: "Anchor-4" 300 0 basechar 0
LayerCount: 2
Fore
SplineSet
533 63 m 1x3d
 507 -13 l 1
 408 -53 387 -88 387 -126 c 0
 387 -157 404 -174 443 -174 c 0
 464 -174 480 -172 502 -167 c 1
 492 -244 l 1
 473 -248 456 -251 430 -251 c 0
 351 -251 297 -208 297 -144 c 0xde
 297 -72 348 -27 440 8 c 1x5d
 422 20 408 37 398 60 c 1
 359 11 297 -13 230 -13 c 0
 122 -13 56 53 56 151 c 0
 56 261 146 324 307 324 c 2
 382 324 l 1
 382 358 l 2
 382 427 339 454 265 454 c 0
 230 454 178 446 125 427 c 1
 97 506 l 1
 163 531 228 542 282 542 c 0
 424 542 493 476 493 365 c 2
 493 129 l 2
 493 88 505 72 533 63 c 1x3d
382 137 m 1x3d
 382 254 l 1
 320 254 l 2
 215 254 174 217 174 155 c 0
 174 99 204 69 263 69 c 0
 309 69 356 94 382 137 c 1x3d
EndSplineSet
EndChar

StartChar: aring
Encoding: 229 229 142
Width: 600
GlyphClass: 2
Flags: MW
HStem: -13 82<233.5 263.5> 254 70<307 320 320 382> 454 88<255 302> 612 59<276.5 307.5 276.5 328.5> 779 60<276.5 307.5>
VStem: 56 118<127 186 127 206> 170 71<708.5 743 708.5 757> 342 71<708.5 743> 382 111<137 254 254 254 324 358 358 365>
AnchorPoint: "Anchor-5" 292 528 basechar 0
AnchorPoint: "Anchor-4" 300 0 basechar 0
LayerCount: 2
Fore
SplineSet
292 839 m 0xfb
 365 839 413 788 413 726 c 0
 413 664 365 612 292 612 c 0
 219 612 170 664 170 726 c 0
 170 788 219 839 292 839 c 0xfb
292 779 m 0
 261 779 241 760 241 726 c 0
 241 691 261 671 292 671 c 0
 323 671 342 691 342 726 c 0
 342 760 323 779 292 779 c 0
493 129 m 2xfc80
 493 88 505 72 533 63 c 1
 507 -13 l 1
 456 -7 417 14 398 60 c 1
 359 11 297 -13 230 -13 c 0
 122 -13 56 53 56 151 c 0
 56 261 146 324 307 324 c 2
 382 324 l 1
 382 358 l 2
 382 427 339 454 265 454 c 0
 230 454 178 446 125 427 c 1
 97 506 l 1
 163 531 228 542 282 542 c 0
 424 542 493 476 493 365 c 2
 493 129 l 2xfc80
263 69 m 0
 309 69 356 94 382 137 c 1
 382 254 l 1
 320 254 l 2
 215 254 174 217 174 155 c 0
 174 99 204 69 263 69 c 0
EndSplineSet
EndChar

StartChar: atilde
Encoding: 227 227 143
Width: 600
GlyphClass: 2
Flags: MW
HStem: -13 82<233.5 263.5> 254 70<307 320 320 382> 454 88<255 302> 650 82<331 359.5 331 374> 697 83<222 251.5> 725 20G<465 465>
VStem: 56 118<127 186 127 206> 382 111<137 254 254 254 324 358 358 365>
AnchorPoint: "Anchor-5" 292 528 basechar 0
AnchorPoint: "Anchor-4" 300 0 basechar 0
LayerCount: 2
Fore
SplineSet
349 650 m 0xf3
 295 650 269 697 234 697 c 0
 210 697 197 681 181 651 c 1
 118 682 l 1
 142 736 180 780 233 780 c 0xeb
 291 780 313 732 349 732 c 0
 370 732 384 746 402 776 c 1xf3
 465 745 l 1xe7
 439 685 399 650 349 650 c 0xf3
493 129 m 2xe7
 493 88 505 72 533 63 c 1
 507 -13 l 1
 456 -7 417 14 398 60 c 1
 359 11 297 -13 230 -13 c 0
 122 -13 56 53 56 151 c 0
 56 261 146 324 307 324 c 2
 382 324 l 1
 382 358 l 2
 382 427 339 454 265 454 c 0
 230 454 178 446 125 427 c 1
 97 506 l 1
 163 531 228 542 282 542 c 0
 424 542 493 476 493 365 c 2
 493 129 l 2xe7
263 69 m 0
 309 69 356 94 382 137 c 1
 382 254 l 1
 320 254 l 2
 215 254 174 217 174 155 c 0
 174 99 204 69 263 69 c 0
EndSplineSet
EndChar

StartChar: ae
Encoding: 230 230 144
Width: 600
GlyphClass: 2
Flags: MW
HStem: -13 79<144.5 178.5> -13 83<417.5 468 417.5 476.5> 230 74<344 508 344 602 344 508> 254 69<204 213 213 248> 461 81<401.5 458>
VStem: -6 106<127.5 187 127.5 206.5> 248 96<230 254 230 358> 508 96<304 304>
AnchorPoint: "Anchor-5" 306 528 basechar 0
AnchorPoint: "Anchor-4" 0 0 basechar 0
LayerCount: 2
Fore
SplineSet
432 542 m 0x6f
 554 542 604 444 604 278 c 0
 604 260 603 244 602 230 c 1
 344 230 l 1x6f
 353 120 385 70 450 70 c 0
 486 70 513 83 545 107 c 1
 592 41 l 1
 552 8 507 -13 446 -13 c 0
 374 -13 326 18 293 74 c 1
 250 14 212 -13 145 -13 c 0
 52 -13 -6 53 -6 151 c 0
 -6 262 65 323 204 323 c 2
 248 323 l 1x5f
 248 358 l 2
 248 430 215 462 157 462 c 0
 123 462 99 454 57 435 c 1
 30 507 l 1
 77 529 122 542 168 542 c 0
 245 542 284 510 306 461 c 1
 327 510 370 542 432 542 c 0x6f
428 461 m 0
 375 461 350 421 344 304 c 1
 508 304 l 1
 507 408 488 461 428 461 c 0
248 254 m 1x9f
 213 254 l 2
 128 254 100 217 100 157 c 0
 100 98 125 66 164 66 c 0
 202 66 228 95 258 149 c 1
 251 181 248 217 248 254 c 1x9f
EndSplineSet
EndChar

StartChar: aeacute
Encoding: 509 509 145
Width: 600
GlyphClass: 2
Flags: MW
HStem: -13 79<144.5 178.5> -13 83<417.5 468 417.5 476.5> 230 74<344 508 344 602 344 508> 254 69<204 213 213 248> 461 81<401.5 458>
VStem: -6 106<127.5 187 127.5 206.5> 248 96<230 254 230 358> 508 96<304 304>
AnchorPoint: "Anchor-5" 306 528 basechar 0
AnchorPoint: "Anchor-4" 0 0 basechar 0
LayerCount: 2
Fore
SplineSet
387 811 m 1x6f
 434 722 l 1
 215 633 l 1
 182 692 l 1
 387 811 l 1x6f
432 542 m 0
 554 542 604 444 604 278 c 0
 604 260 603 244 602 230 c 1
 344 230 l 1x6f
 353 120 385 70 450 70 c 0
 486 70 513 83 545 107 c 1
 592 41 l 1
 552 8 507 -13 446 -13 c 0
 374 -13 326 18 293 74 c 1
 250 14 212 -13 145 -13 c 0
 52 -13 -6 53 -6 151 c 0
 -6 262 65 323 204 323 c 2
 248 323 l 1x5f
 248 358 l 2
 248 430 215 462 157 462 c 0
 123 462 99 454 57 435 c 1
 30 507 l 1
 77 529 122 542 168 542 c 0
 245 542 284 510 306 461 c 1
 327 510 370 542 432 542 c 0
428 461 m 0
 375 461 350 421 344 304 c 1
 508 304 l 1
 507 408 488 461 428 461 c 0
248 254 m 1x9f
 213 254 l 2
 128 254 100 217 100 157 c 0
 100 98 125 66 164 66 c 0
 202 66 228 95 258 149 c 1
 251 181 248 217 248 254 c 1x9f
EndSplineSet
EndChar

StartChar: b
Encoding: 98 98 146
Width: 600
GlyphClass: 2
Flags: MW
HStem: -13 85<303.5 342.5 283 400.5> 0 21G<89 188 89 89> 456 86<317 350> 720 20G<89 89> 733 20G<201 201>
VStem: 89 112<133 380 133 465 465 740 740 740> 424 119<198 332>
AnchorPoint: "Anchor-5" 300 740 basechar 0
AnchorPoint: "Anchor-4" 300 0 basechar 0
LayerCount: 2
Fore
SplineSet
201 465 m 1xae
 237 513 288 542 346 542 c 0
 485 542 543 433 543 265 c 0
 543 104 469 -13 332 -13 c 0
 275 -13 228 8 194 52 c 1xae
 188 0 l 1
 89 0 l 1
 89 740 l 1x76
 201 753 l 1
 201 465 l 1xae
305 72 m 0
 380 72 424 132 424 264 c 0
 424 400 385 456 315 456 c 0
 266 456 227 421 201 380 c 1
 201 133 l 1
 226 95 261 72 305 72 c 0
EndSplineSet
EndChar

StartChar: c
Encoding: 99 99 147
Width: 600
GlyphClass: 2
Flags: MW
HStem: -13 92<303 368.5 303 375> 452 90<302 366.5>
VStem: 83 119<195 327 195 341.5>
AnchorPoint: "Anchor-5" 344 518 basechar 0
AnchorPoint: "Anchor-4" 339 0 basechar 0
LayerCount: 2
Fore
SplineSet
344 79 m 0
 393 79 435 98 474 124 c 1
 525 52 l 1
 479 13 410 -13 340 -13 c 0
 177 -13 83 96 83 261 c 0
 83 422 179 542 342 542 c 0
 414 542 474 520 525 478 c 1
 473 408 l 1
 432 436 389 452 344 452 c 0
 260 452 202 393 202 261 c 0
 202 129 262 79 344 79 c 0
EndSplineSet
EndChar

StartChar: cacute
Encoding: 263 263 148
Width: 600
GlyphClass: 2
Flags: MW
HStem: -13 92<303 368.5 303 375> 452 90<302 366.5>
VStem: 83 119<195 327 195 341.5>
AnchorPoint: "Anchor-5" 344 518 basechar 0
AnchorPoint: "Anchor-4" 339 0 basechar 0
LayerCount: 2
Fore
SplineSet
425 801 m 1
 472 712 l 1
 253 623 l 1
 220 682 l 1
 425 801 l 1
344 79 m 0
 393 79 435 98 474 124 c 1
 525 52 l 1
 479 13 410 -13 340 -13 c 0
 177 -13 83 96 83 261 c 0
 83 422 179 542 342 542 c 0
 414 542 474 520 525 478 c 1
 473 408 l 1
 432 436 389 452 344 452 c 0
 260 452 202 393 202 261 c 0
 202 129 262 79 344 79 c 0
EndSplineSet
Substitution2: "'locl' Localized Forms in Latin lookup 7 subtable" cacute.loclPLK
Substitution2: "'aalt' Access All Alternates in Latin lookup 0 subtable" cacute.loclPLK
EndChar

StartChar: ccaron
Encoding: 269 269 149
Width: 600
GlyphClass: 2
Flags: MW
HStem: -13 92<303 368.5 303 375> 452 90<302 366.5> 612 85<345 345 345 380 308 345> 677 20G<345 345>
VStem: 83 119<195 327 195 341.5>
AnchorPoint: "Anchor-5" 344 518 basechar 0
AnchorPoint: "Anchor-4" 339 0 basechar 0
LayerCount: 2
Fore
SplineSet
472 789 m 1xd8
 517 739 l 1
 380 612 l 1
 308 612 l 1xe8
 171 739 l 1
 217 789 l 1
 345 697 l 1
 472 789 l 1xd8
344 79 m 0
 393 79 435 98 474 124 c 1
 525 52 l 1
 479 13 410 -13 340 -13 c 0
 177 -13 83 96 83 261 c 0
 83 422 179 542 342 542 c 0
 414 542 474 520 525 478 c 1
 473 408 l 1
 432 436 389 452 344 452 c 0
 260 452 202 393 202 261 c 0
 202 129 262 79 344 79 c 0
EndSplineSet
EndChar

StartChar: ccedilla
Encoding: 231 231 150
Width: 600
GlyphClass: 2
Flags: MW
HStem: -247 67<305.5 331.5 303 364> -221 21G<218 218> -103 49 -13 21G<363 363> -13 92<363 363> -10 21G<291 291> 452 90<302 366.5>
VStem: 83 119<195 327 195 341.5> 287 76 371 89<-155.5 -126>
AnchorPoint: "Anchor-5" 344 518 basechar 0
AnchorPoint: "Anchor-4" 339 0 basechar 0
LayerCount: 2
Fore
SplineSet
363 -54 m 1x6780
 430 -60 460 -98 460 -143 c 0
 460 -209 401 -247 327 -247 c 0xa7c0
 284 -247 244 -236 218 -221 c 1x6780
 248 -163 l 1
 268 -173 292 -180 314 -180 c 0
 349 -180 371 -169 371 -142 c 0xa7c0
 371 -110 339 -103 283 -103 c 1
 291 -10 l 1x6780
 158 10 83 113 83 261 c 0
 83 422 179 542 342 542 c 0
 414 542 474 520 525 478 c 1
 473 408 l 1
 432 436 389 452 344 452 c 0
 260 452 202 393 202 261 c 0
 202 129 262 79 344 79 c 0
 393 79 435 98 474 124 c 1x6b80
 525 52 l 1
 484 17 425 -8 363 -13 c 1x7380
 363 -54 l 1x6780
EndSplineSet
EndChar

StartChar: ccircumflex
Encoding: 265 265 151
Width: 600
GlyphClass: 2
Flags: MW
HStem: -13 92<303 368.5 303 375> 452 90<302 366.5>
VStem: 83 119<195 327 195 341.5>
AnchorPoint: "Anchor-5" 344 518 basechar 0
AnchorPoint: "Anchor-4" 339 0 basechar 0
LayerCount: 2
Fore
SplineSet
217 612 m 1
 171 662 l 1
 308 789 l 1
 380 789 l 1
 517 662 l 1
 472 612 l 1
 345 704 l 1
 217 612 l 1
344 79 m 0
 393 79 435 98 474 124 c 1
 525 52 l 1
 479 13 410 -13 340 -13 c 0
 177 -13 83 96 83 261 c 0
 83 422 179 542 342 542 c 0
 414 542 474 520 525 478 c 1
 473 408 l 1
 432 436 389 452 344 452 c 0
 260 452 202 393 202 261 c 0
 202 129 262 79 344 79 c 0
EndSplineSet
EndChar

StartChar: cdotaccent
Encoding: 267 267 152
Width: 600
GlyphClass: 2
Flags: MW
HStem: -13 92<303 368.5 303 375> 452 90<302 366.5> 636 141<321.5 365>
VStem: 83 119<195 327 195 341.5> 270 147<686 726>
AnchorPoint: "Anchor-5" 344 518 basechar 0
AnchorPoint: "Anchor-4" 339 0 basechar 0
LayerCount: 2
Fore
SplineSet
343 777 m 0
 387 777 417 746 417 706 c 0
 417 666 387 636 343 636 c 0
 300 636 270 666 270 706 c 0
 270 746 300 777 343 777 c 0
344 79 m 0
 393 79 435 98 474 124 c 1
 525 52 l 1
 479 13 410 -13 340 -13 c 0
 177 -13 83 96 83 261 c 0
 83 422 179 542 342 542 c 0
 414 542 474 520 525 478 c 1
 473 408 l 1
 432 436 389 452 344 452 c 0
 260 452 202 393 202 261 c 0
 202 129 262 79 344 79 c 0
EndSplineSet
EndChar

StartChar: d
Encoding: 100 100 153
Width: 600
GlyphClass: 2
Flags: MW
HStem: -13 85<251 287> 0 21G<412 511 412 412> 456 86<257.5 293.5 201 316.5> 720 20G<511 511> 733 20G<399 399>
VStem: 57 119<196.5 330 196.5 344.5> 399 112<148 397 397 397 484 740 0 753 0 753>
AnchorPoint: "Anchor-5" 300 740 basechar 0
AnchorPoint: "Anchor-4" 300 0 basechar 0
LayerCount: 2
Fore
SplineSet
399 753 m 1xae
 511 740 l 1
 511 0 l 1
 412 0 l 1x76
 404 65 l 1
 369 15 318 -13 256 -13 c 0
 120 -13 57 98 57 264 c 0
 57 425 136 542 266 542 c 0
 321 542 365 522 399 484 c 1
 399 753 l 1xae
295 456 m 0
 220 456 176 396 176 264 c 0
 176 129 216 72 286 72 c 0
 336 72 373 106 399 148 c 1xae
 399 397 l 1
 373 434 338 456 295 456 c 0
EndSplineSet
EndChar

StartChar: eth
Encoding: 240 240 154
Width: 600
GlyphClass: 2
Flags: MW
HStem: -13 85<258 337 258 371.5> 398 83<259 302.5 213 320> 732 20G<141 141>
VStem: 57 114<182.5 293 182.5 309> 428 113<200 275>
LayerCount: 2
Fore
SplineSet
153 565 m 1
 225 641 l 1
 195 654 160 664 118 672 c 1
 141 752 l 1
 198 742 248 727 289 708 c 1
 360 782 l 1
 423 728 l 1
 364 668 l 1
 487 586 541 455 541 269 c 0
 541 102 448 -13 295 -13 c 0
 162 -13 57 76 57 235 c 0
 57 383 156 481 270 481 c 0
 335 481 381 459 419 419 c 1
 399 498 356 559 298 601 c 1
 228 529 l 1
 153 565 l 1
428 263 m 0
 428 287 427 309 426 331 c 1
 395 374 348 398 292 398 c 0
 226 398 171 348 171 238 c 0
 171 127 221 72 295 72 c 0
 379 72 428 137 428 263 c 0
EndSplineSet
EndChar

StartChar: dcaron
Encoding: 271 271 155
Width: 600
GlyphClass: 2
Flags: MW
HStem: -13 85<218 254> 0 21G<380 479 380 380> 456 86<225.5 261 168 284> 720 20G<479 479> 721 20G<643 643> 733 20G<367 367 544 544>
VStem: 25 118<196.5 330 196.5 344.5> 367 112<148 397 397 397 484 740 0 753 0 753>
AnchorPoint: "Anchor-5" 267 740 basechar 0
AnchorPoint: "Anchor-4" 267 0 basechar 0
LayerCount: 2
Fore
SplineSet
367 753 m 1xa7
 479 740 l 1
 479 0 l 1
 380 0 l 1x73
 372 65 l 1
 336 15 285 -13 223 -13 c 0
 88 -13 25 98 25 264 c 0
 25 425 103 542 233 542 c 0
 289 542 332 522 367 484 c 1
 367 753 l 1xa7
544 753 m 1xa7
 643 741 l 1xab
 581 543 l 1
 514 553 l 1
 544 753 l 1xa7
263 456 m 0
 188 456 143 396 143 264 c 0
 143 129 183 72 253 72 c 0
 304 72 340 106 367 148 c 1
 367 397 l 1
 340 434 305 456 263 456 c 0
EndSplineSet
EndChar

StartChar: dcroat
Encoding: 273 273 156
Width: 600
GlyphClass: 2
Flags: MW
HStem: -13 85<245.5 281.5> 0 21G<407 506 407 407> 456 86<252.5 288 195 311> 596 77<241 394 241 394 506 585> 720 20G<506 506> 733 20G<394 394>
VStem: 52 118<196.5 330 196.5 344.5> 394 112<148 397 397 397 484 596 0 596 673 740>
AnchorPoint: "Anchor-5" 294 740 basechar 0
AnchorPoint: "Anchor-4" 294 0 basechar 0
LayerCount: 2
Fore
SplineSet
585 673 m 1xb7
 585 596 l 1
 506 596 l 1
 506 0 l 1
 407 0 l 1x77
 399 65 l 1
 363 15 313 -13 250 -13 c 0
 115 -13 52 98 52 264 c 0
 52 425 130 542 260 542 c 0
 316 542 360 522 394 484 c 1
 394 596 l 1
 241 596 l 1
 241 673 l 1
 394 673 l 1
 394 753 l 1xb7
 506 740 l 1xbb
 506 673 l 1
 585 673 l 1xb7
394 148 m 1xb7
 394 397 l 1
 367 434 332 456 290 456 c 0
 215 456 170 396 170 264 c 0
 170 129 211 72 280 72 c 0
 331 72 367 106 394 148 c 1xb7
EndSplineSet
EndChar

StartChar: e
Encoding: 101 101 157
Width: 600
GlyphClass: 2
Flags: MW
HStem: -13 87<288 351.5 288 358> 228 76<182 182 182 426 181 532> 459 83<273 345.5>
VStem: 66 115<304 304 304 343> 426 109<304 304>
AnchorPoint: "Anchor-5" 309 528 basechar 0
AnchorPoint: "Anchor-4" 300 0 basechar 0
LayerCount: 2
Fore
SplineSet
182 228 m 1
 189 120 250 74 326 74 c 0
 377 74 420 90 465 120 c 1
 513 52 l 1
 464 12 395 -13 321 -13 c 0
 156 -13 66 99 66 264 c 0
 66 422 157 542 307 542 c 0
 447 542 535 442 535 278 c 0
 535 260 534 241 532 228 c 1
 182 228 l 1
308 459 m 0
 238 459 188 410 181 304 c 1
 426 304 l 1
 424 404 383 459 308 459 c 0
EndSplineSet
EndChar

StartChar: eacute
Encoding: 233 233 158
Width: 600
GlyphClass: 2
Flags: MW
HStem: -13 87<288 351.5 288 358> 228 76<182 182 182 426 181 532> 459 83<273 345.5>
VStem: 66 115<304 304 304 343> 426 109<304 304>
AnchorPoint: "Anchor-5" 309 528 basechar 0
AnchorPoint: "Anchor-4" 300 0 basechar 0
LayerCount: 2
Fore
SplineSet
390 811 m 1
 437 722 l 1
 218 633 l 1
 185 692 l 1
 390 811 l 1
182 228 m 1
 189 120 250 74 326 74 c 0
 377 74 420 90 465 120 c 1
 513 52 l 1
 464 12 395 -13 321 -13 c 0
 156 -13 66 99 66 264 c 0
 66 422 157 542 307 542 c 0
 447 542 535 442 535 278 c 0
 535 260 534 241 532 228 c 1
 182 228 l 1
308 459 m 0
 238 459 188 410 181 304 c 1
 426 304 l 1
 424 404 383 459 308 459 c 0
EndSplineSet
EndChar

StartChar: ebreve
Encoding: 277 277 159
Width: 600
GlyphClass: 2
Flags: MW
HStem: -13 87<288 351.5 288 358> 228 76<182 182 182 426 181 532> 459 83<273 345.5> 623 81<284.5 331.5 284.5 357>
VStem: 66 115<304 304 304 343> 426 109<304 304>
AnchorPoint: "Anchor-5" 309 528 basechar 0
AnchorPoint: "Anchor-4" 300 0 basechar 0
LayerCount: 2
Fore
SplineSet
308 623 m 0
 209 623 159 702 151 774 c 1
 220 787 l 1
 233 738 261 704 308 704 c 0
 355 704 384 738 398 787 c 1
 466 774 l 1
 458 702 406 623 308 623 c 0
182 228 m 1
 189 120 250 74 326 74 c 0
 377 74 420 90 465 120 c 1
 513 52 l 1
 464 12 395 -13 321 -13 c 0
 156 -13 66 99 66 264 c 0
 66 422 157 542 307 542 c 0
 447 542 535 442 535 278 c 0
 535 260 534 241 532 228 c 1
 182 228 l 1
308 459 m 0
 238 459 188 410 181 304 c 1
 426 304 l 1
 424 404 383 459 308 459 c 0
EndSplineSet
EndChar

StartChar: ecaron
Encoding: 283 283 160
Width: 600
GlyphClass: 2
Flags: MW
HStem: -13 87<288 351.5 288 358> 228 76<182 182 182 426 181 532> 459 83<273 345.5> 729 20G<136 136 482 482>
VStem: 66 115<304 304 304 343> 426 109<304 304>
AnchorPoint: "Anchor-5" 309 528 basechar 0
AnchorPoint: "Anchor-4" 300 0 basechar 0
LayerCount: 2
Fore
SplineSet
437 799 m 1
 482 749 l 1
 345 622 l 1
 273 622 l 1
 136 749 l 1
 182 799 l 1
 310 707 l 1
 437 799 l 1
182 228 m 1
 189 120 250 74 326 74 c 0
 377 74 420 90 465 120 c 1
 513 52 l 1
 464 12 395 -13 321 -13 c 0
 156 -13 66 99 66 264 c 0
 66 422 157 542 307 542 c 0
 447 542 535 442 535 278 c 0
 535 260 534 241 532 228 c 1
 182 228 l 1
308 459 m 0
 238 459 188 410 181 304 c 1
 426 304 l 1
 424 404 383 459 308 459 c 0
EndSplineSet
EndChar

StartChar: ecircumflex
Encoding: 234 234 161
Width: 600
GlyphClass: 2
Flags: MW
HStem: -13 87<288 351.5 288 358> 228 76<182 182 182 426 181 532> 459 83<273 345.5>
VStem: 66 115<304 304 304 343> 426 109<304 304>
AnchorPoint: "Anchor-5" 309 528 basechar 0
AnchorPoint: "Anchor-4" 300 0 basechar 0
LayerCount: 2
Fore
SplineSet
182 622 m 1
 136 672 l 1
 273 799 l 1
 345 799 l 1
 482 672 l 1
 437 622 l 1
 310 714 l 1
 182 622 l 1
182 228 m 1
 189 120 250 74 326 74 c 0
 377 74 420 90 465 120 c 1
 513 52 l 1
 464 12 395 -13 321 -13 c 0
 156 -13 66 99 66 264 c 0
 66 422 157 542 307 542 c 0
 447 542 535 442 535 278 c 0
 535 260 534 241 532 228 c 1
 182 228 l 1
308 459 m 0
 238 459 188 410 181 304 c 1
 426 304 l 1
 424 404 383 459 308 459 c 0
EndSplineSet
EndChar

StartChar: edieresis
Encoding: 235 235 162
Width: 600
GlyphClass: 2
Flags: MW
HStem: -13 87<288 351.5 288 358> 228 76<182 182 182 426 181 532> 459 83<273 345.5> 644 127<182.5 219 399 435.5>
VStem: 66 115<304 304 304 343> 135 130<689 725.5> 352 130<689 725.5> 426 109<304 304>
AnchorPoint: "Anchor-5" 309 707 basechar 0
AnchorPoint: "Anchor-4" 300 0 basechar 0
LayerCount: 2
Fore
SplineSet
201 644 m 0xf6
 164 644 135 671 135 707 c 0
 135 744 164 771 201 771 c 0
 237 771 265 744 265 707 c 0
 265 671 237 644 201 644 c 0xf6
417 644 m 0
 381 644 352 671 352 707 c 0
 352 744 381 771 417 771 c 0
 454 771 482 744 482 707 c 0
 482 671 454 644 417 644 c 0
182 228 m 1xe9
 189 120 250 74 326 74 c 0
 377 74 420 90 465 120 c 1
 513 52 l 1
 464 12 395 -13 321 -13 c 0
 156 -13 66 99 66 264 c 0
 66 422 157 542 307 542 c 0
 447 542 535 442 535 278 c 0
 535 260 534 241 532 228 c 1
 182 228 l 1xe9
308 459 m 0
 238 459 188 410 181 304 c 1
 426 304 l 1
 424 404 383 459 308 459 c 0
EndSplineSet
EndChar

StartChar: edotaccent
Encoding: 279 279 163
Width: 600
GlyphClass: 2
Flags: MW
HStem: -13 87<288 351.5 288 358> 228 76<182 182 182 426 181 532> 459 83<273 345.5> 646 141<286.5 330>
VStem: 66 115<304 304 304 343> 235 147<696 736> 426 109<304 304>
AnchorPoint: "Anchor-5" 309 528 basechar 0
AnchorPoint: "Anchor-4" 300 0 basechar 0
LayerCount: 2
Fore
SplineSet
308 787 m 0
 352 787 382 756 382 716 c 0
 382 676 352 646 308 646 c 0
 265 646 235 676 235 716 c 0
 235 756 265 787 308 787 c 0
182 228 m 1
 189 120 250 74 326 74 c 0
 377 74 420 90 465 120 c 1
 513 52 l 1
 464 12 395 -13 321 -13 c 0
 156 -13 66 99 66 264 c 0
 66 422 157 542 307 542 c 0
 447 542 535 442 535 278 c 0
 535 260 534 241 532 228 c 1
 182 228 l 1
308 459 m 0
 238 459 188 410 181 304 c 1
 426 304 l 1
 424 404 383 459 308 459 c 0
EndSplineSet
EndChar

StartChar: egrave
Encoding: 232 232 164
Width: 600
GlyphClass: 2
Flags: MW
HStem: -13 87<288 351.5 288 358> 228 76<182 182 182 426 181 532> 459 83<273 345.5>
VStem: 66 115<304 304 304 343> 426 109<304 304>
AnchorPoint: "Anchor-5" 309 528 basechar 0
AnchorPoint: "Anchor-4" 300 0 basechar 0
LayerCount: 2
Fore
SplineSet
400 622 m 1
 185 715 l 1
 237 805 l 1
 434 681 l 1
 400 622 l 1
182 228 m 1
 189 120 250 74 326 74 c 0
 377 74 420 90 465 120 c 1
 513 52 l 1
 464 12 395 -13 321 -13 c 0
 156 -13 66 99 66 264 c 0
 66 422 157 542 307 542 c 0
 447 542 535 442 535 278 c 0
 535 260 534 241 532 228 c 1
 182 228 l 1
308 459 m 0
 238 459 188 410 181 304 c 1
 426 304 l 1
 424 404 383 459 308 459 c 0
EndSplineSet
EndChar

StartChar: emacron
Encoding: 275 275 165
Width: 600
GlyphClass: 2
Flags: MW
HStem: -13 87<288 351.5 288 358> 228 76<182 182 182 426 181 532> 459 83<273 345.5> 669 81<167 450 167 450>
VStem: 66 115<304 304 304 343> 167 283<669 750 669 750> 426 109<304 304>
AnchorPoint: "Anchor-5" 309 528 basechar 0
AnchorPoint: "Anchor-4" 300 0 basechar 0
LayerCount: 2
Fore
SplineSet
450 669 m 1xf4
 167 669 l 1
 167 750 l 1
 450 750 l 1
 450 669 l 1xf4
182 228 m 1xfa
 189 120 250 74 326 74 c 0
 377 74 420 90 465 120 c 1
 513 52 l 1
 464 12 395 -13 321 -13 c 0
 156 -13 66 99 66 264 c 0
 66 422 157 542 307 542 c 0
 447 542 535 442 535 278 c 0
 535 260 534 241 532 228 c 1
 182 228 l 1xfa
308 459 m 0
 238 459 188 410 181 304 c 1
 426 304 l 1
 424 404 383 459 308 459 c 0
EndSplineSet
EndChar

StartChar: eogonek
Encoding: 281 281 166
Width: 600
GlyphClass: 2
Flags: MW
HStem: -238 77<328.5 348> -12 21G 228 76<182 426 181 532 182 182> 459 83<273 345.5>
VStem: 66 115<304 304 304 343> 202 90<-128.5 -105.5> 426 109<304 304>
AnchorPoint: "Anchor-5" 309 528 basechar 0
AnchorPoint: "Anchor-4" 300 0 basechar 0
LayerCount: 2
Fore
SplineSet
535 278 m 0
 535 260 534 241 532 228 c 1
 182 228 l 1xfa
 189 120 250 74 326 74 c 0
 377 74 420 90 465 120 c 1
 513 52 l 1
 484 29 449 11 410 -1 c 0
 313 -41 292 -75 292 -113 c 0
 292 -144 309 -161 348 -161 c 0
 369 -161 385 -159 407 -154 c 1
 397 -231 l 1
 378 -235 361 -238 335 -238 c 0
 256 -238 202 -195 202 -131 c 0xfe
 202 -80 233 -40 289 -12 c 1
 145 2 66 110 66 264 c 0
 66 422 157 542 307 542 c 0
 447 542 535 442 535 278 c 0
181 304 m 1
 426 304 l 1
 424 404 383 459 308 459 c 0
 238 459 188 410 181 304 c 1
EndSplineSet
EndChar

StartChar: f
Encoding: 102 102 167
Width: 600
GlyphClass: 2
Flags: MW
HStem: 0 21G<207 319 207 207> 407 83<87 207 87 207 319 483> 666 87<386.5 440.5>
VStem: 207 112<0 407 0 407 490 584>
AnchorPoint: "Anchor-5" 370 740 basechar 0
AnchorPoint: "Anchor-4" 263 0 basechar 0
LayerCount: 2
Fore
SplineSet
410 753 m 0
 475 753 524 741 568 722 c 1
 534 644 l 1
 499 659 460 666 421 666 c 0
 352 666 319 640 319 584 c 2
 319 490 l 1
 496 490 l 1
 483 407 l 1
 319 407 l 1
 319 0 l 1
 207 0 l 1
 207 407 l 1
 87 407 l 1
 87 490 l 1
 207 490 l 1
 207 585 l 2
 207 685 288 753 410 753 c 0
EndSplineSet
EndChar

StartChar: g
Encoding: 103 103 168
Width: 600
GlyphClass: 2
Flags: MW
HStem: -216 82<233.5 344 233.5 373.5> 10 87<196 359 267 337> 172 73<282 325.5 256 362> 464 78<255 290 225 325.5> 485 57
VStem: 53 100<-80 -52 -80 -52> 70 114<322 387.5 322 410.5> 102 100<126.5 129.5> 394 112<321 382 298.5 392.5> 439 113<-81.5 -35.5>
AnchorPoint: "Anchor-5" 296 528 basechar 0
AnchorPoint: "Anchor-4" 0 0 basechar 0
LayerCount: 2
Fore
SplineSet
534 595 m 1xf280
 563 502 l 1
 522 488 472 485 410 485 c 1
 473 456 506 414 506 350 c 0
 506 247 427 172 297 172 c 0
 267 172 246 174 225 181 c 1
 211 171 202 154 202 137 c 0
 202 116 214 97 267 97 c 2xe980
 359 97 l 2
 472 97 552 35 552 -50 c 0
 552 -155 459 -216 288 -216 c 0
 106 -216 53 -159 53 -52 c 1
 153 -52 l 1xf440
 153 -108 178 -134 289 -134 c 0
 399 -134 439 -106 439 -57 c 0
 439 -14 399 10 337 10 c 2
 246 10 l 2
 146 10 102 57 102 112 c 0xf140
 102 147 122 182 160 207 c 1
 97 240 70 286 70 355 c 0
 70 466 160 542 290 542 c 0
 417 541 471 564 534 595 c 1xf280
291 464 m 0xf280
 219 464 184 420 184 355 c 0
 184 289 220 245 292 245 c 0
 359 245 394 285 394 357 c 0
 394 428 360 464 291 464 c 0xf280
EndSplineSet
EndChar

StartChar: gbreve
Encoding: 287 287 169
Width: 600
GlyphClass: 2
Flags: MW
HStem: -216 82<233.5 344 233.5 373.5> 10 87<196 359 267 337> 172 73<282 325.5 256 362> 464 78<255 290 225 325.5> 485 57 623 81<271.5 318.5 271.5 344>
VStem: 53 100<-80 -52 -80 -52> 70 114<322 387.5 322 410.5> 102 100<126.5 129.5> 394 112<321 382 298.5 392.5> 439 113<-81.5 -35.5>
AnchorPoint: "Anchor-5" 296 528 basechar 0
AnchorPoint: "Anchor-4" 0 0 basechar 0
LayerCount: 2
Fore
SplineSet
295 623 m 0xf540
 196 623 146 702 138 774 c 1
 207 787 l 1
 220 738 248 704 295 704 c 0
 342 704 371 738 385 787 c 1
 453 774 l 1
 445 702 393 623 295 623 c 0xf540
534 595 m 1
 563 502 l 1
 522 488 472 485 410 485 c 1
 473 456 506 414 506 350 c 0
 506 247 427 172 297 172 c 0
 267 172 246 174 225 181 c 1
 211 171 202 154 202 137 c 0
 202 116 214 97 267 97 c 2xecc0
 359 97 l 2
 472 97 552 35 552 -50 c 0
 552 -155 459 -216 288 -216 c 0
 106 -216 53 -159 53 -52 c 1
 153 -52 l 1xf620
 153 -108 178 -134 289 -134 c 0
 399 -134 439 -106 439 -57 c 0
 439 -14 399 10 337 10 c 2
 246 10 l 2
 146 10 102 57 102 112 c 0xf4a0
 102 147 122 182 160 207 c 1
 97 240 70 286 70 355 c 0
 70 466 160 542 290 542 c 0
 417 541 471 564 534 595 c 1
291 464 m 0xf540
 219 464 184 420 184 355 c 0
 184 289 220 245 292 245 c 0
 359 245 394 285 394 357 c 0
 394 428 360 464 291 464 c 0xf540
EndSplineSet
EndChar

StartChar: gcircumflex
Encoding: 285 285 170
Width: 600
GlyphClass: 2
Flags: MW
HStem: -216 82<233.5 344 233.5 373.5> 10 87<196 359 267 337> 172 73<282 325.5 256 362> 464 78<255 290 225 325.5> 485 57
VStem: 53 100<-80 -52 -80 -52> 70 114<322 387.5 322 410.5> 102 100<126.5 129.5> 394 112<321 382 298.5 392.5> 439 113<-81.5 -35.5>
AnchorPoint: "Anchor-5" 296 528 basechar 0
AnchorPoint: "Anchor-4" 0 0 basechar 0
LayerCount: 2
Fore
SplineSet
169 622 m 1xf280
 123 672 l 1
 260 799 l 1
 332 799 l 1
 469 672 l 1
 424 622 l 1
 297 714 l 1
 169 622 l 1xf280
534 595 m 1
 563 502 l 1
 522 488 472 485 410 485 c 1
 473 456 506 414 506 350 c 0
 506 247 427 172 297 172 c 0
 267 172 246 174 225 181 c 1
 211 171 202 154 202 137 c 0
 202 116 214 97 267 97 c 2xe980
 359 97 l 2
 472 97 552 35 552 -50 c 0
 552 -155 459 -216 288 -216 c 0
 106 -216 53 -159 53 -52 c 1
 153 -52 l 1xf440
 153 -108 178 -134 289 -134 c 0
 399 -134 439 -106 439 -57 c 0
 439 -14 399 10 337 10 c 2
 246 10 l 2
 146 10 102 57 102 112 c 0xf140
 102 147 122 182 160 207 c 1
 97 240 70 286 70 355 c 0
 70 466 160 542 290 542 c 0
 417 541 471 564 534 595 c 1
291 464 m 0xf280
 219 464 184 420 184 355 c 0
 184 289 220 245 292 245 c 0
 359 245 394 285 394 357 c 0
 394 428 360 464 291 464 c 0xf280
EndSplineSet
EndChar

StartChar: gcommaaccent
Encoding: 291 291 171
Width: 600
GlyphClass: 2
Flags: MW
HStem: -216 82<233.5 344 233.5 373.5> 10 87<196 359 267 337> 172 73<282 325.5 256 362> 464 78<255 290 225 325.5> 485 57
VStem: 53 100<-80 -52 -80 -52> 70 114<322 387.5 322 410.5> 102 100<126.5 129.5> 230 127<641.5 669> 394 112<321 382 298.5 392.5> 439 113<-81.5 -35.5>
AnchorPoint: "Anchor-5" 296 528 basechar 0
AnchorPoint: "Anchor-4" 0 0 basechar 0
LayerCount: 2
Fore
SplineSet
294 597 m 0xf2c0
 258 597 230 623 230 659 c 0
 230 679 236 699 248 724 c 2
 298 828 l 1
 360 828 l 1
 331 711 l 1
 347 699 357 681 357 659 c 0
 357 624 330 597 294 597 c 0xf2c0
534 595 m 1
 563 502 l 1
 522 488 472 485 410 485 c 1
 473 456 506 414 506 350 c 0
 506 247 427 172 297 172 c 0
 267 172 246 174 225 181 c 1
 211 171 202 154 202 137 c 0
 202 116 214 97 267 97 c 2xe9c0
 359 97 l 2
 472 97 552 35 552 -50 c 0
 552 -155 459 -216 288 -216 c 0
 106 -216 53 -159 53 -52 c 1
 153 -52 l 1xf4a0
 153 -108 178 -134 289 -134 c 0
 399 -134 439 -106 439 -57 c 0
 439 -14 399 10 337 10 c 2
 246 10 l 2
 146 10 102 57 102 112 c 0xf1a0
 102 147 122 182 160 207 c 1
 97 240 70 286 70 355 c 0
 70 466 160 542 290 542 c 0
 417 541 471 564 534 595 c 1
291 464 m 0xf2c0
 219 464 184 420 184 355 c 0
 184 289 220 245 292 245 c 0
 359 245 394 285 394 357 c 0
 394 428 360 464 291 464 c 0xf2c0
EndSplineSet
EndChar

StartChar: gdotaccent
Encoding: 289 289 172
Width: 600
GlyphClass: 2
Flags: MW
HStem: -216 82<233.5 344 233.5 373.5> 10 87<196 359 267 337> 172 73<282 325.5 256 362> 464 78<255 290 225 325.5> 485 57 646 141<273.5 317>
VStem: 53 100<-80 -52 -80 -52> 70 114<322 387.5 322 410.5> 102 100<126.5 129.5> 222 147<696 736> 394 112<321 382 298.5 392.5> 439 113<-81.5 -35.5>
AnchorPoint: "Anchor-5" 296 528 basechar 0
AnchorPoint: "Anchor-4" 0 0 basechar 0
LayerCount: 2
Fore
SplineSet
295 787 m 0xf560
 339 787 369 756 369 716 c 0
 369 676 339 646 295 646 c 0
 252 646 222 676 222 716 c 0
 222 756 252 787 295 787 c 0xf560
534 595 m 1
 563 502 l 1
 522 488 472 485 410 485 c 1
 473 456 506 414 506 350 c 0
 506 247 427 172 297 172 c 0
 267 172 246 174 225 181 c 1
 211 171 202 154 202 137 c 0
 202 116 214 97 267 97 c 2xe8a0
 359 97 l 2
 472 97 552 35 552 -50 c 0
 552 -155 459 -216 288 -216 c 0
 106 -216 53 -159 53 -52 c 1
 153 -52 l 1xf210
 153 -108 178 -134 289 -134 c 0
 399 -134 439 -106 439 -57 c 0
 439 -14 399 10 337 10 c 2
 246 10 l 2
 146 10 102 57 102 112 c 0xf090
 102 147 122 182 160 207 c 1
 97 240 70 286 70 355 c 0
 70 466 160 542 290 542 c 0
 417 541 471 564 534 595 c 1
291 464 m 0xf120
 219 464 184 420 184 355 c 0
 184 289 220 245 292 245 c 0
 359 245 394 285 394 357 c 0
 394 428 360 464 291 464 c 0xf120
EndSplineSet
EndChar

StartChar: h
Encoding: 104 104 173
Width: 600
GlyphClass: 2
Flags: MW
HStem: 0 21G<89 201 89 89 400 512 400 400> 456 86<334 350.5> 731 20G<201 201>
VStem: 89 112<0 378 463 739 739 739> 400 112<0 368 368 385 0 399.5>
AnchorPoint: "Anchor-5" 300 740 basechar 0
AnchorPoint: "Anchor-4" 300 0 basechar 0
LayerCount: 2
Fore
SplineSet
201 751 m 1
 201 463 l 1
 244 515 303 542 365 542 c 0
 464 542 512 484 512 385 c 2
 512 0 l 1
 400 0 l 1
 400 368 l 2
 400 431 377 456 324 456 c 0
 274 456 229 418 201 378 c 1
 201 0 l 1
 89 0 l 1
 89 739 l 1
 201 751 l 1
EndSplineSet
EndChar

StartChar: hbar
Encoding: 295 295 174
Width: 600
GlyphClass: 2
Flags: MW
HStem: 0 21G<89 201 89 89 400 512 400 400> 456 86<334 350.5> 596 77<15 89 15 89 201 359> 731 20G<201 201>
VStem: 89 112<0 378 0 463 463 596 673 739 739 739> 400 112<0 368 368 385 0 399.5>
AnchorPoint: "Anchor-5" 300 740 basechar 0
AnchorPoint: "Anchor-4" 300 0 basechar 0
LayerCount: 2
Fore
SplineSet
365 542 m 0
 464 542 512 484 512 385 c 2
 512 0 l 1
 400 0 l 1
 400 368 l 2
 400 431 377 456 324 456 c 0
 274 456 229 418 201 378 c 1
 201 0 l 1
 89 0 l 1
 89 596 l 1
 15 596 l 1
 15 673 l 1
 89 673 l 1
 89 739 l 1
 201 751 l 1
 201 673 l 1
 359 673 l 1
 359 596 l 1
 201 596 l 1
 201 463 l 1
 244 515 303 542 365 542 c 0
EndSplineSet
EndChar

StartChar: hcircumflex
Encoding: 293 293 175
Width: 600
GlyphClass: 2
Flags: MW
HStem: 0 21G<89 201 89 89 400 512 400 400> 456 86<334 350.5> 731 20G<201 201>
VStem: 89 112<0 378 463 739 739 739> 400 112<0 368 368 385 0 399.5>
AnchorPoint: "Anchor-5" 300 740 basechar 0
AnchorPoint: "Anchor-4" 300 0 basechar 0
LayerCount: 2
Fore
SplineSet
336 973 m 1
 473 857 l 1
 429 806 l 1
 300 888 l 1
 172 806 l 1
 127 857 l 1
 264 973 l 1
 336 973 l 1
201 751 m 1
 201 463 l 1
 244 515 303 542 365 542 c 0
 464 542 512 484 512 385 c 2
 512 0 l 1
 400 0 l 1
 400 368 l 2
 400 431 377 456 324 456 c 0
 274 456 229 418 201 378 c 1
 201 0 l 1
 89 0 l 1
 89 739 l 1
 201 751 l 1
EndSplineSet
EndChar

StartChar: i
Encoding: 105 105 176
Width: 600
GlyphClass: 2
Flags: MW
HStem: 0 82<108 265 377 521 108 265> 446 82<113 265 113 377> 646 141<278 321.5>
VStem: 227 146<696 736> 265 112<82 446 446 446>
AnchorPoint: "Anchor-5" 0 0 basechar 0
AnchorPoint: "Anchor-4" 300 0 basechar 0
LayerCount: 2
Fore
SplineSet
300 787 m 0xf0
 343 787 373 756 373 716 c 0
 373 676 343 646 300 646 c 0
 256 646 227 676 227 716 c 0
 227 756 256 787 300 787 c 0xf0
377 528 m 1xc8
 377 82 l 1
 521 82 l 1
 521 0 l 1
 108 0 l 1
 108 82 l 1
 265 82 l 1
 265 446 l 1
 113 446 l 1
 113 528 l 1
 377 528 l 1xc8
EndSplineSet
Substitution2: "'locl' Localized Forms in Latin lookup 10 subtable" i.loclTRK
Substitution2: "'locl' Localized Forms in Latin lookup 8 subtable" i.loclTRK
Substitution2: "'locl' Localized Forms in Latin lookup 6 subtable" i.loclTRK
Substitution2: "'locl' Localized Forms in Latin lookup 3 subtable" i.loclTRK
Substitution2: "'locl' Localized Forms in Latin lookup 2 subtable" i.loclTRK
Substitution2: "'aalt' Access All Alternates in Latin lookup 0 subtable" i.loclTRK
EndChar

StartChar: dotlessi
Encoding: 305 305 177
Width: 600
GlyphClass: 2
Flags: MW
HStem: 0 82<108 265 377 521 108 265> 446 82<113 265 113 377>
VStem: 265 112<82 446 446 446>
AnchorPoint: "Anchor-5" 300 528 basechar 0
AnchorPoint: "Anchor-4" 0 0 basechar 0
LayerCount: 2
Fore
SplineSet
377 528 m 1
 377 82 l 1
 521 82 l 1
 521 0 l 1
 108 0 l 1
 108 82 l 1
 265 82 l 1
 265 446 l 1
 113 446 l 1
 113 528 l 1
 377 528 l 1
EndSplineSet
EndChar

StartChar: iacute
Encoding: 237 237 178
Width: 600
GlyphClass: 2
Flags: MW
HStem: 0 82<108 265 377 521 108 265> 446 82<113 265 113 377>
VStem: 265 112<82 446 446 446>
AnchorPoint: "Anchor-5" 300 528 basechar 0
AnchorPoint: "Anchor-4" 0 0 basechar 0
LayerCount: 2
Fore
SplineSet
381 811 m 1
 428 722 l 1
 209 633 l 1
 176 692 l 1
 381 811 l 1
377 528 m 1
 377 82 l 1
 521 82 l 1
 521 0 l 1
 108 0 l 1
 108 82 l 1
 265 82 l 1
 265 446 l 1
 113 446 l 1
 113 528 l 1
 377 528 l 1
EndSplineSet
EndChar

StartChar: ibreve
Encoding: 301 301 179
Width: 600
GlyphClass: 2
Flags: MW
HStem: 0 82<108 265 377 521 108 265> 446 82<113 265 113 377> 623 81<275.5 322.5 275.5 348>
VStem: 265 112<82 446 446 446>
AnchorPoint: "Anchor-5" 300 528 basechar 0
AnchorPoint: "Anchor-4" 0 0 basechar 0
LayerCount: 2
Fore
SplineSet
299 623 m 0
 200 623 150 702 142 774 c 1
 211 787 l 1
 224 738 252 704 299 704 c 0
 346 704 375 738 389 787 c 1
 457 774 l 1
 449 702 397 623 299 623 c 0
377 528 m 1
 377 82 l 1
 521 82 l 1
 521 0 l 1
 108 0 l 1
 108 82 l 1
 265 82 l 1
 265 446 l 1
 113 446 l 1
 113 528 l 1
 377 528 l 1
EndSplineSet
EndChar

StartChar: icircumflex
Encoding: 238 238 180
Width: 600
GlyphClass: 2
Flags: MW
HStem: 0 82<108 265 377 521 108 265> 446 82<113 265 113 377>
VStem: 265 112<82 446 446 446>
AnchorPoint: "Anchor-5" 300 528 basechar 0
AnchorPoint: "Anchor-4" 0 0 basechar 0
LayerCount: 2
Fore
SplineSet
173 622 m 1
 127 672 l 1
 264 799 l 1
 336 799 l 1
 473 672 l 1
 428 622 l 1
 301 714 l 1
 173 622 l 1
377 528 m 1
 377 82 l 1
 521 82 l 1
 521 0 l 1
 108 0 l 1
 108 82 l 1
 265 82 l 1
 265 446 l 1
 113 446 l 1
 113 528 l 1
 377 528 l 1
EndSplineSet
EndChar

StartChar: idieresis
Encoding: 239 239 181
Width: 600
GlyphClass: 2
Flags: MW
HStem: 0 82<108 265 377 521 108 265> 446 82<113 265 113 377> 644 127<173.5 210 390 426.5>
VStem: 126 130<689 725.5> 265 112<82 446 446 446> 343 130<689 725.5>
AnchorPoint: "Anchor-5" 300 707 basechar 0
AnchorPoint: "Anchor-4" 0 0 basechar 0
LayerCount: 2
Fore
SplineSet
192 644 m 0xf4
 155 644 126 671 126 707 c 0
 126 744 155 771 192 771 c 0
 228 771 256 744 256 707 c 0
 256 671 228 644 192 644 c 0xf4
408 644 m 0
 372 644 343 671 343 707 c 0
 343 744 372 771 408 771 c 0
 445 771 473 744 473 707 c 0
 473 671 445 644 408 644 c 0
377 528 m 1xc8
 377 82 l 1
 521 82 l 1
 521 0 l 1
 108 0 l 1
 108 82 l 1
 265 82 l 1
 265 446 l 1
 113 446 l 1
 113 528 l 1
 377 528 l 1xc8
EndSplineSet
EndChar

StartChar: i.loclTRK
Encoding: 1114118 -1 182
Width: 600
GlyphClass: 2
Flags: MW
HStem: 0 82<108 265 377 521 108 265> 446 82<113 265 113 377> 646 141<277.5 321>
VStem: 226 147<696 736> 265 112<82 446 446 446>
AnchorPoint: "Anchor-5" 300 528 basechar 0
AnchorPoint: "Anchor-4" 0 0 basechar 0
LayerCount: 2
Fore
SplineSet
299 787 m 0xf0
 343 787 373 756 373 716 c 0
 373 676 343 646 299 646 c 0
 256 646 226 676 226 716 c 0
 226 756 256 787 299 787 c 0xf0
377 528 m 1xc8
 377 82 l 1
 521 82 l 1
 521 0 l 1
 108 0 l 1
 108 82 l 1
 265 82 l 1
 265 446 l 1
 113 446 l 1
 113 528 l 1
 377 528 l 1xc8
EndSplineSet
EndChar

StartChar: igrave
Encoding: 236 236 183
Width: 600
GlyphClass: 2
Flags: MW
HStem: 0 82<108 265 377 521 108 265> 446 82<113 265 113 377>
VStem: 265 112<82 446 446 446>
AnchorPoint: "Anchor-5" 300 528 basechar 0
AnchorPoint: "Anchor-4" 0 0 basechar 0
LayerCount: 2
Fore
SplineSet
391 622 m 1
 176 715 l 1
 228 805 l 1
 425 681 l 1
 391 622 l 1
377 528 m 1
 377 82 l 1
 521 82 l 1
 521 0 l 1
 108 0 l 1
 108 82 l 1
 265 82 l 1
 265 446 l 1
 113 446 l 1
 113 528 l 1
 377 528 l 1
EndSplineSet
EndChar

StartChar: ij
Encoding: 307 307 184
Width: 600
GlyphClass: 2
Flags: MW
HStem: -216 21G<245 245> 0 82<43 128 237 316 43 128> 448 80<48 128 48 517 237 407 237 237> 646 141<161.5 205 429.5 472.5>
VStem: 111 147<696 736> 128 109<82 448 82 448> 378 147<696 736> 407 110<72 80 80 448 448 448>
LayerCount: 2
Fore
SplineSet
183 787 m 0xfa
 227 787 258 756 258 716 c 0
 258 676 227 646 183 646 c 0
 140 646 111 676 111 716 c 0
 111 756 140 787 183 787 c 0xfa
451 787 m 0
 494 787 525 756 525 716 c 0
 525 676 494 646 451 646 c 0
 408 646 378 676 378 716 c 0
 378 756 408 787 451 787 c 0
517 528 m 1xf5
 517 80 l 2
 517 -89 405 -165 245 -216 c 1
 210 -131 l 1
 318 -93 407 -47 407 72 c 2
 407 448 l 1
 237 448 l 1
 237 82 l 1
 316 82 l 1
 316 0 l 1
 43 0 l 1
 43 82 l 1
 128 82 l 1
 128 448 l 1
 48 448 l 1
 48 528 l 1
 517 528 l 1xf5
EndSplineSet
EndChar

StartChar: imacron
Encoding: 299 299 185
Width: 600
GlyphClass: 2
Flags: MW
HStem: 0 82<108 265 377 521 108 265> 446 82<113 265 113 377> 669 81<158 441 158 441>
VStem: 158 283<669 750 669 750> 265 112<82 446 446 446>
AnchorPoint: "Anchor-5" 300 528 basechar 0
AnchorPoint: "Anchor-4" 0 0 basechar 0
LayerCount: 2
Fore
SplineSet
441 669 m 1xf0
 158 669 l 1
 158 750 l 1
 441 750 l 1
 441 669 l 1xf0
377 528 m 1xe8
 377 82 l 1
 521 82 l 1
 521 0 l 1
 108 0 l 1
 108 82 l 1
 265 82 l 1
 265 446 l 1
 113 446 l 1
 113 528 l 1
 377 528 l 1xe8
EndSplineSet
EndChar

StartChar: iogonek
Encoding: 303 303 186
Width: 600
GlyphClass: 2
Flags: MW
HStem: -238 77<293.5 313> 0 82<108 262 108 265 377 521> 446 82<113 265 113 377> 646 141<277.5 321>
VStem: 167 90<-128.5 -102> 226 147<696 736> 265 112<82 446 446 446>
AnchorPoint: "Anchor-5" 300 528 basechar 0
AnchorPoint: "Anchor-4" 0 0 basechar 0
LayerCount: 2
Fore
SplineSet
299 646 m 0x74
 256 646 226 676 226 716 c 0
 226 756 256 787 299 787 c 0
 343 787 373 756 373 716 c 0
 373 676 343 646 299 646 c 0x74
377 82 m 1x62
 521 82 l 1
 521 0 l 1
 377 0 l 1
 278 -40 257 -75 257 -113 c 0
 257 -144 274 -161 313 -161 c 0
 334 -161 350 -159 372 -154 c 1
 362 -231 l 1
 343 -235 326 -238 300 -238 c 0
 221 -238 167 -195 167 -131 c 0
 167 -73 200 -32 262 0 c 1
 108 0 l 1
 108 82 l 1xea
 265 82 l 1
 265 446 l 1
 113 446 l 1
 113 528 l 1
 377 528 l 1
 377 82 l 1x62
EndSplineSet
EndChar

StartChar: itilde
Encoding: 297 297 187
Width: 600
GlyphClass: 2
Flags: MW
HStem: 0 82<108 265 377 521 108 265> 446 82<113 265 113 377> 650 82<339 367.5 339 382> 697 83<230 259.5> 725 20G<473 473>
VStem: 265 112<82 446 446 446>
AnchorPoint: "Anchor-5" 300 528 basechar 0
AnchorPoint: "Anchor-4" 0 0 basechar 0
LayerCount: 2
Fore
SplineSet
357 650 m 0xe4
 303 650 277 697 242 697 c 0
 218 697 205 681 189 651 c 1
 126 682 l 1
 150 736 188 780 241 780 c 0xd4
 299 780 321 732 357 732 c 0
 378 732 392 746 410 776 c 1xe4
 473 745 l 1xcc
 447 685 407 650 357 650 c 0xe4
377 528 m 1xcc
 377 82 l 1
 521 82 l 1
 521 0 l 1
 108 0 l 1
 108 82 l 1
 265 82 l 1
 265 446 l 1
 113 446 l 1
 113 528 l 1
 377 528 l 1xcc
EndSplineSet
EndChar

StartChar: j
Encoding: 106 106 188
Width: 600
GlyphClass: 2
Flags: MW
HStem: -216 21G<104 104> 446 82<135 343 135 455> 646 141<346.5 390>
VStem: 295 146<696 736> 343 112<104 111 111 446 446 446>
AnchorPoint: "Anchor-5" 369 528 basechar 0
AnchorPoint: "Anchor-4" 0 0 basechar 0
LayerCount: 2
Fore
SplineSet
368 787 m 0xf0
 412 787 441 756 441 716 c 0
 441 676 412 646 368 646 c 0
 325 646 295 676 295 716 c 0
 295 756 325 787 368 787 c 0xf0
455 528 m 1xe8
 455 111 l 2
 455 -86 330 -175 104 -216 c 1
 86 -130 l 1
 243 -100 343 -43 343 104 c 2
 343 446 l 1
 135 446 l 1
 135 528 l 1
 455 528 l 1xe8
EndSplineSet
EndChar

StartChar: uni0237
Encoding: 567 567 189
Width: 600
GlyphClass: 2
Flags: MW
HStem: -216 21G<104 104> 446 82<135 343 135 455>
VStem: 343 112<104 111 111 446 446 446>
AnchorPoint: "Anchor-5" 369 528 basechar 0
AnchorPoint: "Anchor-4" 0 0 basechar 0
LayerCount: 2
Fore
SplineSet
455 528 m 1
 455 111 l 2
 455 -86 330 -175 104 -216 c 1
 86 -130 l 1
 243 -100 343 -43 343 104 c 2
 343 446 l 1
 135 446 l 1
 135 528 l 1
 455 528 l 1
EndSplineSet
EndChar

StartChar: jcircumflex
Encoding: 309 309 190
Width: 600
GlyphClass: 2
Flags: MW
HStem: -216 21G<104 104> 446 82<135 343 135 455>
VStem: 343 112<104 111 111 446 446 446>
AnchorPoint: "Anchor-5" 369 528 basechar 0
AnchorPoint: "Anchor-4" 0 0 basechar 0
LayerCount: 2
Fore
SplineSet
242 622 m 1
 196 672 l 1
 333 799 l 1
 405 799 l 1
 542 672 l 1
 497 622 l 1
 370 714 l 1
 242 622 l 1
455 528 m 1
 455 111 l 2
 455 -86 330 -175 104 -216 c 1
 86 -130 l 1
 243 -100 343 -43 343 104 c 2
 343 446 l 1
 135 446 l 1
 135 528 l 1
 455 528 l 1
EndSplineSet
EndChar

StartChar: k
Encoding: 107 107 191
Width: 600
GlyphClass: 2
Flags: MW
HStem: 0 21G<92 204 92 92 439 439 439 576> 508 20G<424 554 554 554> 720 20G<92 92> 733 20G<204 204>
VStem: 92 112<0 740 740 740>
AnchorPoint: "Anchor-5" 300 740 basechar 0
AnchorPoint: "Anchor-4" 304 0 basechar 0
LayerCount: 2
Fore
SplineSet
204 753 m 1xd8
 204 0 l 1
 92 0 l 1
 92 740 l 1xe8
 204 753 l 1xd8
554 528 m 1
 341 292 l 1
 576 0 l 1
 439 0 l 1
 212 289 l 1
 424 528 l 1
 554 528 l 1
EndSplineSet
EndChar

StartChar: kcommaaccent
Encoding: 311 311 192
Width: 600
GlyphClass: 2
Flags: MW
HStem: 0 21G<92 204 92 92 439 439 439 576> 508 20G<424 554 554 554> 720 20G<92 92> 733 20G<204 204>
VStem: 92 112<0 740 740 740> 242 127<-141 -113.5>
AnchorPoint: "Anchor-5" 300 740 basechar 0
AnchorPoint: "Anchor-4" 304 0 basechar 0
LayerCount: 2
Fore
SplineSet
204 753 m 1xd8
 204 0 l 1
 92 0 l 1
 92 740 l 1xec
 204 753 l 1xd8
554 528 m 1
 341 292 l 1
 576 0 l 1
 439 0 l 1
 212 289 l 1
 424 528 l 1
 554 528 l 1
305 -69 m 0
 341 -69 369 -95 369 -131 c 0
 369 -151 363 -171 351 -196 c 2
 301 -300 l 1
 239 -300 l 1
 268 -183 l 1
 252 -171 242 -153 242 -131 c 0
 242 -96 269 -69 305 -69 c 0
EndSplineSet
EndChar

StartChar: kgreenlandic
Encoding: 312 312 193
Width: 600
GlyphClass: 2
Flags: MW
HStem: 0 21G<89 201 89 89 436 436 436 573> 508 20G<89 201 201 201 420 550 550 550>
VStem: 89 112<0 528 0 528>
AnchorPoint: "Anchor-5" 300 528 basechar 0
AnchorPoint: "Anchor-4" 300 0 basechar 0
LayerCount: 2
Fore
SplineSet
201 528 m 1
 201 0 l 1
 89 0 l 1
 89 528 l 1
 201 528 l 1
550 528 m 1
 335 288 l 1
 573 0 l 1
 436 0 l 1
 209 280 l 1
 420 528 l 1
 550 528 l 1
EndSplineSet
EndChar

StartChar: l
Encoding: 108 108 194
Width: 600
GlyphClass: 2
Flags: MW
HStem: -13 90<377.5 406.5> 658 82<50 209 50 321>
VStem: 209 112<154 658 658 658>
AnchorPoint: "Anchor-5" 262 740 basechar 0
AnchorPoint: "Anchor-4" 359 0 basechar 0
LayerCount: 2
Fore
SplineSet
321 740 m 1
 321 144 l 2
 321 95 354 77 401 77 c 0
 431 77 458 84 485 95 c 1
 513 17 l 1
 482 0 436 -13 377 -13 c 0
 271 -13 209 50 209 154 c 2
 209 658 l 1
 50 658 l 1
 50 740 l 1
 321 740 l 1
EndSplineSet
EndChar

StartChar: lacute
Encoding: 314 314 195
Width: 600
GlyphClass: 2
Flags: MW
HStem: -13 90<377.5 406.5> 658 82<50 209 50 321>
VStem: 209 112<154 658 658 658>
AnchorPoint: "Anchor-5" 262 740 basechar 0
AnchorPoint: "Anchor-4" 359 0 basechar 0
LayerCount: 2
Fore
SplineSet
343 1023 m 1
 390 934 l 1
 171 845 l 1
 138 904 l 1
 343 1023 l 1
321 740 m 1
 321 144 l 2
 321 95 354 77 401 77 c 0
 431 77 458 84 485 95 c 1
 513 17 l 1
 482 0 436 -13 377 -13 c 0
 271 -13 209 50 209 154 c 2
 209 658 l 1
 50 658 l 1
 50 740 l 1
 321 740 l 1
EndSplineSet
EndChar

StartChar: lcaron
Encoding: 318 318 196
Width: 600
GlyphClass: 2
Flags: MW
HStem: -13 90<377.5 406.5> 658 82<50 209 50 321> 734 20G<396 396>
VStem: 209 112<154 658 658 658>
AnchorPoint: "Anchor-5" 262 740 basechar 0
AnchorPoint: "Anchor-4" 359 0 basechar 0
LayerCount: 2
Fore
SplineSet
396 754 m 1xb0
 496 741 l 1
 433 543 l 1
 366 553 l 1
 396 754 l 1xb0
321 740 m 1xd0
 321 144 l 2
 321 95 354 77 401 77 c 0
 431 77 458 84 485 95 c 1
 513 17 l 1
 482 0 436 -13 377 -13 c 0
 271 -13 209 50 209 154 c 2
 209 658 l 1
 50 658 l 1
 50 740 l 1
 321 740 l 1xd0
EndSplineSet
EndChar

StartChar: lcommaaccent
Encoding: 316 316 197
Width: 600
GlyphClass: 2
Flags: MW
HStem: -13 90<377.5 406.5> 658 82<50 209 50 321>
VStem: 209 112<154 658 658 658> 297 127<-141 -113.5>
AnchorPoint: "Anchor-5" 262 740 basechar 0
AnchorPoint: "Anchor-4" 359 0 basechar 0
LayerCount: 2
Fore
SplineSet
321 740 m 1xe0
 321 144 l 2
 321 95 354 77 401 77 c 0
 431 77 458 84 485 95 c 1
 513 17 l 1
 482 0 436 -13 377 -13 c 0
 271 -13 209 50 209 154 c 2
 209 658 l 1
 50 658 l 1
 50 740 l 1
 321 740 l 1xe0
360 -69 m 0xd0
 396 -69 424 -95 424 -131 c 0
 424 -151 418 -171 406 -196 c 2
 356 -300 l 1
 294 -300 l 1
 323 -183 l 1
 307 -171 297 -153 297 -131 c 0
 297 -96 324 -69 360 -69 c 0xd0
EndSplineSet
EndChar

StartChar: ldot
Encoding: 320 320 198
Width: 600
GlyphClass: 2
Flags: MW
HStem: -13 90<377.5 406.5> 312 141<541.5 585> 658 82<50 209 50 321>
VStem: 209 112<154 658 658 658> 490 147<362 402>
AnchorPoint: "Anchor-5" 262 740 basechar 0
AnchorPoint: "Anchor-4" 359 0 basechar 0
LayerCount: 2
Fore
SplineSet
321 740 m 1
 321 144 l 2
 321 95 354 77 401 77 c 0
 431 77 458 84 485 95 c 1
 513 17 l 1
 482 0 436 -13 377 -13 c 0
 271 -13 209 50 209 154 c 2
 209 658 l 1
 50 658 l 1
 50 740 l 1
 321 740 l 1
563 453 m 0
 607 453 637 422 637 382 c 0
 637 342 607 312 563 312 c 0
 520 312 490 342 490 382 c 0
 490 422 520 453 563 453 c 0
EndSplineSet
Ligature2: "Ligature Substitution lookup 28 subtable" l periodcentered
EndChar

StartChar: lslash
Encoding: 322 322 199
Width: 600
GlyphClass: 2
Flags: MW
HStem: -13 90<377.5 406.5> 658 82<50 209 50 321>
VStem: 209 112<154 288 288 288 450 658 658 658>
AnchorPoint: "Anchor-5" 262 740 basechar 0
AnchorPoint: "Anchor-4" 359 0 basechar 0
LayerCount: 2
Fore
SplineSet
485 95 m 1
 513 17 l 1
 482 0 436 -13 377 -13 c 0
 271 -13 209 50 209 154 c 2
 209 288 l 1
 150 252 l 1
 107 319 l 1
 209 381 l 1
 209 658 l 1
 50 658 l 1
 50 740 l 1
 321 740 l 1
 321 450 l 1
 401 500 l 1
 445 432 l 1
 321 356 l 1
 321 144 l 2
 321 95 354 77 401 77 c 0
 431 77 458 84 485 95 c 1
EndSplineSet
EndChar

StartChar: m
Encoding: 109 109 200
Width: 600
GlyphClass: 2
Flags: MW
HStem: 0 21G<42 142 42 42 255 346 255 255 459 558 459 459> 455 87<221.5 235.5 427.5 439.5> 508 20G<42 126 126 126>
VStem: 42 100<0 402 0 528> 255 91<0 377 377 402 0 404.5> 459 99<0 377 377 392 0 404.5>
AnchorPoint: "Anchor-5" 300 528 basechar 0
AnchorPoint: "Anchor-4" 300 0 basechar 0
LayerCount: 2
Fore
SplineSet
453 542 m 0xdc
 513 542 558 509 558 392 c 2
 558 0 l 1
 459 0 l 1
 459 377 l 2
 459 432 455 455 424 455 c 0
 398 455 372 440 346 402 c 1
 346 0 l 1
 255 0 l 1
 255 377 l 2
 255 432 251 455 220 455 c 0
 193 455 168 440 142 402 c 1xdc
 142 0 l 1
 42 0 l 1
 42 528 l 1
 126 528 l 1xbc
 134 471 l 1
 164 513 196 542 247 542 c 0
 287 542 322 525 337 475 c 1
 367 515 402 542 453 542 c 0xdc
EndSplineSet
EndChar

StartChar: n
Encoding: 110 110 201
Width: 600
GlyphClass: 2
Flags: MW
HStem: 0 21G<89 89 89 201 400 400 400 512> 456 86<333 357> 508 20G<89 186 186 186>
VStem: 89 112<0 379 0 528> 400 112<0 329 329 375>
AnchorPoint: "Anchor-5" 300 528 basechar 0
AnchorPoint: "Anchor-4" 301 0 basechar 0
LayerCount: 2
Fore
SplineSet
89 0 m 1xd8
 89 528 l 1
 186 528 l 1xb8
 194 459 l 1
 238 513 301 542 365 542 c 0
 463 542 512 484 512 385 c 2
 512 0 l 1
 400 0 l 1
 400 329 l 2
 400 421 389 456 325 456 c 0
 273 456 229 419 201 379 c 1
 201 0 l 1
 89 0 l 1xd8
EndSplineSet
EndChar

StartChar: nacute
Encoding: 324 324 202
Width: 600
GlyphClass: 2
Flags: MW
HStem: 0 21G<89 89 89 201 400 400 400 512> 456 86<333 357> 508 20G<89 186 186 186>
VStem: 89 112<0 379 0 528> 400 112<0 329 329 375>
AnchorPoint: "Anchor-5" 300 528 basechar 0
AnchorPoint: "Anchor-4" 301 0 basechar 0
LayerCount: 2
Fore
SplineSet
381 811 m 1xd8
 428 722 l 1
 209 633 l 1
 176 692 l 1
 381 811 l 1xd8
89 0 m 1
 89 528 l 1
 186 528 l 1xb8
 194 459 l 1
 238 513 301 542 365 542 c 0
 463 542 512 484 512 385 c 2
 512 0 l 1
 400 0 l 1
 400 329 l 2
 400 421 389 456 325 456 c 0
 273 456 229 419 201 379 c 1
 201 0 l 1
 89 0 l 1
EndSplineSet
Substitution2: "'locl' Localized Forms in Latin lookup 7 subtable" nacute.loclPLK
Substitution2: "'aalt' Access All Alternates in Latin lookup 0 subtable" nacute.loclPLK
EndChar

StartChar: napostrophe
Encoding: 329 329 203
Width: 600
GlyphClass: 2
Flags: MW
HStem: 0 21G<102 102 102 214 413 413 413 525> 456 86<345.5 369.5> 508 20G<102 199 199 199> 736 20G<44 79.5>
VStem: -2 127<685 712> 102 112<0 379 0 528> 413 112<0 329 329 375>
AnchorPoint: "Anchor-5" 313 528 basechar 0
AnchorPoint: "Anchor-4" 314 0 basechar 0
LayerCount: 2
Fore
SplineSet
62 756 m 0xda
 97 756 125 730 125 695 c 0
 125 675 119 658 100 619 c 2
 59 534 l 1
 -2 534 l 1
 25 643 l 1
 9 656 -2 673 -2 695 c 0
 -2 729 26 756 62 756 c 0xda
102 0 m 1xd6
 102 528 l 1
 199 528 l 1xb6
 207 459 l 1
 251 513 314 542 377 542 c 0
 476 542 525 484 525 385 c 2
 525 0 l 1
 413 0 l 1
 413 329 l 2
 413 421 402 456 337 456 c 0
 286 456 242 419 214 379 c 1
 214 0 l 1
 102 0 l 1xd6
EndSplineSet
Ligature2: "'locl' Localized Forms in Latin lookup 11 subtable" quoteright n
Ligature2: "'locl' Localized Forms in Latin lookup 11 subtable" quotesingle n
EndChar

StartChar: ncaron
Encoding: 328 328 204
Width: 600
GlyphClass: 2
Flags: MW
HStem: 0 21G<89 89 89 201 400 400 400 512> 456 86<333 357> 508 20G<89 186 186 186> 729 20G<127 127 473 473>
VStem: 89 112<0 379 0 528> 400 112<0 329 329 375>
AnchorPoint: "Anchor-5" 300 528 basechar 0
AnchorPoint: "Anchor-4" 301 0 basechar 0
LayerCount: 2
Fore
SplineSet
428 799 m 1xdc
 473 749 l 1
 336 622 l 1
 264 622 l 1
 127 749 l 1
 173 799 l 1
 301 707 l 1
 428 799 l 1xdc
89 0 m 1
 89 528 l 1
 186 528 l 1xbc
 194 459 l 1
 238 513 301 542 365 542 c 0
 463 542 512 484 512 385 c 2
 512 0 l 1
 400 0 l 1
 400 329 l 2
 400 421 389 456 325 456 c 0
 273 456 229 419 201 379 c 1
 201 0 l 1
 89 0 l 1
EndSplineSet
EndChar

StartChar: ncommaaccent
Encoding: 326 326 205
Width: 600
GlyphClass: 2
Flags: MW
HStem: 0 21G<89 89 89 201 400 400 400 512> 456 86<333 357> 508 20G<89 186 186 186>
VStem: 89 112<0 379 0 528> 240 127<-141 -113.5> 400 112<0 329 329 375>
AnchorPoint: "Anchor-5" 300 528 basechar 0
AnchorPoint: "Anchor-4" 301 0 basechar 0
LayerCount: 2
Fore
SplineSet
89 0 m 1xd4
 89 528 l 1
 186 528 l 1xbc
 194 459 l 1
 238 513 301 542 365 542 c 0
 463 542 512 484 512 385 c 2
 512 0 l 1
 400 0 l 1
 400 329 l 2
 400 421 389 456 325 456 c 0
 273 456 229 419 201 379 c 1
 201 0 l 1
 89 0 l 1xd4
303 -69 m 0
 339 -69 367 -95 367 -131 c 0
 367 -151 361 -171 349 -196 c 2
 299 -300 l 1
 237 -300 l 1
 266 -183 l 1
 250 -171 240 -153 240 -131 c 0
 240 -96 267 -69 303 -69 c 0
EndSplineSet
EndChar

StartChar: eng
Encoding: 331 331 206
Width: 600
GlyphClass: 2
Flags: MW
HStem: -215 21G<336 336> 0 21G<89 201 89 89> 456 86<333.5 357> 508 20G<89 186 186 186>
VStem: 89 112<0 378 0 528> 400 112<33 41 41 329 329 375>
LayerCount: 2
Fore
SplineSet
512 41 m 2xec
 512 -118 448 -166 336 -215 c 1
 295 -133 l 1
 364 -102 400 -75 400 33 c 2
 400 329 l 2
 400 421 390 456 324 456 c 0
 274 456 229 418 201 378 c 1xec
 201 0 l 1
 89 0 l 1
 89 528 l 1
 186 528 l 1xdc
 194 459 l 1
 238 513 302 542 365 542 c 0
 464 542 512 484 512 385 c 2
 512 41 l 2xec
EndSplineSet
EndChar

StartChar: ntilde
Encoding: 241 241 207
Width: 600
GlyphClass: 2
Flags: MW
HStem: 0 21G<89 89 89 201 400 400 400 512> 456 86<333 357> 508 20G<89 186 186 186> 650 82<339 367.5 339 382> 697 83<230 259.5> 725 20G<473 473>
VStem: 89 112<0 379 0 528> 400 112<0 329 329 375>
AnchorPoint: "Anchor-5" 300 528 basechar 0
AnchorPoint: "Anchor-4" 301 0 basechar 0
LayerCount: 2
Fore
SplineSet
357 650 m 0xd3
 303 650 277 697 242 697 c 0
 218 697 205 681 189 651 c 1
 126 682 l 1
 150 736 188 780 241 780 c 0xcb
 299 780 321 732 357 732 c 0
 378 732 392 746 410 776 c 1xd3
 473 745 l 1xc7
 447 685 407 650 357 650 c 0xd3
89 0 m 1xc7
 89 528 l 1
 186 528 l 1xa7
 194 459 l 1
 238 513 301 542 365 542 c 0
 463 542 512 484 512 385 c 2
 512 0 l 1
 400 0 l 1
 400 329 l 2
 400 421 389 456 325 456 c 0
 273 456 229 419 201 379 c 1
 201 0 l 1
 89 0 l 1xc7
EndSplineSet
EndChar

StartChar: o
Encoding: 111 111 208
Width: 600
GlyphClass: 2
Flags: MW
HStem: -13 86<259.5 340.5 259.5 376.5> 455 87<260.5 341>
VStem: 61 118<198.5 329.5 198.5 346.5> 421 118<199 330>
AnchorPoint: "Anchor-5" 300 528 basechar 0
AnchorPoint: "Anchor-4" 300 0 basechar 0
LayerCount: 2
Fore
SplineSet
301 542 m 0
 455 542 539 433 539 265 c 0
 539 97 453 -13 300 -13 c 0
 146 -13 61 93 61 264 c 0
 61 429 147 542 301 542 c 0
301 455 m 0
 220 455 179 395 179 264 c 0
 179 133 219 73 300 73 c 0
 381 73 421 133 421 265 c 0
 421 395 381 455 301 455 c 0
EndSplineSet
Substitution2: "Single Substitution lookup 29 subtable" ordmasculine
Substitution2: "'aalt' Access All Alternates in Latin lookup 0 subtable" ordmasculine
EndChar

StartChar: oacute
Encoding: 243 243 209
Width: 600
GlyphClass: 2
Flags: MW
HStem: -13 86<259.5 340.5 259.5 376.5> 455 87<260.5 341>
VStem: 61 118<198.5 329.5 198.5 346.5> 421 118<199 330>
AnchorPoint: "Anchor-5" 300 528 basechar 0
AnchorPoint: "Anchor-4" 300 0 basechar 0
LayerCount: 2
Fore
SplineSet
381 811 m 1
 428 722 l 1
 209 633 l 1
 176 692 l 1
 381 811 l 1
301 542 m 0
 455 542 539 433 539 265 c 0
 539 97 453 -13 300 -13 c 0
 146 -13 61 93 61 264 c 0
 61 429 147 542 301 542 c 0
301 455 m 0
 220 455 179 395 179 264 c 0
 179 133 219 73 300 73 c 0
 381 73 421 133 421 265 c 0
 421 395 381 455 301 455 c 0
EndSplineSet
Substitution2: "'locl' Localized Forms in Latin lookup 7 subtable" oacute.loclPLK
Substitution2: "'aalt' Access All Alternates in Latin lookup 0 subtable" oacute.loclPLK
EndChar

StartChar: obreve
Encoding: 335 335 210
Width: 600
GlyphClass: 2
Flags: MW
HStem: -13 86<259.5 340.5 259.5 376.5> 455 87<260.5 341> 623 81<275.5 322.5 275.5 348>
VStem: 61 118<198.5 329.5 198.5 346.5> 421 118<199 330>
AnchorPoint: "Anchor-5" 300 528 basechar 0
AnchorPoint: "Anchor-4" 300 0 basechar 0
LayerCount: 2
Fore
SplineSet
299 623 m 0
 200 623 150 702 142 774 c 1
 211 787 l 1
 224 738 252 704 299 704 c 0
 346 704 375 738 389 787 c 1
 457 774 l 1
 449 702 397 623 299 623 c 0
301 542 m 0
 455 542 539 433 539 265 c 0
 539 97 453 -13 300 -13 c 0
 146 -13 61 93 61 264 c 0
 61 429 147 542 301 542 c 0
301 455 m 0
 220 455 179 395 179 264 c 0
 179 133 219 73 300 73 c 0
 381 73 421 133 421 265 c 0
 421 395 381 455 301 455 c 0
EndSplineSet
EndChar

StartChar: ocircumflex
Encoding: 244 244 211
Width: 600
GlyphClass: 2
Flags: MW
HStem: -13 86<259.5 340.5 259.5 376.5> 455 87<260.5 341>
VStem: 61 118<198.5 329.5 198.5 346.5> 421 118<199 330>
AnchorPoint: "Anchor-5" 300 528 basechar 0
AnchorPoint: "Anchor-4" 300 0 basechar 0
LayerCount: 2
Fore
SplineSet
173 622 m 1
 127 672 l 1
 264 799 l 1
 336 799 l 1
 473 672 l 1
 428 622 l 1
 301 714 l 1
 173 622 l 1
301 542 m 0
 455 542 539 433 539 265 c 0
 539 97 453 -13 300 -13 c 0
 146 -13 61 93 61 264 c 0
 61 429 147 542 301 542 c 0
301 455 m 0
 220 455 179 395 179 264 c 0
 179 133 219 73 300 73 c 0
 381 73 421 133 421 265 c 0
 421 395 381 455 301 455 c 0
EndSplineSet
EndChar

StartChar: odieresis
Encoding: 246 246 212
Width: 600
GlyphClass: 2
Flags: MW
HStem: -13 86<259.5 340.5 259.5 376.5> 455 87<260.5 341> 644 127<173.5 210 390 426.5>
VStem: 61 118<198.5 329.5 198.5 346.5> 126 130<689 725.5> 343 130<689 725.5> 421 118<199 330>
AnchorPoint: "Anchor-5" 300 707 basechar 0
AnchorPoint: "Anchor-4" 300 0 basechar 0
LayerCount: 2
Fore
SplineSet
192 644 m 0xec
 155 644 126 671 126 707 c 0
 126 744 155 771 192 771 c 0
 228 771 256 744 256 707 c 0
 256 671 228 644 192 644 c 0xec
408 644 m 0
 372 644 343 671 343 707 c 0
 343 744 372 771 408 771 c 0
 445 771 473 744 473 707 c 0
 473 671 445 644 408 644 c 0
301 542 m 0xf2
 455 542 539 433 539 265 c 0
 539 97 453 -13 300 -13 c 0
 146 -13 61 93 61 264 c 0
 61 429 147 542 301 542 c 0xf2
301 455 m 0
 220 455 179 395 179 264 c 0
 179 133 219 73 300 73 c 0
 381 73 421 133 421 265 c 0
 421 395 381 455 301 455 c 0
EndSplineSet
EndChar

StartChar: ograve
Encoding: 242 242 213
Width: 600
GlyphClass: 2
Flags: MW
HStem: -13 86<259.5 340.5 259.5 376.5> 455 87<260.5 341>
VStem: 61 118<198.5 329.5 198.5 346.5> 421 118<199 330>
AnchorPoint: "Anchor-5" 300 528 basechar 0
AnchorPoint: "Anchor-4" 300 0 basechar 0
LayerCount: 2
Fore
SplineSet
391 622 m 1
 176 715 l 1
 228 805 l 1
 425 681 l 1
 391 622 l 1
301 542 m 0
 455 542 539 433 539 265 c 0
 539 97 453 -13 300 -13 c 0
 146 -13 61 93 61 264 c 0
 61 429 147 542 301 542 c 0
301 455 m 0
 220 455 179 395 179 264 c 0
 179 133 219 73 300 73 c 0
 381 73 421 133 421 265 c 0
 421 395 381 455 301 455 c 0
EndSplineSet
EndChar

StartChar: ohungarumlaut
Encoding: 337 337 214
Width: 600
GlyphClass: 2
Flags: MW
HStem: -13 86<259.5 340.5 259.5 376.5> 455 87<260.5 341>
VStem: 61 118<198.5 329.5 198.5 346.5> 421 118<199 330>
AnchorPoint: "Anchor-5" 300 528 basechar 0
AnchorPoint: "Anchor-4" 300 0 basechar 0
LayerCount: 2
Fore
SplineSet
170 662 m 1
 256 844 l 1
 343 803 l 1
 235 632 l 1
 170 662 l 1
334 662 m 1
 426 844 l 1
 512 800 l 1
 397 630 l 1
 334 662 l 1
301 542 m 0
 455 542 539 433 539 265 c 0
 539 97 453 -13 300 -13 c 0
 146 -13 61 93 61 264 c 0
 61 429 147 542 301 542 c 0
301 455 m 0
 220 455 179 395 179 264 c 0
 179 133 219 73 300 73 c 0
 381 73 421 133 421 265 c 0
 421 395 381 455 301 455 c 0
EndSplineSet
EndChar

StartChar: omacron
Encoding: 333 333 215
Width: 600
GlyphClass: 2
Flags: MW
HStem: -13 86<259.5 340.5 259.5 376.5> 455 87<260.5 341> 669 81<158 441 158 441>
VStem: 61 118<198.5 329.5 198.5 346.5> 158 283<669 750 669 750> 421 118<199 330>
AnchorPoint: "Anchor-5" 300 528 basechar 0
AnchorPoint: "Anchor-4" 300 0 basechar 0
LayerCount: 2
Fore
SplineSet
441 669 m 1xe8
 158 669 l 1
 158 750 l 1
 441 750 l 1
 441 669 l 1xe8
301 542 m 0xf4
 455 542 539 433 539 265 c 0
 539 97 453 -13 300 -13 c 0
 146 -13 61 93 61 264 c 0
 61 429 147 542 301 542 c 0xf4
301 455 m 0
 220 455 179 395 179 264 c 0
 179 133 219 73 300 73 c 0
 381 73 421 133 421 265 c 0
 421 395 381 455 301 455 c 0
EndSplineSet
EndChar

StartChar: oslash
Encoding: 248 248 216
Width: 600
GlyphClass: 2
Flags: MW
HStem: -13 85<295.5 341 295.5 376.5> -10 21G<257 257> 456 86<260 305.5> 519 20G<343 343>
VStem: 61 117<223 330 223 346.5> 422 117<198.5 305>
AnchorPoint: "Anchor-5" 300 528 basechar 0
AnchorPoint: "Anchor-4" 0 0 basechar 0
LayerCount: 2
Fore
SplineSet
427 509 m 1xac
 499 464 539 378 539 265 c 0
 539 97 453 -13 300 -13 c 0xac
 285 -13 271 -12 257 -10 c 1
 220 -133 l 1
 133 -107 l 1
 174 19 l 1
 102 63 61 149 61 264 c 0
 61 429 147 542 301 542 c 0x6c
 315 542 329 541 343 539 c 1x9c
 381 657 l 1
 468 632 l 1
 427 509 l 1xac
301 456 m 0
 219 456 178 396 178 264 c 0
 178 182 191 131 217 102 c 1
 327 454 l 1
 319 455 310 456 301 456 c 0
300 72 m 0
 382 72 422 132 422 265 c 0
 422 345 410 396 384 425 c 1
 274 74 l 1
 282 73 291 72 300 72 c 0
EndSplineSet
EndChar

StartChar: oslashacute
Encoding: 511 511 217
Width: 600
GlyphClass: 2
Flags: MW
HStem: -13 85<295.5 341 295.5 376.5> -10 21G<257 257> 456 86<260 305.5> 519 20G<343 343>
VStem: 61 117<223 330 223 346.5> 422 117<198.5 305>
AnchorPoint: "Anchor-5" 300 528 basechar 0
AnchorPoint: "Anchor-4" 0 0 basechar 0
LayerCount: 2
Fore
SplineSet
428 722 m 1xac
 209 633 l 1
 176 692 l 1
 381 811 l 1
 428 722 l 1xac
427 509 m 1
 499 464 539 378 539 265 c 0
 539 97 453 -13 300 -13 c 0xac
 285 -13 271 -12 257 -10 c 1
 220 -133 l 1
 133 -107 l 1
 174 19 l 1
 102 63 61 149 61 264 c 0
 61 429 147 542 301 542 c 0x6c
 315 542 329 541 343 539 c 1x9c
 381 657 l 1
 468 632 l 1
 427 509 l 1
301 456 m 0
 219 456 178 396 178 264 c 0
 178 182 191 131 217 102 c 1
 327 454 l 1
 319 455 310 456 301 456 c 0
300 72 m 0
 382 72 422 132 422 265 c 0
 422 345 410 396 384 425 c 1
 274 74 l 1
 282 73 291 72 300 72 c 0
EndSplineSet
EndChar

StartChar: otilde
Encoding: 245 245 218
Width: 600
GlyphClass: 2
Flags: MW
HStem: -13 86<259.5 340.5 259.5 376.5> 455 87<260.5 341> 650 82<339 367.5 339 382> 697 83<230 259.5> 725 20G<473 473>
VStem: 61 118<198.5 329.5 198.5 346.5> 421 118<199 330>
AnchorPoint: "Anchor-5" 300 528 basechar 0
AnchorPoint: "Anchor-4" 300 0 basechar 0
LayerCount: 2
Fore
SplineSet
357 650 m 0xe6
 303 650 277 697 242 697 c 0
 218 697 205 681 189 651 c 1
 126 682 l 1
 150 736 188 780 241 780 c 0xd6
 299 780 321 732 357 732 c 0
 378 732 392 746 410 776 c 1xe6
 473 745 l 1xce
 447 685 407 650 357 650 c 0xe6
301 542 m 0xce
 455 542 539 433 539 265 c 0
 539 97 453 -13 300 -13 c 0
 146 -13 61 93 61 264 c 0
 61 429 147 542 301 542 c 0xce
301 455 m 0
 220 455 179 395 179 264 c 0
 179 133 219 73 300 73 c 0
 381 73 421 133 421 265 c 0
 421 395 381 455 301 455 c 0
EndSplineSet
EndChar

StartChar: oe
Encoding: 339 339 219
Width: 600
GlyphClass: 2
Flags: MW
HStem: -13 83<428.5 478.5 428.5 486.5> -13 86<150.5 207> 230 74<357 516 357 609 357 516> 456 86<150.5 207> 461 81<415 469.5>
VStem: -4 105<195.5 330.5 195.5 346.5> 256 101<230 230 230 304 230 331.5> 516 96<304 304>
LayerCount: 2
Fore
SplineSet
445 542 m 0x6f
 564 542 612 444 612 278 c 0
 612 260 611 244 609 230 c 1
 357 230 l 1
 366 119 396 70 461 70 c 0
 496 70 521 83 552 107 c 1xaf
 599 41 l 1
 559 8 516 -13 457 -13 c 0
 385 -13 335 20 306 80 c 1
 282 24 244 -13 170 -13 c 0
 50 -13 -4 93 -4 264 c 0
 -4 429 48 542 170 542 c 0
 248 542 285 505 308 446 c 1
 332 502 373 542 445 542 c 0x6f
441 461 m 0
 389 461 364 421 357 304 c 1
 516 304 l 1
 514 408 498 461 441 461 c 0
179 456 m 0x77
 122 456 101 397 101 264 c 0
 101 127 122 73 179 73 c 0
 236 73 256 123 256 265 c 0
 256 398 235 456 179 456 c 0x77
EndSplineSet
EndChar

StartChar: p
Encoding: 112 112 220
Width: 600
GlyphClass: 2
Flags: MW
HStem: -216 21G<89 89> -13 87<307.5 343 283.5 402> 456 86<317.5 351> 508 20G<89 186 186 186>
VStem: 89 112<-203 45 -203 133 133 380> 421 118<198 332>
AnchorPoint: "Anchor-5" 300 528 basechar 0
AnchorPoint: "Anchor-4" 300 0 basechar 0
LayerCount: 2
Fore
SplineSet
347 542 m 0xec
 486 542 539 433 539 265 c 0
 539 104 469 -13 335 -13 c 0
 280 -13 235 6 201 45 c 1
 201 -203 l 1
 89 -216 l 1
 89 528 l 1
 186 528 l 1xdc
 193 460 l 1
 233 514 288 542 347 542 c 0xec
316 456 m 0
 266 456 227 421 201 380 c 1
 201 133 l 1
 226 95 262 74 305 74 c 0
 381 74 421 132 421 264 c 0
 421 400 386 456 316 456 c 0
EndSplineSet
EndChar

StartChar: thorn
Encoding: 254 254 221
Width: 600
GlyphClass: 2
Flags: MW
HStem: -216 21G<89 89> -13 87<307.5 343 283.5 402> 456 86<318 351> 720 20G<89 89> 733 20G<201 201>
VStem: 89 112<-203 45 -203 133 133 380 467 740 740 740> 421 118<198 332>
AnchorPoint: "Anchor-5" 300 740 basechar 0
AnchorPoint: "Anchor-4" 300 -208 basechar 0
LayerCount: 2
Fore
SplineSet
201 753 m 1xee
 201 467 l 1
 237 515 289 542 347 542 c 0
 486 542 539 433 539 265 c 0
 539 104 469 -13 335 -13 c 0
 280 -13 235 6 201 45 c 1
 201 -203 l 1
 89 -216 l 1
 89 740 l 1xf6
 201 753 l 1xee
316 456 m 0
 266 456 227 421 201 380 c 1
 201 133 l 1
 226 95 262 74 305 74 c 0
 381 74 421 132 421 264 c 0
 421 400 386 456 316 456 c 0
EndSplineSet
EndChar

StartChar: q
Encoding: 113 113 222
Width: 600
GlyphClass: 2
Flags: MW
HStem: -216 21G<511 511> -13 87<250.5 285> 456 86<257 296.5 200.5 317> 508 20G<414 511 511 511>
VStem: 61 118<196.5 330 196.5 344.5> 399 112<-203 58 58 58 148 397 397 397>
AnchorPoint: "Anchor-5" 300 528 basechar 0
AnchorPoint: "Anchor-4" 300 0 basechar 0
LayerCount: 2
Fore
SplineSet
267 542 m 0xec
 326 542 373 519 407 476 c 1xec
 414 528 l 1
 511 528 l 1xdc
 511 -216 l 1
 399 -203 l 1
 399 58 l 1
 363 11 315 -13 255 -13 c 0
 116 -13 61 96 61 264 c 0
 61 425 134 542 267 542 c 0xec
295 456 m 0
 219 456 179 396 179 264 c 0
 179 129 216 74 285 74 c 0
 335 74 373 106 399 148 c 1
 399 397 l 1
 374 434 339 456 295 456 c 0
EndSplineSet
EndChar

StartChar: r
Encoding: 114 114 223
Width: 600
GlyphClass: 2
Flags: MW
HStem: 0 80<94 172 284 390 94 172> 448 80<94 172 94 257> 521 20G<417.5 479>
VStem: 172 112<80 276 80 448> 444 80<333 441>
AnchorPoint: "Anchor-5" 329 528 basechar 0
AnchorPoint: "Anchor-4" 228 0 basechar 0
LayerCount: 2
Fore
SplineSet
463 541 m 0xb0
 495 541 519 536 543 528 c 1
 524 333 l 1
 444 333 l 1
 444 441 l 1
 369 439 315 379 284 276 c 1
 284 80 l 1
 390 80 l 1
 390 0 l 1
 94 0 l 1
 94 80 l 1
 172 80 l 1
 172 448 l 1
 94 448 l 1
 94 528 l 1
 257 528 l 1xd8
 277 406 l 1
 317 494 372 541 463 541 c 0xb0
EndSplineSet
EndChar

StartChar: racute
Encoding: 341 341 224
Width: 600
GlyphClass: 2
Flags: MW
HStem: 0 80<94 172 284 390 94 172> 448 80<94 172 94 257> 521 20G<417.5 479>
VStem: 172 112<80 276 80 448> 444 80<333 441>
AnchorPoint: "Anchor-5" 329 528 basechar 0
AnchorPoint: "Anchor-4" 228 0 basechar 0
LayerCount: 2
Fore
SplineSet
457 722 m 1xd0
 238 633 l 1
 205 692 l 1
 410 811 l 1
 457 722 l 1xd0
463 541 m 0xb0
 495 541 519 536 543 528 c 1
 524 333 l 1
 444 333 l 1
 444 441 l 1
 369 439 315 379 284 276 c 1
 284 80 l 1
 390 80 l 1
 390 0 l 1
 94 0 l 1
 94 80 l 1
 172 80 l 1
 172 448 l 1
 94 448 l 1
 94 528 l 1
 257 528 l 1xd8
 277 406 l 1
 317 494 372 541 463 541 c 0xb0
EndSplineSet
EndChar

StartChar: rcaron
Encoding: 345 345 225
Width: 600
GlyphClass: 2
Flags: MW
HStem: 0 80<94 172 284 390 94 172> 448 80<94 172 94 257> 521 20G<417.5 479> 729 20G<156 156 502 502>
VStem: 172 112<80 276 80 448> 444 80<333 441>
AnchorPoint: "Anchor-5" 329 528 basechar 0
AnchorPoint: "Anchor-4" 228 0 basechar 0
LayerCount: 2
Fore
SplineSet
365 622 m 1xd8
 293 622 l 1
 156 749 l 1
 202 799 l 1
 330 707 l 1
 457 799 l 1
 502 749 l 1
 365 622 l 1xd8
463 541 m 0xb8
 495 541 519 536 543 528 c 1
 524 333 l 1
 444 333 l 1
 444 441 l 1
 369 439 315 379 284 276 c 1
 284 80 l 1
 390 80 l 1
 390 0 l 1
 94 0 l 1
 94 80 l 1
 172 80 l 1
 172 448 l 1
 94 448 l 1
 94 528 l 1
 257 528 l 1xdc
 277 406 l 1
 317 494 372 541 463 541 c 0xb8
EndSplineSet
EndChar

StartChar: rcommaaccent
Encoding: 343 343 226
Width: 600
GlyphClass: 2
Flags: MW
HStem: 0 80<94 172 284 390 94 172> 448 80<94 172 94 257> 521 20G<417.5 479>
VStem: 166 127<-141 -113.5> 172 112<80 276 80 448> 444 80<333 441>
AnchorPoint: "Anchor-5" 329 528 basechar 0
AnchorPoint: "Anchor-4" 228 0 basechar 0
LayerCount: 2
Fore
SplineSet
463 541 m 0xa8
 495 541 519 536 543 528 c 1
 524 333 l 1
 444 333 l 1
 444 441 l 1
 369 439 315 379 284 276 c 1
 284 80 l 1
 390 80 l 1
 390 0 l 1
 94 0 l 1
 94 80 l 1
 172 80 l 1
 172 448 l 1
 94 448 l 1
 94 528 l 1
 257 528 l 1xcc
 277 406 l 1
 317 494 372 541 463 541 c 0xa8
229 -69 m 0xd0
 265 -69 293 -95 293 -131 c 0
 293 -151 287 -171 275 -196 c 2
 225 -300 l 1
 163 -300 l 1
 192 -183 l 1
 176 -171 166 -153 166 -131 c 0
 166 -96 193 -69 229 -69 c 0xd0
EndSplineSet
EndChar

StartChar: s
Encoding: 115 115 227
Width: 600
GlyphClass: 2
Flags: MW
HStem: -13 85<250 316 250 341.5> 457 85<273 340>
VStem: 95 114<379 416.5 379 435.5> 395 119<121 164.5>
AnchorPoint: "Anchor-5" 309 528 basechar 0
AnchorPoint: "Anchor-4" 298 0 basechar 0
LayerCount: 2
Fore
SplineSet
281 72 m 0
 351 72 395 99 395 143 c 0
 395 186 378 206 269 234 c 0
 164 261 95 298 95 390 c 0
 95 481 176 542 306 542 c 0
 395 542 459 516 507 481 c 1
 459 410 l 1
 418 437 371 457 309 457 c 0
 237 457 209 434 209 399 c 0
 209 359 238 344 343 315 c 0
 446 287 514 251 514 151 c 0
 514 36 402 -13 281 -13 c 0
 183 -13 113 19 64 61 c 1
 123 129 l 1
 164 96 219 72 281 72 c 0
EndSplineSet
EndChar

StartChar: sacute
Encoding: 347 347 228
Width: 600
GlyphClass: 2
Flags: MW
HStem: -13 85<250 316 250 341.5> 457 85<273 340>
VStem: 95 114<379 416.5 379 435.5> 395 119<121 164.5>
AnchorPoint: "Anchor-5" 309 528 basechar 0
AnchorPoint: "Anchor-4" 298 0 basechar 0
LayerCount: 2
Fore
SplineSet
390 811 m 1
 437 722 l 1
 218 633 l 1
 185 692 l 1
 390 811 l 1
281 72 m 0
 351 72 395 99 395 143 c 0
 395 186 378 206 269 234 c 0
 164 261 95 298 95 390 c 0
 95 481 176 542 306 542 c 0
 395 542 459 516 507 481 c 1
 459 410 l 1
 418 437 371 457 309 457 c 0
 237 457 209 434 209 399 c 0
 209 359 238 344 343 315 c 0
 446 287 514 251 514 151 c 0
 514 36 402 -13 281 -13 c 0
 183 -13 113 19 64 61 c 1
 123 129 l 1
 164 96 219 72 281 72 c 0
EndSplineSet
Substitution2: "'locl' Localized Forms in Latin lookup 7 subtable" sacute.loclPLK
Substitution2: "'aalt' Access All Alternates in Latin lookup 0 subtable" sacute.loclPLK
EndChar

StartChar: scaron
Encoding: 353 353 229
Width: 600
GlyphClass: 2
Flags: MW
HStem: -13 85<250 316 250 341.5> 457 85<273 340> 729 20G<136 136 482 482>
VStem: 95 114<379 416.5 379 435.5> 395 119<121 164.5>
AnchorPoint: "Anchor-5" 309 528 basechar 0
AnchorPoint: "Anchor-4" 298 0 basechar 0
LayerCount: 2
Fore
SplineSet
437 799 m 1
 482 749 l 1
 345 622 l 1
 273 622 l 1
 136 749 l 1
 182 799 l 1
 310 707 l 1
 437 799 l 1
281 72 m 0
 351 72 395 99 395 143 c 0
 395 186 378 206 269 234 c 0
 164 261 95 298 95 390 c 0
 95 481 176 542 306 542 c 0
 395 542 459 516 507 481 c 1
 459 410 l 1
 418 437 371 457 309 457 c 0
 237 457 209 434 209 399 c 0
 209 359 238 344 343 315 c 0
 446 287 514 251 514 151 c 0
 514 36 402 -13 281 -13 c 0
 183 -13 113 19 64 61 c 1
 123 129 l 1
 164 96 219 72 281 72 c 0
EndSplineSet
EndChar

StartChar: scedilla
Encoding: 351 351 230
Width: 600
GlyphClass: 2
Flags: MW
HStem: -247 67<264.5 290.5 262 323> -221 21G<177 177> -103 49 -12 84<250 316 250 322> 457 85<273 340>
VStem: 95 114<379 416.5 379 435.5> 246 76 330 89<-155.5 -126> 395 119<121 164.5>
AnchorPoint: "Anchor-5" 309 528 basechar 0
AnchorPoint: "Anchor-4" 298 0 basechar 0
LayerCount: 2
Fore
SplineSet
514 151 m 0x7e80
 514 49 426 -1 322 -12 c 1
 322 -54 l 1x7e80
 389 -60 419 -98 419 -143 c 0
 419 -209 360 -247 286 -247 c 0xbf
 243 -247 203 -236 177 -221 c 1x7e80
 207 -163 l 1
 227 -173 251 -180 273 -180 c 0
 308 -180 330 -169 330 -142 c 0xbf
 330 -110 298 -103 242 -103 c 1
 250 -12 l 1
 168 -6 107 23 64 61 c 1
 123 129 l 1
 164 96 219 72 281 72 c 0
 351 72 395 99 395 143 c 0
 395 186 378 206 269 234 c 0
 164 261 95 298 95 390 c 0
 95 481 176 542 306 542 c 0
 395 542 459 516 507 481 c 1
 459 410 l 1
 418 437 371 457 309 457 c 0
 237 457 209 434 209 399 c 0
 209 359 238 344 343 315 c 0
 446 287 514 251 514 151 c 0x7e80
EndSplineSet
Substitution2: "'locl' Localized Forms in Latin lookup 5 subtable" scommaaccent
Substitution2: "'locl' Localized Forms in Latin lookup 4 subtable" scommaaccent
Substitution2: "'aalt' Access All Alternates in Latin lookup 0 subtable" scommaaccent
EndChar

StartChar: scircumflex
Encoding: 349 349 231
Width: 600
GlyphClass: 2
Flags: MW
HStem: -13 85<250 316 250 341.5> 457 85<273 340>
VStem: 95 114<379 416.5 379 435.5> 395 119<121 164.5>
AnchorPoint: "Anchor-5" 309 528 basechar 0
AnchorPoint: "Anchor-4" 298 0 basechar 0
LayerCount: 2
Fore
SplineSet
182 622 m 1
 136 672 l 1
 273 799 l 1
 345 799 l 1
 482 672 l 1
 437 622 l 1
 310 714 l 1
 182 622 l 1
281 72 m 0
 351 72 395 99 395 143 c 0
 395 186 378 206 269 234 c 0
 164 261 95 298 95 390 c 0
 95 481 176 542 306 542 c 0
 395 542 459 516 507 481 c 1
 459 410 l 1
 418 437 371 457 309 457 c 0
 237 457 209 434 209 399 c 0
 209 359 238 344 343 315 c 0
 446 287 514 251 514 151 c 0
 514 36 402 -13 281 -13 c 0
 183 -13 113 19 64 61 c 1
 123 129 l 1
 164 96 219 72 281 72 c 0
EndSplineSet
EndChar

StartChar: scommaaccent
Encoding: 537 537 232
Width: 600
GlyphClass: 2
Flags: MW
HStem: -13 85<250 316 250 341.5> 457 85<273 340>
VStem: 95 114<379 416.5 379 435.5> 237 127<-141 -113.5> 395 119<121 164.5>
AnchorPoint: "Anchor-5" 309 528 basechar 0
AnchorPoint: "Anchor-4" 298 0 basechar 0
LayerCount: 2
Fore
SplineSet
281 72 m 0
 351 72 395 99 395 143 c 0
 395 186 378 206 269 234 c 0
 164 261 95 298 95 390 c 0
 95 481 176 542 306 542 c 0
 395 542 459 516 507 481 c 1
 459 410 l 1
 418 437 371 457 309 457 c 0
 237 457 209 434 209 399 c 0
 209 359 238 344 343 315 c 0
 446 287 514 251 514 151 c 0
 514 36 402 -13 281 -13 c 0
 183 -13 113 19 64 61 c 1
 123 129 l 1
 164 96 219 72 281 72 c 0
300 -69 m 0xf8
 336 -69 364 -95 364 -131 c 0
 364 -151 358 -171 346 -196 c 2
 296 -300 l 1
 234 -300 l 1
 263 -183 l 1
 247 -171 237 -153 237 -131 c 0
 237 -96 264 -69 300 -69 c 0xf8
EndSplineSet
EndChar

StartChar: germandbls
Encoding: 223 223 233
Width: 600
GlyphClass: 2
Flags: MW
HStem: -13 88<348.5 389 348.5 426> 0 20 669 84<260 321.5>
VStem: 82 112<0 532 532 539 0 603.5> 271 103<388.5 460> 371 108<560 614.5> 450 115<134.5 224.5>
LayerCount: 2
Fore
SplineSet
295 753 m 0x74
 408 753 479 690 479 604 c 0
 479 509 374 492 374 430 c 0
 374 347 565 338 565 167 c 0
 565 51 479 -13 373 -13 c 0xba
 321 -13 280 -1 245 20 c 1x7a
 285 96 l 1
 308 83 336 75 361 75 c 0
 417 75 450 105 450 164 c 0xba
 450 285 271 282 271 413 c 0
 271 507 371 523 371 597 c 0
 371 632 350 669 293 669 c 0
 227 669 194 631 194 539 c 2
 194 0 l 1
 82 0 l 1
 82 532 l 2
 82 675 159 753 295 753 c 0x74
EndSplineSet
EndChar

StartChar: t
Encoding: 116 116 234
Width: 600
GlyphClass: 2
Flags: MW
HStem: -13 90<359.5 405.5> 446 82<71 188 71 188 300 466>
VStem: 188 112<160 161 161 446 528 646 646 646>
AnchorPoint: "Anchor-5" 244 652 basechar 0
AnchorPoint: "Anchor-4" 367 0 basechar 0
LayerCount: 2
Fore
SplineSet
530 28 m 1
 491 3 435 -13 376 -13 c 0
 253 -13 188 56 188 160 c 2
 188 446 l 1
 71 446 l 1
 71 528 l 1
 188 528 l 1
 188 646 l 1
 300 659 l 1
 300 528 l 1
 479 528 l 1
 466 446 l 1
 300 446 l 1
 300 161 l 2
 300 104 327 77 392 77 c 0
 430 77 463 87 490 102 c 1
 530 28 l 1
EndSplineSet
EndChar

StartChar: tbar
Encoding: 359 359 235
Width: 600
GlyphClass: 2
Flags: MW
HStem: -13 90<359.5 405.5> 278 77<82 188 82 188 300 466> 446 82<71 188 71 188 300 466>
VStem: 188 112<160 161 161 278 355 446 528 646 646 646>
AnchorPoint: "Anchor-5" 244 652 basechar 0
AnchorPoint: "Anchor-4" 367 0 basechar 0
LayerCount: 2
Fore
SplineSet
490 102 m 1
 530 28 l 1
 491 3 435 -13 376 -13 c 0
 253 -13 188 56 188 160 c 2
 188 278 l 1
 82 278 l 1
 82 355 l 1
 188 355 l 1
 188 446 l 1
 71 446 l 1
 71 528 l 1
 188 528 l 1
 188 646 l 1
 300 659 l 1
 300 528 l 1
 479 528 l 1
 466 446 l 1
 300 446 l 1
 300 355 l 1
 466 355 l 1
 466 278 l 1
 300 278 l 1
 300 161 l 2
 300 104 327 77 392 77 c 0
 430 77 463 87 490 102 c 1
EndSplineSet
EndChar

StartChar: tcaron
Encoding: 357 357 236
Width: 600
GlyphClass: 2
Flags: MW
HStem: -13 90<359.5 405.5> 446 82<71 188 71 188 300 466>
VStem: 188 112<160 161 161 446 528 646 646 646>
AnchorPoint: "Anchor-5" 244 652 basechar 0
AnchorPoint: "Anchor-4" 367 0 basechar 0
LayerCount: 2
Fore
SplineSet
376 789 m 1
 476 776 l 1
 413 578 l 1
 346 588 l 1
 376 789 l 1
530 28 m 1
 491 3 435 -13 376 -13 c 0
 253 -13 188 56 188 160 c 2
 188 446 l 1
 71 446 l 1
 71 528 l 1
 188 528 l 1
 188 646 l 1
 300 659 l 1
 300 528 l 1
 479 528 l 1
 466 446 l 1
 300 446 l 1
 300 161 l 2
 300 104 327 77 392 77 c 0
 430 77 463 87 490 102 c 1
 530 28 l 1
EndSplineSet
EndChar

StartChar: uni0163
Encoding: 355 355 237
Width: 600
GlyphClass: 2
Flags: MW
HStem: -247 67<333.5 359.5 331 392> -221 21G<246 246> -103 49 -13 90<391 391> -8 21G<319 319> 446 82<71 188 71 188 300 466>
VStem: 188 112<160 161 161 446 528 646 646 646> 315 76 399 89<-155.5 -126>
AnchorPoint: "Anchor-5" 244 652 basechar 0
AnchorPoint: "Anchor-4" 367 0 basechar 0
LayerCount: 2
Fore
SplineSet
391 -54 m 1x77
 458 -60 488 -98 488 -143 c 0
 488 -209 429 -247 355 -247 c 0xae80
 312 -247 272 -236 246 -221 c 1x6e
 276 -163 l 1
 296 -173 320 -180 342 -180 c 0
 377 -180 399 -169 399 -142 c 0xae80
 399 -110 367 -103 311 -103 c 1x6f
 319 -8 l 1x6e
 233 11 188 74 188 160 c 2
 188 446 l 1
 71 446 l 1
 71 528 l 1
 188 528 l 1
 188 646 l 1
 300 659 l 1
 300 528 l 1
 479 528 l 1
 466 446 l 1
 300 446 l 1
 300 161 l 2
 300 104 327 77 392 77 c 0x76
 430 77 463 87 490 102 c 1
 530 28 l 1
 495 5 444 -11 391 -13 c 1
 391 -54 l 1x77
EndSplineSet
Substitution2: "'locl' Localized Forms in Latin lookup 5 subtable" uni021B
Substitution2: "'locl' Localized Forms in Latin lookup 4 subtable" uni021B
Substitution2: "'aalt' Access All Alternates in Latin lookup 0 subtable" uni021B
EndChar

StartChar: uni021B
Encoding: 539 539 238
Width: 600
GlyphClass: 2
Flags: MW
HStem: -13 90<359.5 405.5> 446 82<71 188 71 188 300 466>
VStem: 188 112<160 161 161 446 528 646 646 646> 306 127<-141 -113.5>
AnchorPoint: "Anchor-5" 244 652 basechar 0
AnchorPoint: "Anchor-4" 367 0 basechar 0
LayerCount: 2
Fore
SplineSet
530 28 m 1
 491 3 435 -13 376 -13 c 0
 253 -13 188 56 188 160 c 2
 188 446 l 1
 71 446 l 1
 71 528 l 1
 188 528 l 1
 188 646 l 1
 300 659 l 1
 300 528 l 1
 479 528 l 1
 466 446 l 1
 300 446 l 1
 300 161 l 2
 300 104 327 77 392 77 c 0
 430 77 463 87 490 102 c 1
 530 28 l 1
369 -69 m 0xd0
 405 -69 433 -95 433 -131 c 0
 433 -151 427 -171 415 -196 c 2
 365 -300 l 1
 303 -300 l 1
 332 -183 l 1
 316 -171 306 -153 306 -131 c 0
 306 -96 333 -69 369 -69 c 0xd0
EndSplineSet
EndChar

StartChar: u
Encoding: 117 117 239
Width: 600
GlyphClass: 2
Flags: MW
HStem: -13 85<251 272> 0 21G<414 511 414 414> 508 20G<89 201 201 201 399 511 511 511>
VStem: 89 112<145 159 159 528> 399 112<146 528 0 528>
AnchorPoint: "Anchor-5" 300 528 basechar 0
AnchorPoint: "Anchor-4" 0 0 basechar 0
LayerCount: 2
Fore
SplineSet
201 528 m 1xb8
 201 159 l 2
 201 97 226 72 276 72 c 0
 325 72 373 105 399 146 c 1xb8
 399 528 l 1
 511 528 l 1
 511 0 l 1
 414 0 l 1x78
 407 68 l 1
 368 15 303 -13 241 -13 c 0
 138 -13 89 46 89 145 c 2
 89 528 l 1
 201 528 l 1xb8
EndSplineSet
EndChar

StartChar: uacute
Encoding: 250 250 240
Width: 600
GlyphClass: 2
Flags: MW
HStem: -13 85<251 272> 0 21G<414 511 414 414> 508 20G<89 201 201 201 399 511 511 511>
VStem: 89 112<145 159 159 528> 399 112<146 528 0 528>
AnchorPoint: "Anchor-5" 300 528 basechar 0
AnchorPoint: "Anchor-4" 0 0 basechar 0
LayerCount: 2
Fore
SplineSet
381 811 m 1xb8
 428 722 l 1
 209 633 l 1
 176 692 l 1
 381 811 l 1xb8
201 528 m 1
 201 159 l 2
 201 97 226 72 276 72 c 0
 325 72 373 105 399 146 c 1xb8
 399 528 l 1
 511 528 l 1
 511 0 l 1
 414 0 l 1x78
 407 68 l 1
 368 15 303 -13 241 -13 c 0
 138 -13 89 46 89 145 c 2
 89 528 l 1
 201 528 l 1
EndSplineSet
EndChar

StartChar: ubreve
Encoding: 365 365 241
Width: 600
GlyphClass: 2
Flags: MW
HStem: -13 85<251 272> 0 21G<414 511 414 414> 508 20G<89 201 201 201 399 511 511 511> 623 81<275.5 322.5 275.5 348>
VStem: 89 112<145 159 159 528> 399 112<146 528 0 528>
AnchorPoint: "Anchor-5" 300 528 basechar 0
AnchorPoint: "Anchor-4" 0 0 basechar 0
LayerCount: 2
Fore
SplineSet
299 623 m 0xbc
 200 623 150 702 142 774 c 1
 211 787 l 1
 224 738 252 704 299 704 c 0
 346 704 375 738 389 787 c 1
 457 774 l 1
 449 702 397 623 299 623 c 0xbc
201 528 m 1
 201 159 l 2
 201 97 226 72 276 72 c 0
 325 72 373 105 399 146 c 1xbc
 399 528 l 1
 511 528 l 1
 511 0 l 1
 414 0 l 1x7c
 407 68 l 1
 368 15 303 -13 241 -13 c 0
 138 -13 89 46 89 145 c 2
 89 528 l 1
 201 528 l 1
EndSplineSet
EndChar

StartChar: ucircumflex
Encoding: 251 251 242
Width: 600
GlyphClass: 2
Flags: MW
HStem: -13 85<251 272> 0 21G<414 511 414 414> 508 20G<89 201 201 201 399 511 511 511>
VStem: 89 112<145 159 159 528> 399 112<146 528 0 528>
AnchorPoint: "Anchor-5" 300 528 basechar 0
AnchorPoint: "Anchor-4" 0 0 basechar 0
LayerCount: 2
Fore
SplineSet
173 622 m 1xb8
 127 672 l 1
 264 799 l 1
 336 799 l 1
 473 672 l 1
 428 622 l 1
 301 714 l 1
 173 622 l 1xb8
201 528 m 1
 201 159 l 2
 201 97 226 72 276 72 c 0
 325 72 373 105 399 146 c 1xb8
 399 528 l 1
 511 528 l 1
 511 0 l 1
 414 0 l 1x78
 407 68 l 1
 368 15 303 -13 241 -13 c 0
 138 -13 89 46 89 145 c 2
 89 528 l 1
 201 528 l 1
EndSplineSet
EndChar

StartChar: udieresis
Encoding: 252 252 243
Width: 600
GlyphClass: 2
Flags: MW
HStem: -13 85<251 272> 0 21G<414 511 414 414> 508 20G<89 201 201 201 399 511 511 511> 644 127<173.5 210 390 426.5>
VStem: 89 112<145 159 159 528> 126 130<689 725.5> 343 130<689 725.5> 399 112<146 528 0 528>
AnchorPoint: "Anchor-5" 300 707 basechar 0
AnchorPoint: "Anchor-4" 0 0 basechar 0
LayerCount: 2
Fore
SplineSet
192 644 m 0xb6
 155 644 126 671 126 707 c 0
 126 744 155 771 192 771 c 0
 228 771 256 744 256 707 c 0
 256 671 228 644 192 644 c 0xb6
408 644 m 0
 372 644 343 671 343 707 c 0
 343 744 372 771 408 771 c 0
 445 771 473 744 473 707 c 0
 473 671 445 644 408 644 c 0
201 528 m 1xb9
 201 159 l 2
 201 97 226 72 276 72 c 0
 325 72 373 105 399 146 c 1xb9
 399 528 l 1
 511 528 l 1
 511 0 l 1
 414 0 l 1x79
 407 68 l 1
 368 15 303 -13 241 -13 c 0
 138 -13 89 46 89 145 c 2
 89 528 l 1
 201 528 l 1xb9
EndSplineSet
EndChar

StartChar: ugrave
Encoding: 249 249 244
Width: 600
GlyphClass: 2
Flags: MW
HStem: -13 85<251 272> 0 21G<414 511 414 414> 508 20G<89 201 201 201 399 511 511 511>
VStem: 89 112<145 159 159 528> 399 112<146 528 0 528>
AnchorPoint: "Anchor-5" 300 528 basechar 0
AnchorPoint: "Anchor-4" 0 0 basechar 0
LayerCount: 2
Fore
SplineSet
391 622 m 1xb8
 176 715 l 1
 228 805 l 1
 425 681 l 1
 391 622 l 1xb8
201 528 m 1
 201 159 l 2
 201 97 226 72 276 72 c 0
 325 72 373 105 399 146 c 1xb8
 399 528 l 1
 511 528 l 1
 511 0 l 1
 414 0 l 1x78
 407 68 l 1
 368 15 303 -13 241 -13 c 0
 138 -13 89 46 89 145 c 2
 89 528 l 1
 201 528 l 1
EndSplineSet
EndChar

StartChar: uhungarumlaut
Encoding: 369 369 245
Width: 600
GlyphClass: 2
Flags: MW
HStem: -13 85<251 272> 0 21G<414 511 414 414> 508 20G<89 201 201 201 399 511 511 511>
VStem: 89 112<145 159 159 528> 399 112<146 528 0 528>
AnchorPoint: "Anchor-5" 300 528 basechar 0
AnchorPoint: "Anchor-4" 0 0 basechar 0
LayerCount: 2
Fore
SplineSet
170 662 m 1xb8
 256 844 l 1
 343 803 l 1
 235 632 l 1
 170 662 l 1xb8
334 662 m 1
 426 844 l 1
 512 800 l 1
 397 630 l 1
 334 662 l 1
201 528 m 1
 201 159 l 2
 201 97 226 72 276 72 c 0
 325 72 373 105 399 146 c 1xb8
 399 528 l 1
 511 528 l 1
 511 0 l 1
 414 0 l 1x78
 407 68 l 1
 368 15 303 -13 241 -13 c 0
 138 -13 89 46 89 145 c 2
 89 528 l 1
 201 528 l 1
EndSplineSet
EndChar

StartChar: umacron
Encoding: 363 363 246
Width: 600
GlyphClass: 2
Flags: MW
HStem: -13 85<251 272> 0 21G<414 511 414 414> 508 20G<89 201 201 201 399 511 511 511> 669 81<158 441 158 441>
VStem: 89 112<145 159 159 528> 158 283<669 750 669 750> 399 112<146 528 0 528>
AnchorPoint: "Anchor-5" 300 528 basechar 0
AnchorPoint: "Anchor-4" 0 0 basechar 0
LayerCount: 2
Fore
SplineSet
441 669 m 1xb4
 158 669 l 1
 158 750 l 1
 441 750 l 1
 441 669 l 1xb4
201 528 m 1xba
 201 159 l 2
 201 97 226 72 276 72 c 0
 325 72 373 105 399 146 c 1xba
 399 528 l 1
 511 528 l 1
 511 0 l 1
 414 0 l 1x7a
 407 68 l 1
 368 15 303 -13 241 -13 c 0
 138 -13 89 46 89 145 c 2
 89 528 l 1
 201 528 l 1xba
EndSplineSet
EndChar

StartChar: uogonek
Encoding: 371 371 247
Width: 600
GlyphClass: 2
Flags: MW
HStem: -238 77<427.5 447> -13 21G<189.5 272> -13 85<251 272> 0 21G<511 511> 508 20G<89 201 201 201 399 511 511 511>
VStem: 89 112<145 159 159 528> 301 90<-128.5 -99.5> 399 112<146 528 0 528>
AnchorPoint: "Anchor-5" 300 528 basechar 0
AnchorPoint: "Anchor-4" 0 0 basechar 0
LayerCount: 2
Fore
SplineSet
399 528 m 1xad
 511 528 l 1
 511 0 l 1x9d
 412 -40 391 -75 391 -113 c 0
 391 -144 408 -161 447 -161 c 0
 468 -161 484 -159 506 -154 c 1
 496 -231 l 1
 477 -235 460 -238 434 -238 c 0
 355 -238 301 -195 301 -131 c 0xcf
 301 -68 341 -25 413 9 c 1xcd
 407 68 l 1
 368 15 303 -13 241 -13 c 0
 138 -13 89 46 89 145 c 2
 89 528 l 1
 201 528 l 1
 201 159 l 2
 201 97 226 72 276 72 c 0
 325 72 373 105 399 146 c 1
 399 528 l 1xad
EndSplineSet
EndChar

StartChar: uring
Encoding: 367 367 248
Width: 600
GlyphClass: 2
Flags: MW
HStem: -13 85<251 272> 0 21G<414 511 414 414> 508 20G<89 201 201 201 399 511 511 511> 612 59<284.5 315.5 284.5 336.5> 779 60<284.5 315.5>
VStem: 89 112<145 159 159 528> 178 71<708.5 743 708.5 757> 350 71<708.5 743> 399 112<146 528 0 528>
AnchorPoint: "Anchor-5" 300 528 basechar 0
AnchorPoint: "Anchor-4" 0 0 basechar 0
LayerCount: 2
Fore
SplineSet
300 839 m 0xbb
 373 839 421 788 421 726 c 0
 421 664 373 612 300 612 c 0
 227 612 178 664 178 726 c 0
 178 788 227 839 300 839 c 0xbb
300 779 m 0
 269 779 249 760 249 726 c 0
 249 691 269 671 300 671 c 0
 331 671 350 691 350 726 c 0
 350 760 331 779 300 779 c 0
201 528 m 1xbc80
 201 159 l 2
 201 97 226 72 276 72 c 0
 325 72 373 105 399 146 c 1xbc80
 399 528 l 1
 511 528 l 1
 511 0 l 1
 414 0 l 1x7c80
 407 68 l 1
 368 15 303 -13 241 -13 c 0
 138 -13 89 46 89 145 c 2
 89 528 l 1
 201 528 l 1xbc80
EndSplineSet
EndChar

StartChar: utilde
Encoding: 361 361 249
Width: 600
GlyphClass: 2
Flags: MW
HStem: -13 85<251 272> 0 21G<414 511 414 414> 508 20G<89 201 201 201 399 511 511 511> 650 82<339 367.5 339 382> 697 83<230 259.5> 725 20G<473 473>
VStem: 89 112<145 159 159 528> 399 112<146 528 0 528>
AnchorPoint: "Anchor-5" 300 528 basechar 0
AnchorPoint: "Anchor-4" 0 0 basechar 0
LayerCount: 2
Fore
SplineSet
357 650 m 0xb3
 303 650 277 697 242 697 c 0
 218 697 205 681 189 651 c 1
 126 682 l 1
 150 736 188 780 241 780 c 0xab
 299 780 321 732 357 732 c 0
 378 732 392 746 410 776 c 1xb3
 473 745 l 1xa7
 447 685 407 650 357 650 c 0xb3
201 528 m 1xa7
 201 159 l 2
 201 97 226 72 276 72 c 0
 325 72 373 105 399 146 c 1xa7
 399 528 l 1
 511 528 l 1
 511 0 l 1
 414 0 l 1x67
 407 68 l 1
 368 15 303 -13 241 -13 c 0
 138 -13 89 46 89 145 c 2
 89 528 l 1
 201 528 l 1xa7
EndSplineSet
EndChar

StartChar: v
Encoding: 118 118 250
Width: 600
GlyphClass: 2
Flags: MW
HStem: 0 21G<235 365 235 235> 0 93<302 302 302 365 235 302> 508 20G<48 169 169 169 437 552 552 552>
VStem: 48 504<528 528>
AnchorPoint: "Anchor-5" 300 528 basechar 0
AnchorPoint: "Anchor-4" 300 0 basechar 0
LayerCount: 2
Fore
SplineSet
552 528 m 1xb0
 365 0 l 1
 235 0 l 1
 48 528 l 1
 169 528 l 1
 302 93 l 1x70
 437 528 l 1
 552 528 l 1xb0
EndSplineSet
EndChar

StartChar: w
Encoding: 119 119 251
Width: 600
GlyphClass: 2
Flags: MW
HStem: 0 70<175 175 175 238> 508 20G<12 120 120 120 484 588 588 588>
VStem: 12 576<528 528>
AnchorPoint: "Anchor-5" 300 528 basechar 0
AnchorPoint: "Anchor-4" 300 0 basechar 0
LayerCount: 2
Fore
SplineSet
502 0 m 1
 362 0 l 1
 302 375 l 1
 238 0 l 1
 101 0 l 1
 12 528 l 1
 120 528 l 1
 175 70 l 1
 249 461 l 1
 361 461 l 1
 429 70 l 1
 484 528 l 1
 588 528 l 1
 502 0 l 1
EndSplineSet
EndChar

StartChar: wacute
Encoding: 7811 7811 252
Width: 600
GlyphClass: 2
Flags: MW
HStem: 0 70<175 175 175 238> 508 20G<12 120 120 120 484 588 588 588>
VStem: 12 576<528 528>
AnchorPoint: "Anchor-5" 300 528 basechar 0
AnchorPoint: "Anchor-4" 300 0 basechar 0
LayerCount: 2
Fore
SplineSet
381 811 m 1
 428 722 l 1
 209 633 l 1
 176 692 l 1
 381 811 l 1
502 0 m 1
 362 0 l 1
 302 375 l 1
 238 0 l 1
 101 0 l 1
 12 528 l 1
 120 528 l 1
 175 70 l 1
 249 461 l 1
 361 461 l 1
 429 70 l 1
 484 528 l 1
 588 528 l 1
 502 0 l 1
EndSplineSet
EndChar

StartChar: wcircumflex
Encoding: 373 373 253
Width: 600
GlyphClass: 2
Flags: MW
HStem: 0 70<175 175 175 238> 508 20G<12 120 120 120 484 588 588 588>
VStem: 12 576<528 528>
AnchorPoint: "Anchor-5" 300 528 basechar 0
AnchorPoint: "Anchor-4" 300 0 basechar 0
LayerCount: 2
Fore
SplineSet
173 622 m 1
 127 672 l 1
 264 799 l 1
 336 799 l 1
 473 672 l 1
 428 622 l 1
 301 714 l 1
 173 622 l 1
502 0 m 1
 362 0 l 1
 302 375 l 1
 238 0 l 1
 101 0 l 1
 12 528 l 1
 120 528 l 1
 175 70 l 1
 249 461 l 1
 361 461 l 1
 429 70 l 1
 484 528 l 1
 588 528 l 1
 502 0 l 1
EndSplineSet
EndChar

StartChar: wdieresis
Encoding: 7813 7813 254
Width: 600
GlyphClass: 2
Flags: MW
HStem: 0 70<175 175 175 238> 508 20G<12 120 120 120 484 588 588 588> 644 127<173.5 210 390 426.5>
VStem: 126 130<689 725.5> 343 130<689 725.5>
AnchorPoint: "Anchor-5" 300 707 basechar 0
AnchorPoint: "Anchor-4" 300 0 basechar 0
LayerCount: 2
Fore
SplineSet
192 644 m 0
 155 644 126 671 126 707 c 0
 126 744 155 771 192 771 c 0
 228 771 256 744 256 707 c 0
 256 671 228 644 192 644 c 0
408 644 m 0
 372 644 343 671 343 707 c 0
 343 744 372 771 408 771 c 0
 445 771 473 744 473 707 c 0
 473 671 445 644 408 644 c 0
502 0 m 1
 362 0 l 1
 302 375 l 1
 238 0 l 1
 101 0 l 1
 12 528 l 1
 120 528 l 1
 175 70 l 1
 249 461 l 1
 361 461 l 1
 429 70 l 1
 484 528 l 1
 588 528 l 1
 502 0 l 1
EndSplineSet
EndChar

StartChar: wgrave
Encoding: 7809 7809 255
Width: 600
GlyphClass: 2
Flags: MW
HStem: 0 70<175 175 175 238> 508 20G<12 120 120 120 484 588 588 588>
VStem: 12 576<528 528>
AnchorPoint: "Anchor-5" 300 528 basechar 0
AnchorPoint: "Anchor-4" 300 0 basechar 0
LayerCount: 2
Fore
SplineSet
391 622 m 1
 176 715 l 1
 228 805 l 1
 425 681 l 1
 391 622 l 1
502 0 m 1
 362 0 l 1
 302 375 l 1
 238 0 l 1
 101 0 l 1
 12 528 l 1
 120 528 l 1
 175 70 l 1
 249 461 l 1
 361 461 l 1
 429 70 l 1
 484 528 l 1
 588 528 l 1
 502 0 l 1
EndSplineSet
EndChar

StartChar: x
Encoding: 120 120 256
Width: 600
GlyphClass: 2
Flags: MW
HStem: 0 21G<43 167 43 43 426 426 426 557> 508 20G<64 193 193 193 409 532 532 532>
VStem: 43 514<0 0>
AnchorPoint: "Anchor-5" 300 528 basechar 0
AnchorPoint: "Anchor-4" 300 0 basechar 0
LayerCount: 2
Fore
SplineSet
167 0 m 1
 43 0 l 1
 233 278 l 1
 64 528 l 1
 193 528 l 1
 301 342 l 1
 409 528 l 1
 532 528 l 1
 367 283 l 1
 557 0 l 1
 426 0 l 1
 296 216 l 1
 167 0 l 1
EndSplineSet
EndChar

StartChar: y
Encoding: 121 121 257
Width: 600
GlyphClass: 2
Flags: MW
HStem: -216 21G<110 110> 0 21G<227 265 227 227> 508 20G<49 168 168 168 436 551 551 551>
VStem: 49 502<528 528>
AnchorPoint: "Anchor-5" 300 528 basechar 0
AnchorPoint: "Anchor-4" 0 0 basechar 0
LayerCount: 2
Fore
SplineSet
551 528 m 1
 369 -2 l 2
 329 -122 258 -203 110 -216 c 1
 96 -132 l 1
 203 -115 237 -76 265 0 c 1
 227 0 l 1
 49 528 l 1
 168 528 l 1
 301 78 l 1
 436 528 l 1
 551 528 l 1
EndSplineSet
EndChar

StartChar: yacute
Encoding: 253 253 258
Width: 600
GlyphClass: 2
Flags: MW
HStem: -216 21G<110 110> 0 21G<227 265 227 227> 508 20G<49 168 168 168 436 551 551 551>
VStem: 49 502<528 528>
AnchorPoint: "Anchor-5" 300 528 basechar 0
AnchorPoint: "Anchor-4" 0 0 basechar 0
LayerCount: 2
Fore
SplineSet
381 811 m 1
 428 722 l 1
 209 633 l 1
 176 692 l 1
 381 811 l 1
551 528 m 1
 369 -2 l 2
 329 -122 258 -203 110 -216 c 1
 96 -132 l 1
 203 -115 237 -76 265 0 c 1
 227 0 l 1
 49 528 l 1
 168 528 l 1
 301 78 l 1
 436 528 l 1
 551 528 l 1
EndSplineSet
EndChar

StartChar: ycircumflex
Encoding: 375 375 259
Width: 600
GlyphClass: 2
Flags: MW
HStem: -216 21G<110 110> 0 21G<227 265 227 227> 508 20G<49 168 168 168 436 551 551 551>
VStem: 49 502<528 528>
AnchorPoint: "Anchor-5" 300 528 basechar 0
AnchorPoint: "Anchor-4" 0 0 basechar 0
LayerCount: 2
Fore
SplineSet
173 622 m 1
 127 672 l 1
 264 799 l 1
 336 799 l 1
 473 672 l 1
 428 622 l 1
 301 714 l 1
 173 622 l 1
551 528 m 1
 369 -2 l 2
 329 -122 258 -203 110 -216 c 1
 96 -132 l 1
 203 -115 237 -76 265 0 c 1
 227 0 l 1
 49 528 l 1
 168 528 l 1
 301 78 l 1
 436 528 l 1
 551 528 l 1
EndSplineSet
EndChar

StartChar: ydieresis
Encoding: 255 255 260
Width: 600
GlyphClass: 2
Flags: MW
HStem: -216 21G<110 110> 0 21G<227 265 227 227> 508 20G<49 168 168 168 436 551 551 551> 644 127<173.5 210 390 426.5>
VStem: 126 130<689 725.5> 343 130<689 725.5>
AnchorPoint: "Anchor-5" 300 707 basechar 0
AnchorPoint: "Anchor-4" 0 0 basechar 0
LayerCount: 2
Fore
SplineSet
192 644 m 0
 155 644 126 671 126 707 c 0
 126 744 155 771 192 771 c 0
 228 771 256 744 256 707 c 0
 256 671 228 644 192 644 c 0
408 644 m 0
 372 644 343 671 343 707 c 0
 343 744 372 771 408 771 c 0
 445 771 473 744 473 707 c 0
 473 671 445 644 408 644 c 0
551 528 m 1
 369 -2 l 2
 329 -122 258 -203 110 -216 c 1
 96 -132 l 1
 203 -115 237 -76 265 0 c 1
 227 0 l 1
 49 528 l 1
 168 528 l 1
 301 78 l 1
 436 528 l 1
 551 528 l 1
EndSplineSet
EndChar

StartChar: ygrave
Encoding: 7923 7923 261
Width: 600
GlyphClass: 2
Flags: MW
HStem: -216 21G<110 110> 0 21G<227 265 227 227> 508 20G<49 168 168 168 436 551 551 551>
VStem: 49 502<528 528>
AnchorPoint: "Anchor-5" 300 528 basechar 0
AnchorPoint: "Anchor-4" 0 0 basechar 0
LayerCount: 2
Fore
SplineSet
391 622 m 1
 176 715 l 1
 228 805 l 1
 425 681 l 1
 391 622 l 1
551 528 m 1
 369 -2 l 2
 329 -122 258 -203 110 -216 c 1
 96 -132 l 1
 203 -115 237 -76 265 0 c 1
 227 0 l 1
 49 528 l 1
 168 528 l 1
 301 78 l 1
 436 528 l 1
 551 528 l 1
EndSplineSet
EndChar

StartChar: z
Encoding: 122 122 262
Width: 600
GlyphClass: 2
Flags: MW
HStem: 0 90<225 496> 438 90<113 372 113 504>
VStem: 91 417<0 90 82 90>
AnchorPoint: "Anchor-5" 309 528 basechar 0
AnchorPoint: "Anchor-4" 300 0 basechar 0
LayerCount: 2
Fore
SplineSet
225 90 m 1
 508 90 l 1
 496 0 l 1
 91 0 l 1
 91 82 l 1
 372 438 l 1
 113 438 l 1
 113 528 l 1
 504 528 l 1
 504 446 l 1
 225 90 l 1
EndSplineSet
EndChar

StartChar: zacute
Encoding: 378 378 263
Width: 600
GlyphClass: 2
Flags: MW
HStem: 0 90<225 496> 438 90<113 372 113 504>
VStem: 91 417<0 90 82 90>
AnchorPoint: "Anchor-5" 309 528 basechar 0
AnchorPoint: "Anchor-4" 300 0 basechar 0
LayerCount: 2
Fore
SplineSet
390 811 m 1
 437 722 l 1
 218 633 l 1
 185 692 l 1
 390 811 l 1
225 90 m 1
 508 90 l 1
 496 0 l 1
 91 0 l 1
 91 82 l 1
 372 438 l 1
 113 438 l 1
 113 528 l 1
 504 528 l 1
 504 446 l 1
 225 90 l 1
EndSplineSet
Substitution2: "'locl' Localized Forms in Latin lookup 7 subtable" zacute.loclPLK
Substitution2: "'aalt' Access All Alternates in Latin lookup 0 subtable" zacute.loclPLK
EndChar

StartChar: zcaron
Encoding: 382 382 264
Width: 600
GlyphClass: 2
Flags: MW
HStem: 0 90<225 496> 438 90<113 372 113 504> 729 20G<136 136 482 482>
VStem: 91 417<0 90 82 90>
AnchorPoint: "Anchor-5" 309 528 basechar 0
AnchorPoint: "Anchor-4" 300 0 basechar 0
LayerCount: 2
Fore
SplineSet
437 799 m 1
 482 749 l 1
 345 622 l 1
 273 622 l 1
 136 749 l 1
 182 799 l 1
 310 707 l 1
 437 799 l 1
225 90 m 1
 508 90 l 1
 496 0 l 1
 91 0 l 1
 91 82 l 1
 372 438 l 1
 113 438 l 1
 113 528 l 1
 504 528 l 1
 504 446 l 1
 225 90 l 1
EndSplineSet
EndChar

StartChar: zdotaccent
Encoding: 380 380 265
Width: 600
GlyphClass: 2
Flags: MW
HStem: 0 90<225 496> 438 90<113 372 113 504> 646 141<286.5 330>
VStem: 235 147<696 736>
AnchorPoint: "Anchor-5" 309 528 basechar 0
AnchorPoint: "Anchor-4" 300 0 basechar 0
LayerCount: 2
Fore
SplineSet
308 787 m 0
 352 787 382 756 382 716 c 0
 382 676 352 646 308 646 c 0
 265 646 235 676 235 716 c 0
 235 756 265 787 308 787 c 0
225 90 m 1
 508 90 l 1
 496 0 l 1
 91 0 l 1
 91 82 l 1
 372 438 l 1
 113 438 l 1
 113 528 l 1
 504 528 l 1
 504 446 l 1
 225 90 l 1
EndSplineSet
EndChar

StartChar: cacute.loclPLK
Encoding: 1114119 -1 266
Width: 600
GlyphClass: 2
Flags: MW
HStem: -13 92<303 368.5 303 375> 452 90<302 366.5>
VStem: 83 119<195 327 195 341.5>
AnchorPoint: "Anchor-5" 344 518 basechar 0
AnchorPoint: "Anchor-4" 339 0 basechar 0
LayerCount: 2
Fore
SplineSet
388 781 m 1
 475 725 l 1
 339 568 l 1
 285 602 l 1
 388 781 l 1
344 79 m 0
 393 79 435 98 474 124 c 1
 525 52 l 1
 479 13 410 -13 340 -13 c 0
 177 -13 83 96 83 261 c 0
 83 422 179 542 342 542 c 0
 414 542 474 520 525 478 c 1
 473 408 l 1
 432 436 389 452 344 452 c 0
 260 452 202 393 202 261 c 0
 202 129 262 79 344 79 c 0
EndSplineSet
EndChar

StartChar: nacute.loclPLK
Encoding: 1114120 -1 267
Width: 600
GlyphClass: 2
Flags: MW
HStem: 0 21G<89 89 89 201 400 400 400 512> 456 86<333 357> 508 20G<89 186 186 186>
VStem: 89 112<0 379 0 528> 400 112<0 329 329 375>
AnchorPoint: "Anchor-5" 300 528 basechar 0
AnchorPoint: "Anchor-4" 301 0 basechar 0
LayerCount: 2
Fore
SplineSet
344 791 m 1xd8
 431 735 l 1
 295 578 l 1
 241 612 l 1
 344 791 l 1xd8
89 0 m 1
 89 528 l 1
 186 528 l 1xb8
 194 459 l 1
 238 513 301 542 365 542 c 0
 463 542 512 484 512 385 c 2
 512 0 l 1
 400 0 l 1
 400 329 l 2
 400 421 389 456 325 456 c 0
 273 456 229 419 201 379 c 1
 201 0 l 1
 89 0 l 1
EndSplineSet
EndChar

StartChar: oacute.loclPLK
Encoding: 1114121 -1 268
Width: 600
GlyphClass: 2
Flags: MW
HStem: -13 86<259.5 340.5 259.5 376.5> 455 87<260.5 341>
VStem: 61 118<198.5 329.5 198.5 346.5> 421 118<199 330>
AnchorPoint: "Anchor-5" 300 528 basechar 0
AnchorPoint: "Anchor-4" 300 0 basechar 0
LayerCount: 2
Fore
SplineSet
344 791 m 1
 431 735 l 1
 295 578 l 1
 241 612 l 1
 344 791 l 1
301 542 m 0
 455 542 539 433 539 265 c 0
 539 97 453 -13 300 -13 c 0
 146 -13 61 93 61 264 c 0
 61 429 147 542 301 542 c 0
301 455 m 0
 220 455 179 395 179 264 c 0
 179 133 219 73 300 73 c 0
 381 73 421 133 421 265 c 0
 421 395 381 455 301 455 c 0
EndSplineSet
EndChar

StartChar: sacute.loclPLK
Encoding: 1114122 -1 269
Width: 600
GlyphClass: 2
Flags: MW
HStem: -13 85<250 316 250 341.5> 457 85<273 340>
VStem: 95 114<379 416.5 379 435.5> 395 119<121 164.5>
AnchorPoint: "Anchor-5" 309 528 basechar 0
AnchorPoint: "Anchor-4" 298 0 basechar 0
LayerCount: 2
Fore
SplineSet
353 791 m 1
 440 735 l 1
 304 578 l 1
 250 612 l 1
 353 791 l 1
281 72 m 0
 351 72 395 99 395 143 c 0
 395 186 378 206 269 234 c 0
 164 261 95 298 95 390 c 0
 95 481 176 542 306 542 c 0
 395 542 459 516 507 481 c 1
 459 410 l 1
 418 437 371 457 309 457 c 0
 237 457 209 434 209 399 c 0
 209 359 238 344 343 315 c 0
 446 287 514 251 514 151 c 0
 514 36 402 -13 281 -13 c 0
 183 -13 113 19 64 61 c 1
 123 129 l 1
 164 96 219 72 281 72 c 0
EndSplineSet
EndChar

StartChar: zacute.loclPLK
Encoding: 1114123 -1 270
Width: 600
GlyphClass: 2
Flags: MW
HStem: 0 90<225 496> 438 90<113 372 113 504>
VStem: 91 417<0 90 82 90>
AnchorPoint: "Anchor-5" 309 528 basechar 0
AnchorPoint: "Anchor-4" 300 0 basechar 0
LayerCount: 2
Fore
SplineSet
353 791 m 1
 440 735 l 1
 304 578 l 1
 250 612 l 1
 353 791 l 1
225 90 m 1
 508 90 l 1
 496 0 l 1
 91 0 l 1
 91 82 l 1
 372 438 l 1
 113 438 l 1
 113 528 l 1
 504 528 l 1
 504 446 l 1
 225 90 l 1
EndSplineSet
EndChar

StartChar: fi
Encoding: 64257 64257 271
Width: 600
GlyphClass: 3
Flags: MW
HStem: 0 82<314 395 506 588 314 395> 445 83<16 102 16 102 212 395> 666 87<280 335>
VStem: 102 110<0 445 0 445 528 584> 395 111<82 445 445 445>
LayerCount: 2
Fore
SplineSet
588 0 m 1
 314 0 l 1
 314 82 l 1
 395 82 l 1
 395 445 l 1
 212 445 l 1
 212 0 l 1
 102 0 l 1
 102 445 l 1
 16 445 l 1
 16 528 l 1
 102 528 l 1
 102 585 l 2
 102 685 182 753 304 753 c 0
 369 753 419 741 462 722 c 1
 429 644 l 1
 394 659 355 666 315 666 c 0
 245 666 212 640 212 584 c 2
 212 528 l 1
 506 528 l 1
 506 82 l 1
 588 82 l 1
 588 0 l 1
EndSplineSet
Ligature2: "'dlig' Discretionary Ligatures in Latin lookup 24 subtable" f i
EndChar

StartChar: fl
Encoding: 64258 64258 272
Width: 600
GlyphClass: 3
Flags: MW
HStem: -13 90<516 529.5> 0 21G<94 205 94 94> 445 83<11 94 11 94 205 302> 667 86<270 315 236 316>
VStem: 94 111<0 445 0 445 528 584> 374 110<127 134 134 658 658 658>
LayerCount: 2
Fore
SplineSet
603 7 m 1xbc
 578 -4 550 -13 509 -13 c 0xbc
 429 -13 374 31 374 127 c 2
 374 658 l 1
 352 664 328 667 304 667 c 0
 236 667 205 640 205 584 c 2
 205 528 l 1
 315 528 l 1
 302 445 l 1
 205 445 l 1
 205 0 l 1
 94 0 l 1x7c
 94 445 l 1
 11 445 l 1
 11 528 l 1
 94 528 l 1
 94 585 l 2
 94 685 176 753 296 753 c 0
 334 753 366 746 397 735 c 1
 484 751 l 1
 484 134 l 2
 484 90 502 77 530 77 c 0
 547 77 561 81 577 87 c 1
 603 7 l 1xbc
EndSplineSet
Ligature2: "'dlig' Discretionary Ligatures in Latin lookup 24 subtable" f l
EndChar

StartChar: ordfeminine
Encoding: 170 170 273
Width: 600
GlyphClass: 2
Flags: MW
HStem: 0 88<104 504 104 504> 306 72<251 273> 515 67<312 321 321 369> 676 77<267.5 306.5>
VStem: 95 107<423 468 423 485.5> 369 97<431 515 515 515 582 605 605 608>
LayerCount: 2
Fore
SplineSet
290 753 m 0
 412 753 466 699 466 608 c 2
 466 423 l 2
 466 394 476 381 498 374 c 1
 475 307 l 1
 428 312 398 329 381 365 c 1
 348 327 299 306 247 306 c 0
 156 306 95 360 95 441 c 0
 95 530 175 582 312 582 c 2
 369 582 l 1
 369 605 l 2
 369 657 337 676 276 676 c 0
 249 676 204 669 156 652 c 1
 129 722 l 1
 189 744 245 753 290 753 c 0
369 515 m 1
 321 515 l 2
 236 515 202 491 202 445 c 0
 202 401 228 378 274 378 c 0
 310 378 345 398 369 431 c 1
 369 515 l 1
504 88 m 1
 504 0 l 1
 104 0 l 1
 104 88 l 1
 504 88 l 1
EndSplineSet
EndChar

StartChar: ordmasculine
Encoding: 186 186 274
Width: 600
GlyphClass: 2
Flags: MW
HStem: 0 88<100 501 100 501> 306 78<267.5 332.5 267.5 364.5> 676 77<267.5 332.5>
VStem: 89 105<479 580.5 479 595> 405 105<479 580.5>
LayerCount: 2
Fore
SplineSet
300 753 m 0
 430 753 510 663 510 530 c 0
 510 398 429 306 300 306 c 0
 170 306 89 395 89 530 c 0
 89 660 171 753 300 753 c 0
300 676 m 0
 235 676 194 631 194 530 c 0
 194 428 235 384 300 384 c 0
 365 384 405 428 405 530 c 0
 405 631 365 676 300 676 c 0
501 88 m 1
 501 0 l 1
 100 0 l 1
 100 88 l 1
 501 88 l 1
EndSplineSet
EndChar

StartChar: uni207F
Encoding: 8319 8319 275
Width: 600
GlyphClass: 2
Flags: MW
HStem: 655 68<322.5 330>
VStem: 162 87<378 613 378 715> 351 88<378 586 586 611>
LayerCount: 2
Fore
SplineSet
339 723 m 0
 407 723 439 685 439 620 c 2
 439 378 l 1
 351 378 l 1
 351 586 l 2
 351 636 346 655 314 655 c 0
 290 655 266 636 249 613 c 1
 249 378 l 1
 162 378 l 1
 162 715 l 1
 240 715 l 1
 243 677 l 1
 270 710 306 723 339 723 c 0
EndSplineSet
EndChar

StartChar: uni052C
Encoding: 1324 1324 276
Width: 600
GlyphClass: 2
Flags: MW
HStem: 0 91<198 426 53 160> 319 88<315 426 315 426 301 426> 602 88<336 336 336 426>
VStem: 45 104<550 553 553 690> 53 91<-157 91> 426 105<91 319 319 319 407 602 602 602>
AnchorPoint: "Anchor-1" 300 690 basechar 0
AnchorPoint: "Anchor-0" 300 -208 basechar 0
LayerCount: 2
Fore
SplineSet
531 91 m 1xf4
 571 91 l 1
 571 -157 l 1
 481 -157 l 1
 465 0 l 1
 160 0 l 1
 144 -157 l 1
 53 -157 l 1
 53 91 l 1
 93 91 l 1xec
 128 134 167 201 194 329 c 1
 91 353 45 424 45 550 c 2
 45 690 l 1
 149 690 l 1
 149 553 l 2
 149 482 164 440 211 420 c 1
 220 492 l 1
 240 690 l 1
 531 690 l 1
 531 91 l 1xf4
336 602 m 1
 325 487 l 2
 322 458 319 432 315 407 c 1
 426 407 l 1
 426 602 l 1
 336 602 l 1
198 91 m 1
 426 91 l 1
 426 319 l 1
 301 319 l 1
 277 203 245 141 198 91 c 1
EndSplineSet
EndChar

StartChar: uni052A
Encoding: 1322 1322 277
Width: 600
GlyphClass: 2
Flags: MW
HStem: 0 77<91 218 -14 70> 322 76<299 346 299 346 426 452> 616 74<171 218 171 171>
VStem: -14 76.5 86.5 80 218 81<77 322 398 616 616 616> 286.5 76.5 346 80<77 322 0 322 398 690>
AnchorPoint: "Anchor-1" 300 690 basechar 0
AnchorPoint: "Anchor-0" 300 -208 basechar 0
LayerCount: 2
Fore
SplineSet
523 368 m 1xf5
 613 0 l 1
 523 0 l 1
 452 322 l 1
 426 322 l 1
 426 0 l 1xfd
 363 0 l 1
 363 -157 l 1
 294 -157 l 1
 279 0 l 1
 70 0 l 1
 55 -157 l 1
 -14 -157 l 1
 -14 77 l 1
 18 77 l 1xf2
 43 137 64 212 79 450 c 2
 94 690 l 1xfd
 299 690 l 1
 299 398 l 1
 346 398 l 1
 346 690 l 1
 426 690 l 1
 426 398 l 1
 452 398 l 1
 516 690 l 1
 597 690 l 1
 523 368 l 1xf5
218 77 m 1
 218 616 l 1
 171 616 l 1
 162 445 l 2
 152 221 131 143 91 77 c 1
 218 77 l 1
346 322 m 1
 299 322 l 1
 299 77 l 1
 346 77 l 1
 346 322 l 1
EndSplineSet
EndChar

StartChar: uni052E
Encoding: 1326 1326 278
Width: 600
GlyphClass: 2
Flags: MW
HStem: -157 248<500 556 500 556 466 556> -14 21G<47 47> 0 91<384 556> 597 93<251 384 251 251>
VStem: 384 116<91 91 91 597 597 597>
LayerCount: 2
Fore
SplineSet
500 91 m 1x38
 556 91 l 1x38
 556 -157 l 1
 466 -157 l 1x98
 450 0 l 1
 384 0 l 1x38
 384 597 l 1
 251 597 l 1
 231 428 l 2
 196 104 155 49 47 -14 c 1
 -1 66 l 1x58
 52 108 85 142 117 419 c 2
 149 690 l 1
 500 690 l 1
 500 91 l 1x38
EndSplineSet
EndChar

StartChar: uni0528
Encoding: 1320 1320 279
Width: 600
GlyphClass: 2
Flags: MW
HStem: -218 89<-2.5 31.5 -2.5 72.5> 0 21G<413 529 413 413> 314 95<187 413 187 413> 670 20G<71 187 187 187 413 529 529 529>
VStem: 71 116<-57 -49 -49 314 409 690> 413 116<0 314 314 314 409 690 0 690>
AnchorPoint: "Anchor-1" 300 690 basechar 0
AnchorPoint: "Anchor-0" 300 0 basechar 0
LayerCount: 2
Fore
SplineSet
413 690 m 1
 529 690 l 1
 529 0 l 1
 413 0 l 1
 413 314 l 1
 187 314 l 1
 187 -49 l 2
 187 -161 124 -218 21 -218 c 0
 -35 -218 -72 -199 -100 -178 c 1
 -57 -108 l 1
 -35 -120 -18 -129 13 -129 c 0
 50 -129 71 -107 71 -57 c 2
 71 690 l 1
 187 690 l 1
 187 409 l 1
 413 409 l 1
 413 690 l 1
EndSplineSet
EndChar

StartChar: uni0410
Encoding: 1040 1040 280
Width: 600
GlyphClass: 2
Flags: MW
HStem: 0 21G<8 127 8 8 469 469 469 592> 166 90<199 397 199 421 175 397> 600 90<298 298> 670 20G<228 372 372 372>
VStem: 8 584<0 0>
AnchorPoint: "Anchor-1" 300 690 basechar 0
AnchorPoint: "Anchor-0" 298 0 basechar 0
LayerCount: 2
Fore
SplineSet
421 166 m 1xd8
 175 166 l 1
 127 0 l 1
 8 0 l 1
 228 690 l 1
 372 690 l 1
 592 0 l 1
 469 0 l 1
 421 166 l 1xd8
199 256 m 1
 397 256 l 1
 298 600 l 1xe8
 199 256 l 1
EndSplineSet
EndChar

